<svg width="319" height="249" viewBox="0 0 319 249" fill="none" xmlns="http://www.w3.org/2000/svg">
<g clip-path="url(#clip0_273_168)">
<path opacity="0.1" d="M106.099 248.86C121.621 248.86 134.204 246.631 134.204 243.882C134.204 241.132 121.621 238.903 106.099 238.903C90.5765 238.903 77.9933 241.132 77.9933 243.882C77.9933 246.631 90.5765 248.86 106.099 248.86Z" fill="#41C1BA" style="fill:#41C1BA;fill:color(display-p3 0.2549 0.7569 0.7294);fill-opacity:1;"/>
<path opacity="0.1" d="M258.875 249C278.245 249 293.947 246.771 293.947 244.021C293.947 241.272 278.245 239.043 258.875 239.043C239.506 239.043 223.804 241.272 223.804 244.021C223.804 246.771 239.506 249 258.875 249Z" fill="#41C1BA" style="fill:#41C1BA;fill:color(display-p3 0.2549 0.7569 0.7294);fill-opacity:1;"/>
<path opacity="0.1" d="M4.12437 107.586H33.3979V151.591H6.26746C6.19535 152.042 6.12612 152.497 6.05113 152.952H33.3979V188.441C33.3489 188.425 33.3056 188.406 33.2595 188.387C32.4865 188.05 31.7192 187.693 30.952 187.312L30.4616 187.067C29.6925 186.666 28.9233 186.242 28.1541 185.794C27.8859 185.638 27.6176 185.476 27.3523 185.311C23.0822 182.673 19.203 179.33 15.8494 175.398C15.7513 175.293 15.659 175.182 15.5609 175.08C15.0937 174.52 14.635 173.954 14.1908 173.375L13.7005 172.739C13.1755 172.029 12.6679 171.301 12.1747 170.563C12.1026 170.455 12.0333 170.347 11.9583 170.245C9.95239 167.177 8.28681 163.856 6.99721 160.351C6.95682 160.246 6.92221 160.132 6.88472 160.033C6.48859 158.909 6.13766 157.775 5.83192 156.629C5.69924 156.149 5.57232 155.675 5.46272 155.176C5.42234 155.029 5.38772 154.886 5.35599 154.743C3.71767 147.69 3.52441 140.364 3.52441 133.089C3.52441 132.24 3.52441 131.387 3.52441 130.544C3.52441 127.602 3.55614 124.64 3.60229 121.682C3.60229 120.915 3.63114 120.151 3.64556 119.382C3.68594 117.428 3.74363 115.475 3.81862 113.522C3.83593 112.978 3.859 112.437 3.88496 111.896C3.88496 111.585 3.89938 111.273 3.92823 110.961C3.99745 109.829 4.05514 108.706 4.12437 107.586Z" fill="#41C1BA" style="fill:#41C1BA;fill:color(display-p3 0.2549 0.7569 0.7294);fill-opacity:1;"/>
<path opacity="0.1" d="M33.3979 58.5902H17.3406C19.9508 54.0844 22.8027 49.7546 25.8812 45.6239C28.2666 42.3919 30.7847 39.2426 33.3979 36.2078V58.5902Z" fill="#41C1BA" style="fill:#41C1BA;fill:color(display-p3 0.2549 0.7569 0.7294);fill-opacity:1;"/>
<path opacity="0.1" d="M33.3978 59.9517V106.224H4.21655C4.21655 106.091 4.23674 105.954 4.2454 105.82C4.27136 105.455 4.29731 105.089 4.32616 104.726C4.35789 104.3 4.3925 103.87 4.43 103.454C4.46749 103.037 4.50787 102.528 4.55114 102.067C4.59441 101.605 4.63479 101.138 4.68382 100.677C4.73286 100.215 4.77612 99.754 4.82804 99.2959C4.87996 98.8378 4.92611 98.3734 4.98091 97.9153C5.02418 97.5336 5.07033 97.155 5.11648 96.7733C5.18282 96.2357 5.25204 95.6949 5.32704 95.1604C5.32704 95.0809 5.34723 94.9982 5.35877 94.9219C5.88522 91.0096 6.60255 87.1315 7.50763 83.3044C8.45503 79.2897 9.66482 75.356 11.1275 71.5342C12.6821 67.536 14.5023 63.67 16.5732 59.9676L33.3978 59.9517Z" fill="#41C1BA" style="fill:#41C1BA;fill:color(display-p3 0.2549 0.7569 0.7294);fill-opacity:1;"/>
<path opacity="0.1" d="M40.3867 107.583V151.59H102.911V107.583H40.3867ZM40.3867 152.949V190.741C40.7444 190.823 41.0992 190.903 41.4511 190.97C41.9299 191.071 42.4058 191.164 42.8932 191.243C42.9855 191.259 43.0807 191.275 43.1817 191.285C43.3721 191.32 43.5682 191.348 43.7586 191.377C44.2402 191.45 44.7191 191.51 45.2007 191.558C45.4286 191.584 45.6594 191.606 45.8901 191.625L46.4468 191.673C46.7497 191.698 47.0496 191.717 47.3467 191.727C47.5313 191.727 47.7159 191.746 47.9063 191.752C48.0505 191.752 48.1947 191.752 48.3447 191.752C48.4947 191.752 48.7081 191.752 48.8899 191.752C49.1379 191.752 49.386 191.752 49.6312 191.752H49.9629C50.2109 191.752 50.459 191.752 50.7041 191.727H50.7214C50.8916 191.727 51.0647 191.727 51.2377 191.701C51.2858 191.704 51.3339 191.704 51.382 191.701C51.5262 191.701 51.6704 191.701 51.8089 191.679H51.9098L52.8761 191.596C53.1934 191.564 53.5135 191.523 53.8366 191.485L54.4942 191.399C57.1697 190.986 59.8155 190.365 62.4118 189.541C68.244 187.747 73.9493 185.237 79.7787 183.399C87.3155 181.029 95.6427 179.864 102.926 182.762V152.949H40.3867ZM102.911 58.5899V0.00300511C96.066 -0.0787894 89.2392 0.804231 82.5967 2.63062C66.7644 7.0174 52.5588 16.5322 40.3867 28.6841V58.5868H43.5249V59.9451H40.3867V106.224H102.911V59.9483H56.4094V58.5899H102.911ZM183.221 38.8001C179.304 38.6474 175.41 37.2795 171.888 35.1673C165.153 31.1272 159.774 24.889 153.763 19.6242C141.274 8.65887 125.785 2.04211 109.894 0.400647V58.5899H199.152L199.374 58.3323L183.221 38.8001ZM191.352 37.2095L199.974 47.6437V34.4738C197.086 34.8682 194.557 35.8067 191.364 37.1968L191.352 37.2095ZM199.974 200.125V152.949H181.603C181.554 152.748 181.505 152.545 181.447 152.341C181.502 152.545 181.548 152.748 181.6 152.949H109.906V187.066C110.587 187.623 111.259 188.208 111.925 188.803C112.643 189.439 113.353 190.111 114.065 190.769L114.783 191.425C115.127 191.743 115.473 192.061 115.822 192.36C116.514 192.979 117.213 193.59 117.919 194.192C118.268 194.51 118.625 194.797 118.98 195.096C124.613 199.845 130.554 204.131 136.757 207.919C138.147 208.767 139.55 209.595 140.965 210.403C141.908 210.934 142.857 211.462 143.809 211.975C145.24 212.744 146.682 213.487 148.136 214.201C161.538 220.837 175.711 225.39 190.247 227.731C193.476 228.257 196.717 228.67 199.971 228.971V200.122H200.259L199.974 200.125ZM109.906 59.9483V106.224H199.985V59.9483H109.906ZM109.906 107.583V151.59H199.985V107.583H109.906ZM206.977 34.4165V49.107L217.981 35.7908C214.335 35.1418 210.667 34.6784 206.977 34.4006V34.4165ZM206.977 107.598V151.59H294.59V107.583L206.977 107.598ZM294.27 203.618L294.578 152.949H206.977V229.477C212.62 229.739 218.272 229.664 223.908 229.255H224.006C226.698 229.068 229.378 228.796 232.045 228.44H232.106C246.334 226.614 260.248 222.519 273.41 216.285M311.484 114.829C311.155 113.973 310.812 113.124 310.463 112.284C309.811 110.694 309.121 109.148 308.412 107.602H301.576V151.59H318.859C318.85 139.133 315.992 126.409 311.492 114.813L311.484 114.829ZM301.576 152.965V196.546C306.445 191.399 310.558 185.511 313.52 178.78C317.082 170.674 318.712 161.897 318.845 152.958L301.576 152.965ZM301.576 94.7753V106.227H307.771C305.897 102.285 303.832 98.4569 301.584 94.7594L301.576 94.7753ZM242.158 43.0501C241.702 42.8592 241.246 42.6652 240.788 42.4775C235.951 40.5075 231.008 38.8693 225.988 37.5722L209.149 57.9537L208.826 58.3323L209.042 58.5931H268.974C260.627 52.2565 251.628 47.0337 242.166 43.0342L242.158 43.0501ZM270.73 59.9642H208.206L206.977 61.2048V106.224H217.747H217.764H294.601V84.4176C287.651 75.1464 279.628 66.9199 270.739 59.9483L270.73 59.9642Z" fill="#41C1BA" style="fill:#41C1BA;fill:color(display-p3 0.2549 0.7569 0.7294);fill-opacity:1;"/>
<path opacity="0.1" d="M33.3978 83.2915V106.224H4.21655C4.21655 106.091 4.23674 105.954 4.2454 105.82C4.27136 105.454 4.29731 105.089 4.32616 104.726C4.35789 104.3 4.3925 103.87 4.43 103.454C4.46749 103.037 4.50787 102.528 4.55114 102.067C4.59441 101.605 4.63479 101.138 4.68382 100.676C4.73286 100.215 4.77612 99.7539 4.82804 99.2958C4.87996 98.8377 4.92611 98.3733 4.98091 97.9152C5.02418 97.5334 5.07033 97.1549 5.11648 96.7731C5.18282 96.2355 5.25204 95.6947 5.32704 95.1603C5.32704 95.0808 5.34723 94.9981 5.35877 94.9217C5.88522 91.0094 6.60255 87.1313 7.50763 83.3042L33.3978 83.2915Z" fill="#41C1BA" style="fill:#41C1BA;fill:color(display-p3 0.2549 0.7569 0.7294);fill-opacity:1;"/>
<path opacity="0.1" d="M4.12437 107.586H33.3979V151.591H6.26746C6.19535 152.042 6.12612 152.497 6.05113 152.952H33.3979V188.441C33.3489 188.425 33.3056 188.406 33.2595 188.387C32.4865 188.05 31.7192 187.693 30.952 187.312L30.4616 187.067C29.6925 186.666 28.9233 186.242 28.1541 185.794C27.8859 185.638 27.6176 185.476 27.3523 185.311C23.0822 182.673 19.203 179.33 15.8494 175.398C15.7513 175.293 15.659 175.182 15.5609 175.08C15.0937 174.52 14.635 173.954 14.1908 173.375L13.7005 172.739C13.1755 172.029 12.6679 171.301 12.1747 170.563C12.1026 170.455 12.0333 170.347 11.9583 170.245C9.95239 167.177 8.28681 163.856 6.99721 160.351C6.95682 160.246 6.92221 160.132 6.88472 160.033C6.48859 158.909 6.13766 157.775 5.83192 156.629C5.69924 156.149 5.57232 155.675 5.46272 155.176C5.42234 155.029 5.38772 154.886 5.35599 154.743C3.71767 147.69 3.52441 140.364 3.52441 133.089C3.52441 132.24 3.52441 131.387 3.52441 130.544C3.52441 127.602 3.55614 124.64 3.60229 121.682C3.60229 120.915 3.63114 120.151 3.64556 119.382C3.68594 117.428 3.74363 115.475 3.81862 113.522C3.83593 112.978 3.859 112.437 3.88496 111.896C3.88496 111.585 3.89938 111.273 3.92823 110.961C3.99745 109.829 4.05514 108.706 4.12437 107.586Z" fill="#41C1BA" style="fill:#41C1BA;fill:color(display-p3 0.2549 0.7569 0.7294);fill-opacity:1;"/>
<path opacity="0.1" d="M62.3974 66.5748V106.224H40.3867V66.5748H43.5249V53.1504H56.4066V66.5748H62.3974Z" fill="#41C1BA" style="fill:#41C1BA;fill:color(display-p3 0.2549 0.7569 0.7294);fill-opacity:1;"/>
<path opacity="0.1" d="M62.3975 107.583H40.3896V151.587H62.3975V107.583Z" fill="#41C1BA" style="fill:#41C1BA;fill:color(display-p3 0.2549 0.7569 0.7294);fill-opacity:1;"/>
<path opacity="0.1" d="M40.3867 152.952H62.3974V189.535C59.801 190.358 57.1553 190.978 54.4798 191.39L53.8222 191.479C53.4991 191.52 53.1789 191.555 52.8617 191.59C52.5444 191.625 52.2156 191.651 51.8954 191.673H51.7944C51.656 191.673 51.506 191.692 51.3704 191.695H51.2233C51.0503 191.695 50.8772 191.714 50.7041 191.721C50.459 191.737 50.2138 191.74 49.9629 191.743C49.8561 191.743 49.7552 191.743 49.6485 191.743C49.4004 191.743 49.1552 191.743 48.9072 191.743H48.362C48.2149 191.743 48.0736 191.743 47.9207 191.743L47.364 191.721C47.0756 191.721 46.7641 191.686 46.4641 191.663L45.9103 191.619L45.2209 191.549C44.7364 191.501 44.2547 191.441 43.7787 191.368L43.2019 191.278L42.9134 191.234C42.4317 191.151 41.9558 191.062 41.4712 190.96C41.1165 190.894 40.7646 190.811 40.4069 190.731L40.3867 152.952Z" fill="#41C1BA" style="fill:#41C1BA;fill:color(display-p3 0.2549 0.7569 0.7294);fill-opacity:1;"/>
<path opacity="0.1" d="M199.985 61.8921H181.837V106.221H199.985V61.8921Z" fill="#41C1BA" style="fill:#41C1BA;fill:color(display-p3 0.2549 0.7569 0.7294);fill-opacity:1;"/>
<path opacity="0.1" d="M199.988 107.583V151.591H109.906V132.609H157.888V143.806H181.837V107.583H199.988Z" fill="#41C1BA" style="fill:#41C1BA;fill:color(display-p3 0.2549 0.7569 0.7294);fill-opacity:1;"/>
<path opacity="0.1" d="M200.274 200.135H199.985V229.003C196.735 228.7 193.495 228.288 190.265 227.766C175.721 225.418 161.542 220.855 148.136 214.208C144.265 212.287 140.473 210.189 136.76 207.916C130.557 204.126 124.615 199.84 118.98 195.093C117.565 193.896 116.168 192.673 114.789 191.422C113.835 190.553 112.886 189.662 111.925 188.797C111.259 188.202 110.587 187.617 109.906 187.057V152.952H181.597C181.548 152.748 181.499 152.545 181.447 152.344C181.502 152.545 181.554 152.748 181.603 152.952H199.985V200.116C200.083 200.119 200.178 200.128 200.274 200.135Z" fill="#41C1BA" style="fill:#41C1BA;fill:color(display-p3 0.2549 0.7569 0.7294);fill-opacity:1;"/>
<path opacity="0.1" d="M247.318 58.59H235.492V54.5372H240.793V42.4648C241.253 42.6493 241.711 42.8392 242.166 43.0343V54.5372H247.318V58.59Z" fill="#41C1BA" style="fill:#41C1BA;fill:color(display-p3 0.2549 0.7569 0.7294);fill-opacity:1;"/>
<path opacity="0.1" d="M275.81 106.224H217.753C217.753 106.224 217.753 106.224 217.773 106.24L217.747 106.224H206.977V61.8953H210.028V94.661H223.974V75.2561H235.495V59.9517H247.321V75.2688H258.841V94.6737H275.81V106.224Z" fill="#41C1BA" style="fill:#41C1BA;fill:color(display-p3 0.2549 0.7569 0.7294);fill-opacity:1;"/>
<path opacity="0.1" d="M206.977 107.583V151.591H275.81V107.583H206.977ZM294.495 203.392L294.59 168.559H275.81V152.971H206.977V229.477C212.62 229.739 218.272 229.665 223.908 229.255H224.006C226.698 229.068 229.378 228.797 232.045 228.44H232.106C246.334 226.614 260.247 222.52 273.41 216.285" fill="#41C1BA" style="fill:#41C1BA;fill:color(display-p3 0.2549 0.7569 0.7294);fill-opacity:1;"/>
<path opacity="0.1" d="M302.799 152.952H318.856C318.715 161.888 317.088 170.665 313.529 178.77C310.566 185.505 306.45 191.393 301.587 196.537V168.543H302.799V152.952Z" fill="#41C1BA" style="fill:#41C1BA;fill:color(display-p3 0.2549 0.7569 0.7294);fill-opacity:1;"/>
<path opacity="0.1" d="M318.865 151.591H302.799V114.813H311.492C315.992 126.409 318.85 139.133 318.865 151.591Z" fill="#41C1BA" style="fill:#41C1BA;fill:color(display-p3 0.2549 0.7569 0.7294);fill-opacity:1;"/>
<path opacity="0.1" d="M199.988 74.2158H190.265V88.1142H199.988V74.2158Z" fill="#41C1BA" style="fill:#41C1BA;fill:color(display-p3 0.2549 0.7569 0.7294);fill-opacity:1;"/>
<path opacity="0.1" d="M199.988 103.024H190.265V106.224H199.988V103.024Z" fill="#41C1BA" style="fill:#41C1BA;fill:color(display-p3 0.2549 0.7569 0.7294);fill-opacity:1;"/>
<path opacity="0.1" d="M199.988 107.583H190.265V116.919H199.988V107.583Z" fill="#41C1BA" style="fill:#41C1BA;fill:color(display-p3 0.2549 0.7569 0.7294);fill-opacity:1;"/>
<path opacity="0.1" d="M199.988 131.833H190.265V145.731H199.988V131.833Z" fill="#41C1BA" style="fill:#41C1BA;fill:color(display-p3 0.2549 0.7569 0.7294);fill-opacity:1;"/>
<path opacity="0.1" d="M199.988 160.641H190.265V174.539H199.988V160.641Z" fill="#41C1BA" style="fill:#41C1BA;fill:color(display-p3 0.2549 0.7569 0.7294);fill-opacity:1;"/>
<path opacity="0.1" d="M199.985 200.116C200.083 200.116 200.178 200.116 200.274 200.135H199.985V203.363H190.265V189.449H199.985V200.116Z" fill="#41C1BA" style="fill:#41C1BA;fill:color(display-p3 0.2549 0.7569 0.7294);fill-opacity:1;"/>
<path opacity="0.1" d="M199.985 218.251V228.987C196.736 228.684 193.495 228.272 190.265 227.75V218.251H199.985Z" fill="#41C1BA" style="fill:#41C1BA;fill:color(display-p3 0.2549 0.7569 0.7294);fill-opacity:1;"/>
<path opacity="0.1" d="M151.577 150.569H109.906V151.59H151.577V150.569Z" fill="#41C1BA" style="fill:#41C1BA;fill:color(display-p3 0.2549 0.7569 0.7294);fill-opacity:1;"/>
<path opacity="0.1" d="M151.577 152.949H109.906V156.862H151.577V152.949Z" fill="#41C1BA" style="fill:#41C1BA;fill:color(display-p3 0.2549 0.7569 0.7294);fill-opacity:1;"/>
<path opacity="0.1" d="M151.577 169.688H109.906V175.98H151.577V169.688Z" fill="#41C1BA" style="fill:#41C1BA;fill:color(display-p3 0.2549 0.7569 0.7294);fill-opacity:1;"/>
<path opacity="0.1" d="M151.574 188.807V195.099H118.98C117.565 193.907 116.167 192.683 114.786 191.428C113.832 190.559 112.886 189.669 111.922 188.807H151.574Z" fill="#41C1BA" style="fill:#41C1BA;fill:color(display-p3 0.2549 0.7569 0.7294);fill-opacity:1;"/>
<path opacity="0.1" d="M151.574 207.922V214.208H148.133C144.266 212.285 140.475 210.186 136.76 207.913L151.574 207.922Z" fill="#41C1BA" style="fill:#41C1BA;fill:color(display-p3 0.2549 0.7569 0.7294);fill-opacity:1;"/>
<path opacity="0.1" d="M232.114 111.849H223.911V120.896H232.114V111.849Z" fill="#41C1BA" style="fill:#41C1BA;fill:color(display-p3 0.2549 0.7569 0.7294);fill-opacity:1;"/>
<path opacity="0.1" d="M54.4999 69.6956H46.2968V78.7427H54.4999V69.6956Z" fill="#41C1BA" style="fill:#41C1BA;fill:color(display-p3 0.2549 0.7569 0.7294);fill-opacity:1;"/>
<path opacity="0.1" d="M54.4999 90.71H46.2968V99.7571H54.4999V90.71Z" fill="#41C1BA" style="fill:#41C1BA;fill:color(display-p3 0.2549 0.7569 0.7294);fill-opacity:1;"/>
<path opacity="0.1" d="M54.4999 111.725H46.2968V120.772H54.4999V111.725Z" fill="#41C1BA" style="fill:#41C1BA;fill:color(display-p3 0.2549 0.7569 0.7294);fill-opacity:1;"/>
<path opacity="0.1" d="M54.4999 132.736H46.2968V141.783H54.4999V132.736Z" fill="#41C1BA" style="fill:#41C1BA;fill:color(display-p3 0.2549 0.7569 0.7294);fill-opacity:1;"/>
<path opacity="0.1" d="M54.4999 153.75H46.2968V162.798H54.4999V153.75Z" fill="#41C1BA" style="fill:#41C1BA;fill:color(display-p3 0.2549 0.7569 0.7294);fill-opacity:1;"/>
<path opacity="0.1" d="M54.4999 174.765H46.2968V183.812H54.4999V174.765Z" fill="#41C1BA" style="fill:#41C1BA;fill:color(display-p3 0.2549 0.7569 0.7294);fill-opacity:1;"/>
<path opacity="0.1" d="M263.43 111.849H255.227V120.896H263.43V111.849Z" fill="#41C1BA" style="fill:#41C1BA;fill:color(display-p3 0.2549 0.7569 0.7294);fill-opacity:1;"/>
<path opacity="0.1" d="M232.114 134.164H223.911V143.211H232.114V134.164Z" fill="#41C1BA" style="fill:#41C1BA;fill:color(display-p3 0.2549 0.7569 0.7294);fill-opacity:1;"/>
<path opacity="0.1" d="M263.43 134.164H255.227V143.211H263.43V134.164Z" fill="#41C1BA" style="fill:#41C1BA;fill:color(display-p3 0.2549 0.7569 0.7294);fill-opacity:1;"/>
<path opacity="0.1" d="M232.114 156.477H223.911V165.524H232.114V156.477Z" fill="#41C1BA" style="fill:#41C1BA;fill:color(display-p3 0.2549 0.7569 0.7294);fill-opacity:1;"/>
<path opacity="0.1" d="M263.43 156.477H255.227V165.524H263.43V156.477Z" fill="#41C1BA" style="fill:#41C1BA;fill:color(display-p3 0.2549 0.7569 0.7294);fill-opacity:1;"/>
<path opacity="0.1" d="M232.114 178.792H223.911V187.84H232.114V178.792Z" fill="#41C1BA" style="fill:#41C1BA;fill:color(display-p3 0.2549 0.7569 0.7294);fill-opacity:1;"/>
<path opacity="0.1" d="M263.43 178.792H255.227V187.84H263.43V178.792Z" fill="#41C1BA" style="fill:#41C1BA;fill:color(display-p3 0.2549 0.7569 0.7294);fill-opacity:1;"/>
<path opacity="0.1" d="M232.114 201.108H223.911V210.155H232.114V201.108Z" fill="#41C1BA" style="fill:#41C1BA;fill:color(display-p3 0.2549 0.7569 0.7294);fill-opacity:1;"/>
<path opacity="0.1" d="M263.43 201.108H255.227V210.155H263.43V201.108Z" fill="#41C1BA" style="fill:#41C1BA;fill:color(display-p3 0.2549 0.7569 0.7294);fill-opacity:1;"/>
<path opacity="0.1" d="M223.911 229.255V223.42H232.111V228.424L223.911 229.255Z" fill="#41C1BA" style="fill:#41C1BA;fill:color(display-p3 0.2549 0.7569 0.7294);fill-opacity:1;"/>
<path opacity="0.1" d="M5.32434 94.9153V100.091H33.398V94.9153H5.32434ZM8.12219 99.7665H5.83199V95.2334H8.13949L8.12219 99.7665ZM10.9172 99.7665H8.60965V95.2334H10.9172V99.7665ZM13.7063 99.7665H11.3988V95.2334H13.7063V99.7665ZM16.5013 99.7665H14.1967V95.2334H16.5042L16.5013 99.7665ZM19.2934 99.7665H16.9859V95.2334H19.2934V99.7665ZM22.0883 99.7665H19.7808V95.2334H22.0883V99.7665ZM24.8833 99.7665H22.5758V95.2334H24.8833V99.7665ZM27.6754 99.7665H25.3679V95.2334H27.6754V99.7665ZM30.4675 99.7665H28.16V95.2334H30.4675V99.7665ZM33.2595 99.7665H30.952V95.2334H33.2595V99.7665Z" fill="#41C1BA" style="fill:#41C1BA;fill:color(display-p3 0.2549 0.7569 0.7294);fill-opacity:1;"/>
<path opacity="0.1" d="M5.32434 109.975V115.151H33.398V109.975H5.32434ZM8.12219 114.823H5.83199V110.303H8.13949L8.12219 114.823ZM10.9172 114.823H8.60965V110.303H10.9172V114.823ZM13.7063 114.823H11.3988V110.303H13.7063V114.823ZM16.5013 114.823H14.1967V110.303H16.5042L16.5013 114.823ZM19.2934 114.823H16.9859V110.303H19.2934V114.823ZM22.0883 114.823H19.7808V110.303H22.0883V114.823ZM24.8833 114.823H22.5758V110.303H24.8833V114.823ZM27.6754 114.823H25.3679V110.303H27.6754V114.823ZM30.4675 114.823H28.16V110.303H30.4675V114.823ZM33.2595 114.823H30.952V110.303H33.2595V114.823Z" fill="#41C1BA" style="fill:#41C1BA;fill:color(display-p3 0.2549 0.7569 0.7294);fill-opacity:1;"/>
<path opacity="0.1" d="M5.32422 125.041V130.226H33.3979V125.041H5.32422ZM8.12207 129.889H5.83187V125.365H8.13937L8.12207 129.889ZM10.917 129.889H8.60953V125.365H10.917V129.889ZM13.7062 129.889H11.3987V125.365H13.7062V129.889ZM16.5012 129.889H14.1966V125.365H16.5041L16.5012 129.889ZM19.2933 129.889H16.9858V125.365H19.2933V129.889ZM22.0882 129.889H19.7807V125.365H22.0882V129.889ZM24.8832 129.889H22.5757V125.365H24.8832V129.889ZM27.6753 129.889H25.3678V125.365H27.6753V129.889ZM30.4673 129.889H28.1598V125.365H30.4673V129.889ZM33.2594 129.889H30.9519V125.365H33.2594V129.889Z" fill="#41C1BA" style="fill:#41C1BA;fill:color(display-p3 0.2549 0.7569 0.7294);fill-opacity:1;"/>
<path opacity="0.1" d="M5.32422 140.107V145.276H33.3979V140.107H5.32422ZM8.12207 144.955H5.83187V140.428H8.13937L8.12207 144.955ZM10.917 144.955H8.60953V140.428H10.917V144.955ZM13.7062 144.955H11.3987V140.428H13.7062V144.955ZM16.5012 144.955H14.1966V140.428H16.5041L16.5012 144.955ZM19.2933 144.955H16.9858V140.428H19.2933V144.955ZM22.0882 144.955H19.7807V140.428H22.0882V144.955ZM24.8832 144.955H22.5757V140.428H24.8832V144.955ZM27.6753 144.955H25.3678V140.428H27.6753V144.955ZM30.4673 144.955H28.1598V140.428H30.4673V144.955ZM33.2594 144.955H30.9519V140.428H33.2594V144.955Z" fill="#41C1BA" style="fill:#41C1BA;fill:color(display-p3 0.2549 0.7569 0.7294);fill-opacity:1;"/>
<path opacity="0.1" d="M5.44531 155.169C5.5578 155.656 5.68471 156.143 5.8174 156.623V155.494H8.1249V160.017H6.89038C6.92788 160.122 6.96538 160.237 7.00287 160.335H33.3978V155.169H5.44531ZM10.9256 160.017H8.61813V155.494H10.9256V160.017ZM13.7148 160.017H11.4073V155.494H13.7148V160.017ZM16.5098 160.017H14.1965V155.494H16.504L16.5098 160.017ZM19.3019 160.017H16.9944V155.494H19.3019V160.017ZM22.0968 160.017H19.7893V155.494H22.0968V160.017ZM24.8918 160.017H22.5843V155.494H24.8918V160.017ZM27.6839 160.017H25.3764V155.494H27.6839V160.017ZM30.4759 160.017H28.1684V155.494H30.4759V160.017ZM33.268 160.017H30.9605V155.494H33.268V160.017Z" fill="#41C1BA" style="fill:#41C1BA;fill:color(display-p3 0.2549 0.7569 0.7294);fill-opacity:1;"/>
<path opacity="0.1" d="M11.964 170.235C12.0361 170.337 12.1053 170.451 12.1803 170.553H13.7062V172.726C13.8706 172.942 14.0321 173.159 14.1994 173.362V170.54H16.5069V175.08H15.5723C15.6646 175.185 15.7541 175.296 15.8608 175.398H33.4065V170.235H11.964ZM19.2932 175.08H16.9857V170.56H19.2932V175.08ZM22.0882 175.08H19.7807V170.56H22.0882V175.08ZM24.8831 175.08H22.5756V170.56H24.8831V175.08ZM27.6752 175.08H25.3677V170.56H27.6752V175.08ZM30.4673 175.08H28.1598V170.56H30.4673V175.08ZM33.2594 175.08H30.9518V170.56H33.2594V175.08Z" fill="#41C1BA" style="fill:#41C1BA;fill:color(display-p3 0.2549 0.7569 0.7294);fill-opacity:1;"/>
<path opacity="0.1" d="M27.3638 185.298C27.6262 185.463 27.8945 185.616 28.1656 185.781V185.622H30.4731V187.054L30.9635 187.305V185.622H33.271V188.374C33.3152 188.398 33.3616 188.417 33.4094 188.431V185.298H27.3638Z" fill="#41C1BA" style="fill:#41C1BA;fill:color(display-p3 0.2549 0.7569 0.7294);fill-opacity:1;"/>
<path opacity="0.1" d="M181.447 152.341C181.502 152.545 181.548 152.748 181.6 152.949C181.554 152.748 181.505 152.545 181.447 152.341ZM43.5365 58.5806V59.9389H56.421V58.5806H43.5365ZM181.447 152.341C181.502 152.545 181.548 152.748 181.6 152.949C181.554 152.748 181.505 152.545 181.447 152.341ZM181.447 152.341C181.502 152.545 181.548 152.748 181.6 152.949C181.554 152.748 181.505 152.545 181.447 152.341Z" fill="#41C1BA" style="fill:#41C1BA;fill:color(display-p3 0.2549 0.7569 0.7294);fill-opacity:1;"/>
<path d="M133.275 120.778C133.275 120.778 132.139 120.603 132.139 118.777C132.139 116.951 131.325 113.541 131.325 113.541C131.325 113.525 130.622 107.602 129.65 106.66C128.678 105.719 127.429 100.19 127.429 100.19C127.429 100.19 127.215 97.19 126.78 96.5442C126.344 95.8985 125.756 94.3174 124.887 92.062C124.019 89.8066 120.399 88.2447 120.399 88.2447C120.399 88.2447 113.855 84.0583 112 82.6936C111.832 82.5814 111.674 82.4503 111.53 82.3023C111.207 81.8347 109.799 81.8251 109.799 81.8251C109.652 80.8008 109.511 79.6238 109.465 78.5581C109.465 78.4436 109.465 78.3291 109.45 78.2145C111.518 76.8663 113.076 74.7406 113.837 72.2277C113.872 72.1068 113.901 71.9795 113.933 71.8586C114.057 71.8136 114.171 71.7406 114.267 71.6442C114.364 71.5478 114.442 71.4301 114.495 71.2988C114.662 70.8884 114.665 70.408 114.873 70.0263C115.115 69.5746 115.577 69.3328 115.94 68.9924C116.857 68.1335 117.094 66.6861 117.051 65.3691C117.022 64.3034 116.866 63.2282 116.927 62.1689L116.944 61.9017C116.961 61.7426 116.981 61.5836 117.007 61.4309C117.149 60.642 117.457 59.8976 117.63 59.115C117.803 58.3325 117.821 57.4513 117.417 56.7769C116.826 55.7876 115.594 55.5903 114.512 55.4885C113.287 55.374 112.19 55.5235 111.406 54.4006C111.039 53.8137 110.626 53.2634 110.171 52.7559C110.01 52.5905 108.441 51.5344 108.441 51.4644C106.909 50.6821 105.173 50.5353 103.552 51.0509C102.738 51.3117 101.971 51.738 101.146 51.9511C99.3665 52.4156 97.3186 51.9129 95.8072 53.0359C94.9649 53.6721 94.4602 54.6837 93.9871 55.6699C93.6026 56.4821 93.2122 57.2933 92.8161 58.1034C92.1786 59.4363 91.5296 60.7915 91.2614 62.2675C91.205 62.5887 91.1703 62.9141 91.1576 63.2409V63.2569C91.1576 63.3746 91.1576 63.4923 91.1576 63.61V63.7595C91.1576 63.8708 91.1576 63.979 91.1749 64.0776C91.1922 64.1762 91.1893 64.208 91.1979 64.2748C91.2066 64.3416 91.221 64.4911 91.2383 64.5929C91.2556 64.6947 91.2902 64.8729 91.3249 65.0128C91.3393 65.0733 91.3595 65.1305 91.3768 65.1878C91.4056 65.296 91.4402 65.4009 91.4777 65.5059C91.4979 65.56 91.5181 65.6173 91.5412 65.6713C91.5844 65.7827 91.6364 65.8908 91.6883 65.9895C91.7114 66.034 91.7287 66.0753 91.7517 66.1167C91.8322 66.2646 91.9208 66.407 92.0171 66.543C92.6344 67.3923 93.5429 67.9331 94.215 68.7284C94.215 68.7602 94.215 68.792 94.215 68.8207C94.215 68.9097 94.215 68.9956 94.215 69.0847C94.2507 70.8583 94.6787 72.5955 95.4619 74.1451C96.2451 75.6947 97.3597 77.0098 98.7089 77.976C98.7089 78.0968 98.7233 78.2209 98.7291 78.3418C98.7853 79.2861 98.7747 80.2337 98.6973 81.1762C98.5799 81.0236 98.4328 80.9021 98.2671 80.8206C98.1013 80.7391 97.9211 80.6997 97.7397 80.7054C97.6158 80.6987 97.4916 80.7105 97.3705 80.7404L97.3445 80.7181V80.7467C96.71 80.9185 95.9283 81.647 95.1813 83.7179C95.1813 83.7179 92.9084 86.5428 91.1778 86.425C89.4471 86.3073 85.0658 89.3644 85.0658 89.3644C85.0658 89.3644 80.7911 92.4247 79.8739 95.5422C79.3612 97.31 78.7465 99.0398 78.0336 100.721L72.7495 112.73L71.7745 122.257C71.7745 122.257 72.3139 126.495 72.2072 127.14C72.1005 127.786 74.4253 133.611 74.4253 133.611C74.4253 133.611 82.1064 148.495 85.2446 149.259L85.4696 149.084C85.6038 149.161 85.7462 149.22 85.8936 149.259L86.5397 148.756C86.5785 149.316 86.562 149.88 86.4906 150.436C86.058 151.905 86.6522 161.497 87.4079 163.377C88.1636 165.257 87.8953 189.907 87.8953 189.907L87.7886 192.083C87.7886 192.083 87.7886 192.153 87.8146 192.274L87.7886 192.789L87.8665 192.834C87.9474 193.524 87.921 194.224 87.7886 194.905C87.5175 195.859 87.4079 198.557 87.4079 198.557C87.4079 198.557 85.2475 213.788 86.2714 216.848C87.2954 219.909 88.1665 223.261 88.1665 223.261C88.1665 223.261 89.2481 227.079 88.2184 227.731C87.1887 228.383 84.261 229.477 84.8638 231.068C85.4119 232.538 87.4915 236.476 87.8001 237.052L87.7742 237.354L87.3502 242.421C87.4188 243.091 87.5834 243.743 87.8376 244.356C88.302 245.459 89.2048 246.605 90.921 246.481C91.2095 246.458 91.5441 246.42 91.8671 246.372C95.0082 245.908 98.8762 244.362 98.8762 244.362C98.6753 244.221 98.4912 244.053 98.3281 243.863C98.1737 243.698 98.0514 243.5 97.9686 243.281C97.8858 243.062 97.8442 242.827 97.8464 242.59C97.8926 241.668 96.3264 237.271 95.937 236.19C95.8764 236.034 95.8447 235.945 95.8447 235.945C95.8447 235.945 99.4155 231.828 98.8214 228.18C98.8214 228.18 94.8698 225.635 96.1706 224.238C97.4715 222.842 99.7963 218.83 99.7963 218.83C99.7963 218.83 99.903 203.831 99.7963 201.592C99.685 200.037 99.7518 198.474 99.9953 196.938C100.039 196.705 100.09 196.48 100.145 196.257C101.944 196.553 103.76 196.705 105.579 196.712C106.243 196.712 106.918 196.712 107.599 196.667C107.599 196.879 107.607 197.108 107.624 197.354C107.774 201.07 108.054 207.585 108.282 210.006C108.605 213.476 110.391 222.829 110.391 222.829C110.391 222.829 106.984 225.24 110.985 231.183C110.985 231.183 110.985 233.336 110.719 233.648C110.436 234.667 110.208 235.704 110.036 236.753C109.869 237.872 109.799 239.005 110.07 239.593C110.719 240.999 114.613 240.885 114.613 240.885L114.709 240.866C115.444 240.782 116.187 240.86 116.894 241.095C117.602 241.331 118.26 241.719 118.83 242.237C120.31 243.548 125.926 242.972 128.966 242.555C130.157 242.39 130.953 242.237 130.953 242.237C130.992 242.088 131.006 241.933 130.994 241.779C130.962 240.955 130.376 239.148 126.408 237.535C126.408 237.535 122.675 234.768 122.727 232.356H122.649H122.217C122.531 232.337 122.733 232.356 122.733 232.356C122.733 232.356 121.27 226.471 121.868 225.994C122.465 225.517 120.676 218.996 120.676 218.996C120.676 218.996 119.652 208.052 119.598 207.286C119.6 206.628 119.69 205.974 119.866 205.345L119.598 199.346C119.598 199.346 119.546 197.351 119.598 196.702C119.589 196.139 119.547 195.577 119.473 195.019C119.448 194.797 119.422 194.564 119.393 194.335C120.792 193.944 121.7 193.581 121.7 193.581L121.539 172.697C122.727 170.152 122.946 164.57 122.941 160.609C122.941 158.064 122.837 156.181 122.837 156.181L124.461 153.257C124.461 153.257 124.836 149.758 124.241 148.992C123.979 148.645 124.097 148.285 124.313 147.99C124.426 147.891 124.544 147.802 124.668 147.722C124.668 147.722 124.651 147.694 124.631 147.652C124.744 147.548 124.865 147.453 124.991 147.369C124.991 147.369 124.414 146.383 124.931 145.966C125.415 146.329 125.848 146.603 126.177 146.825C126.154 147.057 126.131 147.191 126.131 147.191L126.269 146.873C126.586 147.07 126.78 147.191 126.78 147.191C126.78 147.191 129.324 141.602 129.269 140.778C129.214 139.954 130.999 136.483 130.999 136.483C130.999 136.483 131.216 134.661 132.191 133.897C133.166 133.134 132.946 127.602 132.946 127.602C132.946 127.602 133.218 124.72 133.867 123.543C134.516 122.365 133.275 120.778 133.275 120.778ZM84.5985 118.325L84.6475 119.658C84.3591 119.146 84.1514 118.777 84.1514 118.777L84.5985 118.325Z" fill="url(#paint0_linear_273_168)" style=""/>
<path d="M126.918 144.777L126.295 147.703C126.295 147.703 121.305 144.894 120.405 141.325C119.505 137.756 121.911 136.401 121.911 136.401L126.56 138.573L126.918 144.777Z" fill="white" style="fill:white;fill-opacity:1;"/>
<path opacity="0.1" d="M126.918 144.777L126.295 147.703C126.295 147.703 121.305 144.894 120.405 141.325C119.505 137.756 121.911 136.401 121.911 136.401L126.56 138.573L126.918 144.777Z" fill="black" style="fill:black;fill-opacity:1;"/>
<path d="M98.9136 244.381C98.9136 244.381 94.2986 246.251 91.1258 246.487C89.4413 246.611 88.5558 245.472 88.1001 244.375C87.8511 243.764 87.6905 243.115 87.6241 242.45L88.0366 237.408L88.2558 234.723L94.9966 232.792L95.9513 236.011L96.0408 236.256C96.4244 237.331 97.9618 241.706 97.9156 242.619C97.9137 242.852 97.9546 243.084 98.0359 243.3C98.1172 243.516 98.2372 243.712 98.3886 243.875C98.5434 244.068 98.7198 244.238 98.9136 244.381Z" fill="white" style="fill:white;fill-opacity:1;"/>
<path d="M130.437 241.817C130.449 241.97 130.435 242.124 130.397 242.272C130.397 242.272 120.526 244.088 118.507 242.272C117.938 241.741 117.274 241.348 116.559 241.116C115.844 240.885 115.093 240.822 114.354 240.929C114.354 240.929 110.535 241.044 109.897 239.657C109.632 239.075 109.701 237.945 109.866 236.832C110.033 235.789 110.257 234.757 110.535 233.743L110.688 233.61L111.596 232.805L122.234 232.458H122.315C122.263 234.857 125.926 237.608 125.926 237.608C129.817 239.199 130.391 240.996 130.437 241.817Z" fill="white" style="fill:white;fill-opacity:1;"/>
<path opacity="0.1" d="M130.437 241.817C130.447 241.97 130.432 242.124 130.394 242.272C130.394 242.272 120.526 244.088 118.507 242.272C117.938 241.742 117.275 241.348 116.56 241.117C115.846 240.886 115.095 240.822 114.357 240.929C114.357 240.929 110.535 241.044 109.9 239.657C109.635 239.072 109.701 237.945 109.866 236.832C111.337 236.994 113.659 237.398 114.57 238.362C115.949 239.829 118.285 241.292 119.719 241.407C120.841 241.486 127.553 241.721 130.437 241.817Z" fill="black" style="fill:black;fill-opacity:1;"/>
<path opacity="0.1" d="M98.9137 244.381C98.9137 244.381 94.2987 246.252 91.1258 246.487C89.4414 246.611 88.5559 245.472 88.103 244.371C89.277 244.807 90.9066 245.265 91.7633 244.845C92.7786 244.349 96.3783 244.028 98.3974 243.891C98.551 244.077 98.7244 244.241 98.9137 244.381Z" fill="black" style="fill:black;fill-opacity:1;"/>
<path d="M105.761 93.643C101.954 92.011 97.0561 86.619 98.2791 84.0996C98.5507 83.4638 98.7121 82.7776 98.755 82.0764C98.8337 81.1244 98.8453 80.1672 98.7896 79.2133C98.7039 77.6511 98.5334 76.0959 98.2791 74.5562C98.2791 74.5562 110.166 74.852 109.473 76.7829C109.271 77.3492 109.24 78.3322 109.295 79.4328C109.349 80.5335 109.494 81.7773 109.644 82.8303C109.851 84.2745 110.059 85.3752 110.059 85.3752C110.059 85.3752 109.332 86.4981 108.905 86.5586C108.478 86.619 111.224 95.9684 105.761 93.643Z" fill="#CF6F80" style="fill:#CF6F80;fill:color(display-p3 0.8118 0.4353 0.5020);fill-opacity:1;"/>
<path opacity="0.1" d="M96.0321 236.256L95.9427 236.364C92.3891 231.625 88.0914 237.532 88.0914 237.532L88.028 237.408L88.2472 234.723L94.988 232.792L95.9427 236.011L96.0321 236.256Z" fill="black" style="fill:black;fill-opacity:1;"/>
<path opacity="0.1" d="M122.317 232.792C122.317 232.792 119.722 232.732 118.337 234.08C116.953 235.429 110.261 234.373 110.549 234.08C110.635 233.935 110.686 233.769 110.699 233.597L111.608 232.792L122.245 232.445C122.286 232.658 122.317 232.792 122.317 232.792Z" fill="black" style="fill:black;fill-opacity:1;"/>
<path d="M100.454 195.57C100.261 196.097 100.114 196.644 100.015 197.202C99.775 198.731 99.7081 200.286 99.8165 201.833C99.9232 204.06 99.8165 218.983 99.8165 218.983C99.8165 218.983 97.5349 222.963 96.2629 224.365C94.9909 225.768 98.8589 228.288 98.8589 228.288C99.4357 231.914 95.9399 236.012 95.9399 236.012C92.3863 231.272 88.0886 237.182 88.0886 237.182C88.0886 237.182 85.7522 232.729 85.1696 231.138C84.5869 229.548 87.4511 228.447 88.4578 227.801C89.4644 227.155 88.4088 223.348 88.4088 223.348C88.4088 223.348 87.5579 220.01 86.5483 216.966C85.5388 213.922 87.6617 198.767 87.6617 198.767C87.6617 198.767 87.7713 196.076 88.0338 195.137C88.1662 194.46 88.1926 193.763 88.1117 193.076C88.0944 192.844 88.0742 192.65 88.0597 192.519C88.0453 192.389 88.0338 192.328 88.0338 192.328L88.0742 192.252L89.5164 189.287C89.5164 189.287 101.146 193.703 100.454 195.57Z" fill="#41C1BA" style="fill:#41C1BA;fill:color(display-p3 0.2549 0.7569 0.7294);fill-opacity:1;"/>
<path d="M122.317 232.442C122.317 232.442 119.721 232.382 118.337 233.715C116.952 235.047 110.261 234.007 110.549 233.715C110.838 233.422 110.815 231.255 110.815 231.255C106.889 225.345 110.238 222.946 110.238 222.946C110.238 222.946 108.484 213.642 108.167 210.19C107.945 207.779 107.671 201.299 107.523 197.599C107.46 196.009 107.422 194.914 107.422 194.914L110.63 194.202L111.042 194.109L118.778 192.398C118.778 192.398 118.992 193.989 119.136 195.29C119.208 195.845 119.248 196.405 119.257 196.966C119.205 197.602 119.257 199.594 119.257 199.594L119.52 205.565C119.348 206.191 119.26 206.841 119.257 207.496C119.309 208.256 120.316 219.142 120.316 219.142C120.316 219.142 122.066 225.638 121.469 226.105C120.872 226.573 122.317 232.442 122.317 232.442Z" fill="#41C1BA" style="fill:#41C1BA;fill:color(display-p3 0.2549 0.7569 0.7294);fill-opacity:1;"/>
<path opacity="0.1" d="M109.473 76.7829C109.271 77.3492 109.24 78.3322 109.294 79.4328C107.702 80.4902 105.872 81.0309 104.014 80.9926C102.156 80.9543 100.345 80.3387 98.7896 79.2165C98.704 77.6532 98.5335 76.097 98.2791 74.5562C98.2791 74.5562 110.166 74.8456 109.473 76.7829Z" fill="black" style="fill:black;fill-opacity:1;"/>
<path d="M114.068 69.7526C114.07 70.8989 113.907 72.0383 113.584 73.1278C112.861 75.5689 111.379 77.6496 109.4 79.0023C107.421 80.3549 105.072 80.8924 102.768 80.5197C100.464 80.147 98.3544 78.8881 96.8108 76.9656C95.2673 75.043 94.3898 72.5806 94.3332 70.0134C94.3332 69.9244 94.3332 69.8417 94.3332 69.7526C94.3108 68.3076 94.5495 66.8721 95.0355 65.53C95.5214 64.1878 96.2447 62.9657 97.1633 61.9351C98.082 60.9045 99.1775 60.0859 100.386 59.5272C101.594 58.9684 102.892 58.6807 104.202 58.6807C105.513 58.6807 106.81 58.9684 108.018 59.5272C109.227 60.0859 110.322 60.9045 111.241 61.9351C112.16 62.9657 112.883 64.1878 113.369 65.53C113.855 66.8721 114.093 68.3076 114.071 69.7526H114.068Z" fill="#CF6F80" style="fill:#CF6F80;fill:color(display-p3 0.8118 0.4353 0.5020);fill-opacity:1;"/>
<path opacity="0.1" d="M105.761 93.643C101.954 92.0111 97.0561 86.6191 98.2791 84.0996C98.5507 83.4638 98.7121 82.7776 98.755 82.0764L103.967 86.8004L107.192 89.7175L109.644 82.8335C109.851 84.2778 110.059 85.3784 110.059 85.3784C110.059 85.3784 109.332 86.5014 108.905 86.5618C108.478 86.6222 111.224 95.9684 105.761 93.643Z" fill="black" style="fill:black;fill-opacity:1;"/>
<path d="M119.24 114.521L114.887 195.162L109.211 195.573L94.5121 148.813L96.9234 93.2994L97.4311 81.5706L103.967 87.4906L107.195 90.4077L109.719 83.3234L114.411 87.8342L119.24 114.521Z" fill="#41C1BA" style="fill:#41C1BA;fill:color(display-p3 0.2549 0.7569 0.7294);fill-opacity:1;"/>
<path opacity="0.1" d="M100.454 195.57C100.261 196.097 100.114 196.643 100.015 197.202C95.885 196.498 91.8734 195.116 88.1145 193.101L88.0366 193.057L88.0626 192.545L88.077 192.277L89.5192 189.312C89.5192 189.312 101.146 193.702 100.454 195.57Z" fill="black" style="fill:black;fill-opacity:1;"/>
<path opacity="0.1" d="M110.696 197.214C109.64 197.412 108.575 197.546 107.506 197.615C107.443 196.025 107.405 194.93 107.405 194.93L110.613 194.218L110.696 197.214Z" fill="black" style="fill:black;fill-opacity:1;"/>
<path opacity="0.1" d="M119.119 195.306C117.068 195.894 113.901 196.556 111.066 196.142L111.025 194.126L118.761 192.414C118.761 192.414 118.974 193.989 119.119 195.306Z" fill="black" style="fill:black;fill-opacity:1;"/>
<path opacity="0.1" d="M111.014 196.511C99.1876 198.738 88.3568 192.354 88.3568 192.354L88.4606 190.19C88.4606 190.19 88.7289 165.667 87.9847 163.787C87.2406 161.907 86.6608 152.373 87.0819 150.91C87.503 149.446 85.5445 127.503 85.5445 127.503L85.2273 118.596L73.6147 113.407L78.8066 101.472C79.5079 99.7984 80.111 98.077 80.6123 96.3184C81.5151 93.2199 85.7061 90.1756 85.7061 90.1756C85.7061 90.1756 90.0038 87.1344 91.7027 87.2489C93.4016 87.3635 95.6283 84.5577 95.6283 84.5577C97.2724 79.9355 98.7608 82.0287 98.7608 82.0287C98.7608 82.2482 98.7608 82.0287 98.68 82.7127C98.1031 87.7866 108.008 103.819 108.149 104.103L109.093 129.443L110.047 161.512L111.014 196.511Z" fill="black" style="fill:black;fill-opacity:1;"/>
<path d="M110.696 196.511C98.8704 198.738 88.0366 192.354 88.0366 192.354L88.1434 190.19C88.1434 190.19 88.4116 165.667 87.6646 163.787C86.9175 161.907 86.3406 152.373 86.7646 150.91C87.1886 149.447 85.2273 127.503 85.2273 127.503L84.9071 118.596L73.2888 113.388L78.4807 101.453C79.1804 99.7786 79.7835 98.0574 80.2863 96.2993C81.1862 93.2009 85.3801 90.1565 85.3801 90.1565C85.3801 90.1565 89.6779 87.1154 91.3739 87.2299C93.0699 87.3444 95.2995 84.5387 95.2995 84.5387C96.9465 79.9165 98.7608 82.0097 98.7608 82.0097C98.7608 82.2292 98.5877 82.3278 98.68 82.6936C99.9491 87.6148 107.691 103.8 107.832 104.084L108.787 129.424L109.742 161.493L110.696 196.511Z" fill="white" style="fill:white;fill-opacity:1;"/>
<path opacity="0.1" d="M107.509 104.806C106.237 104.22 99.4991 95.7362 99.4991 95.7362V93.8053C99.254 93.1691 97.7973 93.5572 96.6147 94.0025L97.1224 82.2737L97.6993 82.8018C98.9626 87.7198 107.362 104.523 107.509 104.806Z" fill="black" style="fill:black;fill-opacity:1;"/>
<path d="M107.829 104.103C106.554 103.517 99.8165 95.0331 99.8165 95.0331V93.1022C99.5713 92.4659 98.1147 92.854 96.9321 93.2994L97.4427 81.5706L98.0195 82.0986C99.2858 87.0167 107.688 103.823 107.829 104.103Z" fill="white" style="fill:white;fill-opacity:1;"/>
<path opacity="0.1" d="M88.3567 146.415C88.5154 146.415 96.5801 145.479 96.5801 145.479C96.5801 145.479 101.463 156.069 101.143 158.646C100.823 161.223 100.243 163.504 98.279 163.1C96.3148 162.696 87.7078 163.418 87.7078 163.418L88.3567 146.415Z" fill="black" style="fill:black;fill-opacity:1;"/>
<path d="M88.0367 145.712C88.1953 145.712 96.26 144.777 96.26 144.777C96.26 144.777 101.14 155.37 100.823 157.943C100.506 160.517 99.9203 162.801 97.9589 162.397C95.9976 161.993 87.3877 162.715 87.3877 162.715L88.0367 145.712Z" fill="white" style="fill:white;fill-opacity:1;"/>
<path d="M94.1141 140.74C94.1141 140.74 101.515 145.127 101.674 146.466C101.833 147.805 97.907 145.88 97.059 145.648C96.5009 145.5 95.9327 145.402 95.3601 145.356L89.7039 145.524L94.1141 140.74Z" fill="#CF6F80" style="fill:#CF6F80;fill:color(display-p3 0.8118 0.4353 0.5020);fill-opacity:1;"/>
<path opacity="0.1" d="M105.444 105.353C105.874 105.353 106.223 104.968 106.223 104.494C106.223 104.02 105.874 103.635 105.444 103.635C105.014 103.635 104.665 104.02 104.665 104.494C104.665 104.968 105.014 105.353 105.444 105.353Z" fill="black" style="fill:black;fill-opacity:1;"/>
<path d="M105.444 105.003C105.874 105.003 106.223 104.618 106.223 104.144C106.223 103.67 105.874 103.285 105.444 103.285C105.014 103.285 104.665 103.67 104.665 104.144C104.665 104.618 105.014 105.003 105.444 105.003Z" fill="#3F3D56" style="fill:#3F3D56;fill:color(display-p3 0.2471 0.2392 0.3373);fill-opacity:1;"/>
<path opacity="0.1" d="M106.877 142.534C107.308 142.534 107.656 142.149 107.656 141.675C107.656 141.2 107.308 140.816 106.877 140.816C106.447 140.816 106.099 141.2 106.099 141.675C106.099 142.149 106.447 142.534 106.877 142.534Z" fill="black" style="fill:black;fill-opacity:1;"/>
<path d="M106.877 142.181C107.308 142.181 107.656 141.796 107.656 141.322C107.656 140.847 107.308 140.463 106.877 140.463C106.447 140.463 106.099 140.847 106.099 141.322C106.099 141.796 106.447 142.181 106.877 142.181Z" fill="#3F3D56" style="fill:#3F3D56;fill:color(display-p3 0.2471 0.2392 0.3373);fill-opacity:1;"/>
<path opacity="0.1" d="M106.22 123.943C106.65 123.943 106.998 123.559 106.998 123.084C106.998 122.61 106.65 122.226 106.22 122.226C105.79 122.226 105.441 122.61 105.441 123.084C105.441 123.559 105.79 123.943 106.22 123.943Z" fill="black" style="fill:black;fill-opacity:1;"/>
<path d="M106.22 123.593C106.65 123.593 106.998 123.209 106.998 122.734C106.998 122.26 106.65 121.875 106.22 121.875C105.79 121.875 105.441 122.26 105.441 122.734C105.441 123.209 105.79 123.593 106.22 123.593Z" fill="#3F3D56" style="fill:#3F3D56;fill:color(display-p3 0.2471 0.2392 0.3373);fill-opacity:1;"/>
<path d="M124.172 145.177C124.172 145.177 124.703 146.055 124.172 146.466C123.641 146.876 124.224 147.869 124.224 147.869C124.224 147.869 122.9 148.724 123.483 149.494C124.065 150.264 123.696 153.741 123.696 153.741L122.104 156.649C122.104 156.649 122.199 158.522 122.205 161.054C122.205 165.005 121.994 170.56 120.829 173.092L120.991 193.868C120.991 193.868 115.415 196.114 110.748 195.43L110.056 162.092C110.056 162.092 111.066 143.186 111.438 139.56C111.655 137.677 111.744 135.779 111.703 133.881C111.703 133.881 111.544 128.206 111.011 125.572C111.011 125.572 110.434 114.161 110.376 111.003C110.35 109.491 110.422 105.082 110.503 100.89C110.592 96.3057 110.693 91.9825 110.693 91.9825L109.641 82.7954C109.641 82.7954 110.693 82.6777 111.011 83.1453C111.153 83.2918 111.307 83.4228 111.472 83.5366C113.289 84.8918 119.71 89.0591 119.71 89.0591C119.71 89.0591 123.264 90.6178 124.114 92.851C124.965 95.0841 125.557 96.6683 125.969 97.3046C126.382 97.9408 126.607 100.931 126.607 100.931C126.607 100.931 127.83 106.434 128.784 107.366C129.739 108.299 130.437 114.228 130.437 114.228L122 121.545C122 121.545 121.259 133.716 121.1 134.187C120.942 134.657 124.172 145.177 124.172 145.177Z" fill="white" style="fill:white;fill-opacity:1;"/>
<path d="M124.492 145.177C124.492 145.177 125.02 146.055 124.492 146.466C123.965 146.876 124.541 147.869 124.541 147.869C124.541 147.869 123.226 148.734 123.803 149.504C124.38 150.274 124.016 153.751 124.016 153.751L122.424 156.658C122.424 156.658 122.519 158.532 122.528 161.064C122.528 165.015 122.318 170.569 121.152 173.101L121.311 193.877C121.311 193.877 115.727 196.123 111.066 195.439L110.376 162.101C110.376 162.101 111.386 143.196 111.758 139.569C111.976 137.686 112.064 135.788 112.02 133.891C112.02 133.891 111.862 128.216 111.331 125.582C111.331 125.582 110.754 114.171 110.693 111.012C110.668 109.501 110.743 105.092 110.82 100.899C110.91 96.3152 111.011 91.9921 111.011 91.9921L109.62 82.6809C109.62 82.6809 111.011 82.6809 111.331 83.1549C111.472 83.303 111.626 83.4342 111.792 83.5462C113.61 84.9013 120.033 89.0686 120.033 89.0686C120.033 89.0686 123.584 90.6274 124.435 92.8605C125.286 95.0937 125.877 96.6779 126.292 97.3141C126.708 97.9503 126.927 100.941 126.927 100.941C126.927 100.941 128.15 106.444 129.104 107.376C130.059 108.308 130.749 114.225 130.749 114.225L122.312 121.542C122.312 121.542 121.57 133.713 121.409 134.183C121.247 134.654 124.492 145.177 124.492 145.177Z" fill="white" style="fill:white;fill-opacity:1;"/>
<path opacity="0.1" d="M114.388 94.6927L115.15 97.1422L111.141 101.596C111.23 97.015 111.331 92.6886 111.331 92.6886L109.941 83.3774C109.941 83.3774 111.331 83.3774 111.651 83.8514C111.791 83.9992 111.946 84.1293 112.113 84.2395L115.522 95.0872L114.388 94.6927Z" fill="black" style="fill:black;fill-opacity:1;"/>
<path d="M114.068 93.9899L114.833 96.4393L110.823 100.893C110.913 96.3089 111.014 91.9857 111.014 91.9857L109.62 82.6746C109.62 82.6746 111.014 82.6746 111.331 83.1486C111.472 83.2958 111.627 83.4269 111.792 83.5398L115.205 94.3843L114.068 93.9899Z" fill="white" style="fill:white;fill-opacity:1;"/>
<path opacity="0.1" d="M114.068 69.7526C114.07 70.8989 113.907 72.0383 113.584 73.1278C113.529 73.1371 113.473 73.1344 113.42 73.1196C113.366 73.1049 113.316 73.0784 113.272 73.0419C113.197 70.1789 111.919 67.4908 110.347 65.2036C109.906 64.513 109.371 63.9014 108.761 63.3903C108.144 62.8795 107.377 62.6402 106.609 62.7191C105.744 62.8495 104.979 63.4985 104.106 63.5812C102.952 63.6862 101.919 62.805 100.774 62.7605C100.309 62.7653 99.8493 62.8797 99.427 63.0958C99.0048 63.3119 98.6291 63.6249 98.3252 64.0138C97.7236 64.7987 97.2767 65.713 97.0128 66.6987C96.5593 68.1933 96.3123 69.7547 96.2802 71.3304C96.2658 72.2211 96.1879 73.3377 95.438 73.6622C95.4944 73.0071 95.4269 72.3463 95.2397 71.7215C95.0525 71.0967 94.7498 70.5215 94.3505 70.0325L94.3332 70.0134C94.3332 69.9244 94.3332 69.8417 94.3332 69.7526C94.3108 68.3076 94.5495 66.8721 95.0355 65.53C95.5214 64.1878 96.2447 62.9657 97.1633 61.9351C98.082 60.9045 99.1775 60.0859 100.386 59.5272C101.594 58.9684 102.892 58.6807 104.202 58.6807C105.513 58.6807 106.81 58.9684 108.018 59.5272C109.227 60.0859 110.322 60.9045 111.241 61.9351C112.16 62.9657 112.883 64.1878 113.369 65.53C113.855 66.8721 114.093 68.3076 114.071 69.7526H114.068Z" fill="black" style="fill:black;fill-opacity:1;"/>
<path d="M108.288 52.4697C106.789 51.6921 105.084 51.545 103.494 52.0561C102.695 52.317 101.942 52.7401 101.132 52.9532C99.4011 53.4145 97.382 52.9151 95.8965 54.0316C95.0716 54.6679 94.5755 55.6731 94.114 56.6497L92.9602 59.0737C92.3314 60.4003 91.6969 61.7491 91.4344 63.2092C91.1719 64.6693 91.3306 66.3044 92.1699 67.4783C92.7814 68.334 93.6842 68.8716 94.3476 69.6764C94.7451 70.166 95.0465 70.7408 95.2332 71.3648C95.4198 71.9889 95.4875 72.6487 95.4322 73.3029C96.185 72.9848 96.2571 71.8651 96.2744 70.9743C96.3065 69.3986 96.5535 67.8372 97.007 66.3426C97.2703 65.3567 97.7173 64.4422 98.3194 63.6577C98.6236 63.2691 98.9992 62.9564 99.4215 62.7403C99.8437 62.5242 100.303 62.4097 100.768 62.4044C101.922 62.4489 102.957 63.3269 104.1 63.2219C104.965 63.1424 105.732 62.4903 106.603 62.363C107.371 62.2829 108.139 62.5223 108.755 63.0342C109.365 63.5445 109.899 64.1563 110.339 64.8475C111.913 67.1347 113.191 69.8164 113.266 72.6858C113.592 72.9498 114.062 72.6063 114.224 72.1991C114.385 71.7919 114.391 71.3147 114.596 70.9266C114.832 70.4781 115.285 70.2395 115.64 69.9023C116.54 69.0466 116.765 67.6055 116.73 66.2981C116.696 64.9906 116.465 63.6641 116.69 62.3789C116.826 61.59 117.131 60.852 117.299 60.0726C117.466 59.2932 117.486 58.4184 117.091 57.7472C116.514 56.761 115.3 56.567 114.241 56.4747C113.038 56.3602 111.963 56.5066 111.195 55.39C110.835 54.8073 110.43 54.2602 109.984 53.7549C109.831 53.5895 108.288 52.5397 108.288 52.4697Z" fill="#512E4E" style="fill:#512E4E;fill:color(display-p3 0.3176 0.1804 0.3059);fill-opacity:1;"/>
<path opacity="0.1" d="M76.9375 119.553L73.9234 113.407L72.9686 122.89C72.9686 122.89 73.4994 127.102 73.3926 127.748C73.2859 128.394 75.5674 134.183 75.5674 134.183C75.5674 134.183 83.1043 148.988 86.182 149.752L96.5801 141.557L93.8227 137.695C93.8227 137.695 92.868 137.285 92.6285 137.695C92.6285 137.695 87.5088 127.98 86.978 127.277C86.4473 126.574 86.5512 125.171 86.5512 125.171C86.5512 125.171 85.7551 124.236 86.0204 123.358C86.2858 122.48 84.4831 119.436 84.4831 119.436L86.1272 117.74L76.9375 119.553Z" fill="black" style="fill:black;fill-opacity:1;"/>
<path d="M74.082 112.708L73.2859 113.407L72.3312 122.89C72.3312 122.89 72.8619 127.102 72.7552 127.748C72.6485 128.394 74.9329 134.183 74.9329 134.183C74.9329 134.183 82.4669 148.988 85.5445 149.752L95.9456 141.557L93.1852 137.695C93.1852 137.695 92.2305 137.285 91.9911 137.695C91.9911 137.695 86.8713 127.98 86.3406 127.277C85.8099 126.574 85.9166 125.171 85.9166 125.171C85.9166 125.171 85.1205 124.236 85.3859 123.358C85.6512 122.48 83.8456 119.436 83.8456 119.436L85.4897 117.74L74.082 112.708Z" fill="white" style="fill:white;fill-opacity:1;"/>
<path opacity="0.1" d="M123.483 149.857C124.06 150.63 123.696 154.1 123.696 154.1L122.104 157.008C122.104 157.008 122.199 158.885 122.205 161.414L119.528 162.336C119.286 162.42 119.03 162.438 118.78 162.39C118.531 162.342 118.295 162.228 118.093 162.059C117.891 161.89 117.729 161.67 117.62 161.418C117.511 161.166 117.458 160.888 117.466 160.609L117.927 144.191L124.172 146.825C123.641 147.232 124.224 148.231 124.224 148.231C124.224 148.231 122.9 149.084 123.483 149.857Z" fill="black" style="fill:black;fill-opacity:1;"/>
<path d="M123.803 149.504C124.38 150.277 124.016 153.751 124.016 153.751L122.424 156.658C122.424 156.658 122.519 158.532 122.528 161.064L119.802 162.002C119.565 162.084 119.314 162.101 119.07 162.054C118.826 162.006 118.595 161.895 118.398 161.73C118.2 161.564 118.041 161.349 117.934 161.102C117.828 160.855 117.776 160.584 117.783 160.31L118.248 143.841L124.495 146.475C123.962 146.882 124.544 147.878 124.544 147.878C124.544 147.878 123.226 148.734 123.803 149.504Z" fill="white" style="fill:white;fill-opacity:1;"/>
<path d="M125.871 141.678C125.871 141.678 125.447 144.665 124.386 144.84C123.324 145.015 122.848 149.672 121.79 149.507C120.731 149.342 121.432 145.177 121.469 144.369C121.507 143.561 120.316 140.215 121.207 139.455C122.098 138.694 124.919 139.455 124.919 139.455L125.871 141.678Z" fill="#CF6F80" style="fill:#CF6F80;fill:color(display-p3 0.8118 0.4353 0.5020);fill-opacity:1;"/>
<path opacity="0.1" d="M128.129 118.675L130.131 114.222C130.131 114.222 130.927 117.616 130.927 119.429C130.927 121.242 132.041 121.421 132.041 121.421C132.041 121.421 133.261 123.011 132.618 124.169C131.974 125.327 131.715 128.209 131.715 128.209C131.715 128.209 131.925 133.709 130.971 134.47C130.016 135.23 129.817 137.046 129.817 137.046C129.817 137.046 128.063 140.498 128.118 141.319C128.173 142.139 125.678 147.697 125.678 147.697C125.678 147.697 126.898 140.791 119.788 137.807C119.788 137.807 119.733 135.462 120.264 134.82C120.795 134.177 121.622 133.884 121.103 130.636C120.584 127.388 120.953 123.507 120.953 122.728C120.953 121.949 122.545 117.088 122.545 117.088L128.129 118.675Z" fill="black" style="fill:black;fill-opacity:1;"/>
<path d="M128.995 113.585L130.743 114.222C130.743 114.222 131.542 117.616 131.542 119.429C131.542 121.242 132.655 121.421 132.655 121.421C132.655 121.421 133.875 123.011 133.232 124.169C132.589 125.327 132.332 128.209 132.332 128.209C132.332 128.209 132.543 133.709 131.588 134.47C130.633 135.23 130.42 137.046 130.42 137.046C130.42 137.046 128.669 140.498 128.724 141.319C128.778 142.139 126.281 147.697 126.281 147.697C126.281 147.697 127.504 140.79 120.391 137.807C120.391 137.807 120.339 135.462 120.869 134.82C121.4 134.177 122.228 133.884 121.709 130.636C121.19 127.388 121.559 123.507 121.559 122.728C121.559 121.949 123.151 117.088 123.151 117.088L128.995 113.585Z" fill="white" style="fill:white;fill-opacity:1;"/>
<path opacity="0.1" d="M90.3875 229.019C90.3875 229.019 93.1738 227.089 95.0025 228.491C96.8312 229.894 90.3875 229.019 90.3875 229.019Z" fill="black" style="fill:black;fill-opacity:1;"/>
<path opacity="0.1" d="M112.038 223.048C112.038 223.048 114.504 222.699 116.575 225.158C118.646 227.617 112.038 223.048 112.038 223.048Z" fill="black" style="fill:black;fill-opacity:1;"/>
<g opacity="0.1">
<path d="M115.646 69.2058C115.291 69.543 114.835 69.7847 114.599 70.2333C114.397 70.6182 114.391 71.0922 114.23 71.5057C114.068 71.9193 113.598 72.2565 113.272 71.9956C113.197 69.1326 111.916 66.4445 110.344 64.1541C109.905 63.4629 109.371 62.8512 108.761 62.3409C108.144 61.829 107.375 61.5896 106.606 61.6697C105.741 61.8001 104.979 62.4491 104.106 62.5286C102.952 62.6367 101.916 61.7556 100.771 61.711C100.306 61.7161 99.8468 61.8309 99.425 62.0476C99.0032 62.2643 98.6282 62.578 98.3252 62.9676C97.7231 63.7508 97.2761 64.6643 97.0128 65.6493C96.5596 67.144 96.3126 68.7053 96.2802 70.281C96.2629 71.1685 96.1879 72.2756 95.4437 72.6064C95.461 72.8414 95.461 73.0776 95.4437 73.3126C96.1937 72.9945 96.2687 71.8747 96.286 70.984C96.3181 69.4083 96.5651 67.8469 97.0186 66.3523C97.2819 65.3663 97.7289 64.4519 98.331 63.6674C98.6346 63.2789 99.0097 62.9662 99.4315 62.75C99.8533 62.5339 100.312 62.4194 100.777 62.4141C101.931 62.4586 102.969 63.3366 104.111 63.2316C104.977 63.1521 105.744 62.4999 106.612 62.3727C107.381 62.2927 108.149 62.532 108.767 63.0439C109.376 63.5542 109.911 64.1659 110.35 64.8572C111.922 67.1444 113.203 69.8261 113.278 72.6955C113.604 72.9595 114.074 72.6159 114.235 72.2088C114.397 71.8016 114.403 71.3244 114.605 70.9363C114.841 70.4878 115.297 70.2492 115.652 69.912C116.552 69.0563 116.777 67.6152 116.742 66.3078C116.742 66.2664 116.742 66.2251 116.742 66.1869C116.687 67.3194 116.413 68.4741 115.646 69.2058Z" fill="black" style="fill:black;fill-opacity:1;"/>
<path d="M94.3535 68.9798C93.6901 68.1749 92.7844 67.6373 92.1758 66.7848C91.6633 66.0301 91.3706 65.1216 91.3364 64.1794C91.2456 65.3568 91.5437 66.5306 92.1758 67.4846C92.7844 68.3404 93.6901 68.878 94.3535 69.6828C94.9904 70.4701 95.3728 71.4679 95.4409 72.5204C95.485 71.8799 95.4115 71.2361 95.2246 70.6277C95.0378 70.0193 94.7415 69.4588 94.3535 68.9798Z" fill="black" style="fill:black;fill-opacity:1;"/>
<path d="M117.304 59.376C117.134 60.1553 116.831 60.8965 116.693 61.6823C116.611 62.2073 116.581 62.7406 116.604 63.2728C116.613 62.9697 116.643 62.6677 116.693 62.3694C116.831 61.5805 117.134 60.8425 117.304 60.0631C117.404 59.6332 117.436 59.1879 117.4 58.7461C117.382 58.9583 117.35 59.1688 117.304 59.376Z" fill="black" style="fill:black;fill-opacity:1;"/>
</g>
<path opacity="0.1" d="M38.4167 241.954C53.9388 241.954 66.522 239.725 66.522 236.975C66.522 234.226 53.9388 231.997 38.4167 231.997C22.8945 231.997 10.3113 234.226 10.3113 236.975C10.3113 239.725 22.8945 241.954 38.4167 241.954Z" fill="#41C1BA" style="fill:#41C1BA;fill:color(display-p3 0.2549 0.7569 0.7294);fill-opacity:1;"/>
<path d="M39.3224 141.605H37.5139V186.513H39.3224V141.605Z" fill="#535461" style="fill:#535461;fill:color(display-p3 0.3255 0.3294 0.3804);fill-opacity:1;"/>
<path d="M50.6868 186.376L50.5743 188.399L50.4128 191.262L50.3465 192.452L50.1878 195.315L50.1186 196.505L49.9571 199.368L48.1341 231.838C48.0549 233.235 47.496 234.546 46.5711 235.505C45.6462 236.463 44.4249 236.997 43.1557 236.998H33.6776C32.4087 236.997 31.1878 236.463 30.2633 235.504C29.3389 234.546 28.7806 233.234 28.7021 231.838L26.8878 199.346L26.7263 196.483L26.6599 195.293L26.4984 192.43L26.4321 191.24L26.2705 188.377L26.1552 186.354C26.1351 185.964 26.1874 185.575 26.3089 185.208C26.4304 184.842 26.6184 184.507 26.8615 184.224C27.1046 183.94 27.3976 183.715 27.7225 183.561C28.0474 183.407 28.3975 183.328 28.7511 183.329H48.137C48.4893 183.332 48.8373 183.415 49.1594 183.572C49.4815 183.73 49.771 183.958 50.0099 184.244C50.2488 184.529 50.4321 184.866 50.5486 185.233C50.665 185.599 50.712 185.989 50.6868 186.376Z" fill="#3F3D56" style="fill:#3F3D56;fill:color(display-p3 0.2471 0.2392 0.3373);fill-opacity:1;"/>
<path d="M50.5743 188.399L50.4128 191.253H26.4206L26.259 188.399H50.5743Z" fill="#9D9CB5" style="fill:#9D9CB5;fill:color(display-p3 0.6157 0.6118 0.7098);fill-opacity:1;"/>
<path d="M50.3465 192.443L50.1879 195.3H26.6485L26.4869 192.443H50.3465Z" fill="#9D9CB5" style="fill:#9D9CB5;fill:color(display-p3 0.6157 0.6118 0.7098);fill-opacity:1;"/>
<path d="M50.1186 196.492L49.9599 199.346H26.8762L26.7147 196.492H50.1186Z" fill="#9D9CB5" style="fill:#9D9CB5;fill:color(display-p3 0.6157 0.6118 0.7098);fill-opacity:1;"/>
<path d="M23.4987 158.436C34.0295 166.841 38.4253 179.985 38.4253 179.985C38.4253 179.985 25.7341 179.505 15.2003 171.1C4.66656 162.696 0.279419 149.555 0.279419 149.555C0.279419 149.555 12.9649 150.032 23.4987 158.436Z" fill="#41C1BA" style="fill:#41C1BA;fill:color(display-p3 0.2549 0.7569 0.7294);fill-opacity:1;"/>
<path d="M0.270752 149.555C0.270752 149.555 13.4466 157.619 17.6722 164.296C21.8978 170.973 38.4253 179.985 38.4253 179.985" stroke="#535461" style="stroke:#535461;stroke:color(display-p3 0.3255 0.3294 0.3804);stroke-opacity:1;" stroke-width="2" stroke-miterlimit="10"/>
<path d="M30.2972 141.506C36.0284 146.078 38.4254 153.232 38.4254 153.232C38.4254 153.232 31.5173 152.971 25.7831 148.4C20.049 143.828 17.6578 136.671 17.6578 136.671C17.6578 136.671 24.563 136.932 30.2972 141.506Z" fill="#41C1BA" style="fill:#41C1BA;fill:color(display-p3 0.2549 0.7569 0.7294);fill-opacity:1;"/>
<path d="M17.6578 136.671C17.6578 136.671 24.8284 141.061 27.1273 144.694C29.4261 148.327 38.4254 153.232 38.4254 153.232" stroke="#535461" style="stroke:#535461;stroke:color(display-p3 0.3255 0.3294 0.3804);stroke-opacity:1;" stroke-width="2" stroke-miterlimit="10"/>
<path d="M46.7467 152.869C40.1617 160.851 38.7686 171.282 38.7686 171.282C38.7686 171.282 48.0534 168.769 54.6326 160.784C61.2119 152.799 62.6108 142.372 62.6108 142.372C62.6108 142.372 53.3318 144.888 46.7467 152.869Z" fill="#41C1BA" style="fill:#41C1BA;fill:color(display-p3 0.2549 0.7569 0.7294);fill-opacity:1;"/>
<path d="M62.6166 142.375C62.6166 142.375 54.0385 150.557 51.8579 156.194C49.6773 161.831 38.7686 171.282 38.7686 171.282" stroke="#535461" style="stroke:#535461;stroke:color(display-p3 0.3255 0.3294 0.3804);stroke-opacity:1;" stroke-width="2" stroke-miterlimit="10"/>
<path d="M288.475 150.06C288.475 150.06 283.713 123.931 285.536 120.679C285.536 120.679 285.602 117.657 285.492 113.805C285.492 113.659 285.492 113.512 285.492 113.363C285.813 113.599 286.148 113.811 286.493 113.999C288.173 114.951 290.101 115.225 291.945 114.775L290.503 113.003C290.156 112.58 289.796 112.122 289.721 111.562C289.646 111.002 289.854 110.503 290.032 110.004C291.403 106.186 291.475 101.386 288.835 98.472C286.606 96.0225 286.064 92.8605 283.644 90.6241C281.875 88.9859 280.903 86.5841 279.986 84.2619C279.21 82.2991 278.429 80.3204 277.984 78.24C277.638 76.6144 277.5 74.9316 277.024 73.3442C276.548 71.7568 275.657 70.214 274.264 69.5046C273.767 69.2533 273.217 69.1101 272.764 68.7761C272.17 68.3339 271.812 67.615 271.382 66.9851C269.199 63.804 261.887 65.6777 258.425 66.9692C257.484 67.2945 256.613 67.8269 255.864 68.5343L255.896 68.4771C255.922 68.4294 255.954 68.3817 255.982 68.3339C255.604 68.6718 255.276 69.0746 255.013 69.5269C254.508 70.408 254.298 71.4355 253.877 72.3899C253.369 73.5192 250.545 76.6717 251.76 77.941C251.845 78.0262 251.942 78.095 252.048 78.1445C252.504 78.3538 253.006 78.4091 253.49 78.3036L253.438 78.4404C253.024 79.5603 252.811 80.7586 252.812 81.9683C252.812 87.1949 256.721 91.4321 261.546 91.4321C262.454 91.4331 263.355 91.2797 264.22 90.9772C264.24 91.0981 264.258 91.219 264.278 91.3399C264.278 91.3876 264.292 91.4353 264.298 91.483L264.145 91.7184C264.138 91.7039 264.129 91.6901 264.119 91.6771L259.591 98.6565C258.899 99.1941 254.912 102.375 254.687 104.761C254.451 107.373 254.214 110.43 254.214 110.43L254.183 111.085C253.985 111.268 253.753 111.4 253.504 111.475C253.255 111.549 252.995 111.562 252.74 111.515C251.327 111.26 251.327 117.241 251.327 117.241C251.327 117.241 250.387 118.195 249.741 117.368C249.094 116.541 247.387 119.343 247.387 119.343L236.686 119.852L236.441 119.868L235.864 117.899C235.802 117.691 235.668 117.519 235.491 117.42C235.315 117.32 235.11 117.302 234.921 117.368C234.876 117.384 234.833 117.404 234.791 117.428L234.75 117.454L234.675 117.511L234.638 117.549C234.617 117.57 234.598 117.592 234.58 117.616L234.546 117.661L234.528 117.68C234.462 117.781 234.418 117.899 234.4 118.022C234.382 118.146 234.39 118.273 234.425 118.392L234.921 120.081C232.855 120.54 230.744 121.831 232.466 125.388L223.738 123.609L226.562 126.224L241.139 129.542C240.946 129.924 241.073 130.477 241.676 131.257C244.272 134.619 249.002 135.532 250.906 135.768C251.409 137.008 252.037 138.182 252.778 139.267L252.613 142.617C252.613 142.617 247.794 168.148 246.911 169.443C247.357 168.886 247.764 168.294 248.131 167.671C246.732 172.917 244.777 180.097 244.263 181.172C243.438 182.89 242.674 189.84 243.614 190.286C243.903 190.423 244.728 190.356 245.904 190.257V190.833L245.852 212.652C245.852 212.652 246.089 226.035 245.44 227.311C244.791 228.587 244.618 231.262 244.618 231.262C244.618 231.262 242.022 236.54 239.965 238.661C239.951 238.678 239.936 238.693 239.919 238.706L239.856 238.21C239.856 238.21 237.384 241.652 231.915 241.458C231.915 241.458 228.624 243.818 233.504 243.945C238.385 244.072 244.618 243.754 244.618 243.754C244.618 243.754 248.97 236.438 252.616 237.392V242.937H253.733V237.303C254.25 236.927 254.693 236.439 255.035 235.869C255.377 235.299 255.61 234.658 255.72 233.985C255.815 233.292 255.745 232.583 255.517 231.929C255.288 231.274 254.909 230.697 254.416 230.254C254.195 230.033 254.017 229.764 253.895 229.464C253.772 229.164 253.707 228.839 253.704 228.51L253.663 228.549C253.663 228.437 253.637 228.323 253.626 228.205C253.306 225.342 252.905 219.435 254.321 215.064C256.262 209.07 256.851 200.723 255.437 195.754C254.981 194.166 254.607 192.55 254.315 190.916C254.281 190.709 254.249 190.512 254.22 190.327C255.186 190.471 256.143 190.684 257.084 190.963C260.358 191.959 267.52 192.144 273.635 192.09C273.649 192.274 273.667 192.468 273.687 192.662C273.796 194.011 274.024 195.345 274.367 196.645C275.135 199.19 275.487 210.41 275.487 210.41C275.487 210.41 276.476 219.635 275.937 223.389C275.648 225.476 275.36 227.572 275.195 229.678V229.719C275.195 229.719 273.574 234.809 272.389 237.573C272.36 237.643 272.328 237.713 272.299 237.78C271.983 237.812 271.672 237.888 271.373 238.006C271.373 238.006 269.784 241.505 268.201 242.084C266.617 242.663 267.142 244.569 270.727 243.869C274.313 243.169 279.727 242.596 279.727 242.596L279.96 239.027L281.062 237.507L280.774 241.066L281.948 240.812L281.792 236.482L283.595 233.995C283.595 233.995 285.772 231.857 282.536 227.651V227.744C282.501 227.683 282.47 227.62 282.432 227.559V227.54C281.896 226.624 281.469 224.916 282.25 221.884C283.664 216.406 284.486 211.434 284.486 211.434C284.486 211.434 287.641 198.115 283.848 191.813H284.016C283.627 190.926 283.352 189.984 283.199 189.013C283.18 188.899 283.163 188.781 283.147 188.66C285.954 188.482 288.709 187.922 290.955 186.713C290.947 186.701 289.594 155.093 288.475 150.06ZM252.844 128.015V128.079L252.267 128.111L252.844 128.015ZM250.866 128.317C250.771 128.341 250.682 128.387 250.606 128.454C250.358 128.841 250.202 129.291 250.153 129.762L249.253 129.539C249.253 129.539 248.621 129.389 247.713 129.221L247.283 128.744C248.466 128.635 249.694 128.476 250.866 128.317Z" fill="url(#paint1_linear_273_168)" style=""/>
<path d="M280.641 236.527L280.298 241.035L281.449 240.78L281.276 235.891L280.641 236.527Z" fill="#1D2366" style="fill:#1D2366;fill:color(display-p3 0.1137 0.1373 0.4000);fill-opacity:1;"/>
<path d="M254.384 215.124C252.997 219.482 253.389 225.364 253.701 228.221C253.816 229.277 253.923 229.92 253.923 229.92C253.923 229.92 251.849 235.13 251.676 235.328C251.503 235.525 245.573 239.517 245.573 239.517L241.428 242.186C241.428 242.186 237.222 240.153 239.239 239.454C239.651 239.271 240.022 238.992 240.326 238.636C242.345 236.521 244.88 231.262 244.88 231.262C244.88 231.262 245.054 228.593 245.688 227.324C246.323 226.055 246.092 212.716 246.092 212.716L246.141 190.973V188.139L254.03 188.202C254.079 189.165 254.193 190.121 254.37 191.065C254.653 192.695 255.02 194.305 255.469 195.888C256.859 200.847 256.282 209.153 254.384 215.124Z" fill="#FFB0B1" style="fill:#FFB0B1;fill:color(display-p3 1.0000 0.6902 0.6941);fill-opacity:1;"/>
<path opacity="0.1" d="M253.923 229.919C253.923 229.919 251.849 235.13 251.676 235.327C251.503 235.525 245.573 239.517 245.573 239.517L241.428 242.186C241.428 242.186 237.222 240.153 239.239 239.453C239.651 239.271 240.022 238.992 240.326 238.636L240.505 240.026L241.886 239.962L253.712 228.227C253.816 229.277 253.923 229.919 253.923 229.919Z" fill="black" style="fill:black;fill-opacity:1;"/>
<path d="M253.779 228.523L241.886 240.338L240.505 240.401L240.216 238.175C240.216 238.175 237.799 241.604 232.429 241.413C232.429 241.413 229.204 243.764 233.983 243.891C238.763 244.018 244.866 243.7 244.866 243.7C244.866 243.7 249.129 236.384 252.697 237.338V242.864H253.793V237.287C254.303 236.909 254.738 236.42 255.072 235.852C255.406 235.283 255.632 234.646 255.737 233.979C255.832 233.291 255.765 232.588 255.542 231.937C255.319 231.286 254.949 230.71 254.465 230.263C254.249 230.04 254.077 229.77 253.959 229.471C253.841 229.172 253.78 228.849 253.779 228.523Z" fill="#1D2366" style="fill:#1D2366;fill:color(display-p3 0.1137 0.1373 0.4000);fill-opacity:1;"/>
<path d="M281.737 221.919C280.97 224.941 281.388 226.643 281.913 227.556V227.575C282.586 228.702 283.055 229.963 283.292 231.287L283.338 231.574L277.927 240.274L274.991 241.546C274.991 241.546 270.269 239.768 271.131 239.259C271.348 239.135 271.685 238.473 272.072 237.56C273.225 234.809 274.817 229.732 274.817 229.732V229.69C274.985 227.594 275.25 225.504 275.544 223.423C276.072 219.679 275.103 210.489 275.103 210.489C275.103 210.489 274.757 199.314 274.007 196.772C273.668 195.48 273.443 194.154 273.335 192.815C273.179 191.224 273.145 189.913 273.145 189.913C273.145 189.913 276.254 185.142 281.953 190.295C282.409 190.706 282.81 191.186 283.145 191.72C287.082 197.898 283.912 211.507 283.912 211.507C283.912 211.507 283.119 216.457 281.737 221.919Z" fill="#FFB0B1" style="fill:#FFB0B1;fill:color(display-p3 1.0000 0.6902 0.6941);fill-opacity:1;"/>
<path opacity="0.1" d="M283.347 231.574L277.935 240.274L274.999 241.546C274.999 241.546 270.277 239.768 271.14 239.259C271.356 239.135 271.694 238.473 272.08 237.561C274.079 237.541 275.115 239.641 275.115 239.641L277.647 239.196C277.647 239.196 280.987 231.955 281.737 231.513C282.487 231.071 281.852 228.208 281.852 228.208V227.479C281.873 227.505 281.89 227.534 281.913 227.559V227.578C282.586 228.705 283.055 229.966 283.292 231.291L283.347 231.574Z" fill="black" style="fill:black;fill-opacity:1;"/>
<path d="M275.288 239.829C275.288 239.829 273.845 236.908 271.082 237.987C271.082 237.987 269.527 241.486 267.973 242.052C266.418 242.619 266.937 244.527 270.45 243.831C273.964 243.134 279.259 242.558 279.259 242.558L279.49 238.998L283.061 233.982C283.061 233.982 285.19 231.854 282.023 227.664V228.393C282.023 228.393 282.657 231.256 281.907 231.698C281.157 232.14 277.829 239.383 277.829 239.383L275.288 239.829Z" fill="#1D2366" style="fill:#1D2366;fill:color(display-p3 0.1137 0.1373 0.4000);fill-opacity:1;"/>
<path opacity="0.1" d="M254.038 188.196C254.088 189.158 254.202 190.115 254.379 191.059C251.131 190.534 248.117 190.795 246.141 190.967V188.132L254.038 188.196Z" fill="black" style="fill:black;fill-opacity:1;"/>
<path opacity="0.1" d="M283.465 192.513C283.465 192.513 278.85 192.761 273.346 192.812C273.191 191.221 273.156 189.91 273.156 189.91C273.156 189.91 276.265 185.139 281.965 190.292C282.421 190.703 282.822 191.183 283.156 191.717C283.246 191.989 283.349 192.254 283.465 192.513Z" fill="black" style="fill:black;fill-opacity:1;"/>
<path d="M283.465 191.94C283.465 191.94 263.251 193.018 257.09 191.113C250.929 189.207 244.823 190.858 243.903 190.416C242.983 189.974 243.73 183.049 244.537 181.334C245.345 179.619 249.775 162.279 249.775 162.279L254.038 137.765L258.529 136.401L258.847 136.302L266.672 133.922L272.406 132.176C272.406 132.176 283.808 181.27 282.83 184.891C282.475 186.277 282.418 187.735 282.663 189.15C282.812 190.116 283.082 191.055 283.465 191.94Z" fill="#1D2366" style="fill:#1D2366;fill:color(display-p3 0.1137 0.1373 0.4000);fill-opacity:1;"/>
<path d="M239.178 121.001C239.178 121.001 235.14 125.772 238.197 128.432C241.255 131.091 243.265 128.686 243.265 128.686L239.178 121.001Z" fill="#C7DAF5" style="fill:#C7DAF5;fill:color(display-p3 0.7804 0.8549 0.9608);fill-opacity:1;"/>
<path opacity="0.1" d="M239.178 121.001C239.178 121.001 235.14 125.772 238.197 128.432C241.255 131.091 243.265 128.686 243.265 128.686L239.178 121.001Z" fill="black" style="fill:black;fill-opacity:1;"/>
<path d="M271.803 89.6285C271.803 89.6285 271.33 90.1247 270.618 90.8564C269.602 91.903 268.1 93.4331 266.767 94.7151C264.921 96.487 263.398 97.7881 263.943 96.6779C264.488 95.5677 264.385 93.6335 264.114 91.8235C264.093 91.7026 264.076 91.5817 264.056 91.464C263.831 90.1346 263.534 88.8216 263.165 87.5321C263.165 87.5321 266.147 83.2821 267.797 81.6057C268.411 80.9694 268.841 80.7086 268.867 81.1508C268.896 81.7456 269.3 83.0594 269.802 84.4528C269.816 84.4973 269.83 84.5387 269.848 84.5832C270.182 85.5375 270.56 86.5173 270.892 87.3635C271.399 88.6614 271.803 89.6285 271.803 89.6285Z" fill="#FFB0B1" style="fill:#FFB0B1;fill:color(display-p3 1.0000 0.6902 0.6941);fill-opacity:1;"/>
<path opacity="0.1" d="M269.848 84.5831C269.567 86.2457 268.887 87.7948 267.879 89.0684C266.87 90.342 265.57 91.2935 264.114 91.8234C263.884 90.3712 263.567 88.9376 263.165 87.532C263.165 87.532 268.78 79.5315 268.867 81.1507C268.887 81.7646 269.326 83.1262 269.848 84.5831Z" fill="black" style="fill:black;fill-opacity:1;"/>
<path opacity="0.1" d="M263.554 93.9611L264.281 92.8318C264.281 92.8318 264.763 96.0702 266.534 94.6419C268.305 93.2135 268.391 105.391 268.391 105.391L266.49 136.735L252.755 135.828L253.144 120.683L254.699 113.048L258.544 101.949L260.831 98.2811L263.554 93.9611Z" fill="black" style="fill:black;fill-opacity:1;"/>
<path d="M268.391 105.585L266.66 133.926L266.479 136.929L258.821 136.423L258.532 136.404L252.763 136.022L253.153 120.874L254.708 113.239L258.552 102.14L260.84 98.472L263.563 94.1361L264.289 93.01C264.289 93.01 264.771 96.2484 266.542 94.8201L266.58 94.7914C268.31 93.5826 268.391 105.585 268.391 105.585Z" fill="#1D2366" style="fill:#1D2366;fill:color(display-p3 0.1137 0.1373 0.4000);fill-opacity:1;"/>
<path d="M254.901 110.586C254.901 110.586 254.211 112.176 252.827 111.919C251.442 111.661 251.445 117.645 251.445 117.645C251.445 117.645 250.525 118.599 249.891 117.772C249.256 116.945 247.583 119.741 247.583 119.741L237.101 120.25C237.101 120.25 241.765 122.601 240.851 129.714C240.851 129.714 256.686 128.632 257.205 126.981C257.725 125.33 254.901 110.586 254.901 110.586Z" fill="white" style="fill:white;fill-opacity:1;"/>
<path opacity="0.03" d="M254.901 110.586C254.901 110.586 254.211 112.176 252.827 111.919C251.442 111.661 251.445 117.645 251.445 117.645C251.445 117.645 250.525 118.599 249.891 117.772C249.256 116.945 247.583 119.741 247.583 119.741L237.101 120.25C237.101 120.25 241.765 122.601 240.851 129.714C240.851 129.714 256.686 128.632 257.205 126.981C257.725 125.33 254.901 110.586 254.901 110.586Z" fill="black" style="fill:black;fill-opacity:1;"/>
<path d="M224.439 123.988L227.202 126.59L249.948 131.861L247.127 128.686L224.439 123.988Z" fill="white" style="fill:white;fill-opacity:1;"/>
<path d="M263.597 94.9631C263.219 95.5994 262.138 98.8568 261.235 101.701C260.482 104.071 259.853 106.154 259.853 106.154C259.853 106.154 258.385 116.697 257.635 118.602C256.885 120.508 257.292 127.939 257.292 127.939L254.497 146.291C254.497 146.291 253.231 155.755 251.275 161.407C249.345 166.971 247.197 169.58 247.13 169.662C247.996 168.371 252.712 142.941 252.712 142.941L254.269 110.869C254.269 110.869 254.497 107.821 254.728 105.216C254.958 102.611 259.631 99.0541 259.631 99.0541L264.137 91.9888C264.589 92.6568 264.287 93.8211 263.597 94.9631Z" fill="white" style="fill:white;fill-opacity:1;"/>
<path d="M251.849 136.181C251.849 136.181 245.215 135.863 242.002 131.607C238.789 127.35 249.429 129.908 249.429 129.908L252.195 130.608L251.849 136.181Z" fill="#FFB0B1" style="fill:#FFB0B1;fill:color(display-p3 1.0000 0.6902 0.6941);fill-opacity:1;"/>
<path opacity="0.1" d="M282.83 184.894C282.475 186.28 282.418 187.738 282.663 189.153C275.426 189.719 267.684 187.563 267.684 187.563C266.242 189.026 262.443 191.183 262.443 191.183L260.372 162.871C259.048 159.053 258.529 139.054 258.529 139.054C258.529 139.054 258.648 138.007 258.818 136.439C258.818 136.4 258.818 136.359 258.832 136.321C259.348 131.941 260.372 123.717 260.874 122.607C261.567 121.08 258.746 117.018 258.746 117.018L260.029 104.945L260.185 103.489C262.89 102.156 264.964 97.8992 264.964 97.8992L266.557 94.8231C268.287 93.5984 268.377 105.601 268.377 105.601L266.646 133.941L272.38 132.195C272.38 132.195 283.808 181.274 282.83 184.894Z" fill="black" style="fill:black;fill-opacity:1;"/>
<path d="M290.258 186.85C282.369 191.17 268.031 187.168 268.031 187.168C266.588 188.632 262.79 190.789 262.79 190.789L260.716 162.476C259.395 158.659 258.875 138.659 258.875 138.659C258.875 138.659 260.543 123.737 261.235 122.213C261.437 121.767 261.339 121.106 261.099 120.393C259.922 117.002 259.489 113.351 259.836 109.74L260.39 104.551L260.543 103.097C263.251 101.761 265.325 97.505 265.325 97.505L266.767 94.7183L269.421 89.5839L270.678 87.1536L270.892 87.3667L272.521 88.9954C272.521 88.9954 273.214 89.6317 274.252 90.586C276.511 92.6856 280.413 96.382 282.426 98.6438C284.197 100.635 284.757 108.381 284.919 114.212C285.025 118.052 284.962 121.061 284.962 121.061C283.176 124.303 287.846 150.328 287.846 150.328C288.934 155.357 290.258 186.85 290.258 186.85Z" fill="white" style="fill:white;fill-opacity:1;"/>
<path opacity="0.03" d="M275.114 97.4414C275.114 97.4414 269.7 108.808 270.329 113.128C270.958 117.448 272.746 122.337 271.884 123.479C271.588 123.912 271.205 124.263 270.765 124.505C270.325 124.747 269.84 124.874 269.349 124.875C268.483 124.939 266.176 126.717 266.176 126.908C266.176 127.099 264.044 127.099 262.138 127.99C260.231 128.881 257.416 129.386 257.416 129.386C257.416 129.386 251.936 129.195 251.425 129.768C250.915 130.341 250.39 133.767 251.483 136.499C252.576 139.232 253.79 141.271 254.708 141.643C255.625 142.015 261.445 139.865 266.167 139.356C270.889 138.847 276.014 134.721 276.014 134.721C276.014 134.721 281.659 132.494 282.648 128.75C283.638 125.006 281.44 104.427 281.44 104.427C281.44 104.427 279.779 94.836 275.114 97.4414Z" fill="black" style="fill:black;fill-opacity:1;"/>
<path opacity="0.03" d="M274.422 96.4869C274.422 96.4869 269.008 107.856 269.643 112.173C270.277 116.49 272.06 121.382 271.195 122.528C270.899 122.961 270.517 123.312 270.077 123.555C269.638 123.797 269.154 123.924 268.662 123.924C267.797 123.988 265.489 125.766 265.489 125.957C265.489 126.148 263.358 126.148 261.451 127.035C259.545 127.923 256.729 128.432 256.729 128.432C256.729 128.432 251.249 128.241 250.742 128.814C250.234 129.386 249.703 132.815 250.799 135.545C251.895 138.274 253.107 140.317 254.024 140.689C254.941 141.061 260.762 138.91 265.484 138.405C270.205 137.899 275.331 133.767 275.331 133.767C275.331 133.767 280.973 131.54 281.951 127.799C282.928 124.058 280.742 103.473 280.742 103.473C280.742 103.473 279.086 93.8847 274.422 96.4869Z" fill="black" style="fill:black;fill-opacity:1;"/>
<path d="M274.944 96.8686C274.944 96.8686 269.53 108.238 270.165 112.555C270.8 116.872 272.582 121.764 271.72 122.906C271.424 123.34 271.042 123.693 270.602 123.936C270.162 124.179 269.676 124.305 269.184 124.306C268.319 124.369 266.011 126.148 266.011 126.335C266.011 126.523 263.883 126.526 261.973 127.417C260.064 128.308 257.252 128.814 257.252 128.814C257.252 128.814 251.771 128.623 251.261 129.195C250.75 129.768 250.225 133.197 251.318 135.927C252.412 138.656 253.626 140.698 254.543 141.07C255.46 141.443 261.281 139.292 266.003 138.783C270.725 138.274 275.85 134.148 275.85 134.148C275.85 134.148 281.495 131.921 282.484 128.177C283.474 124.433 281.29 103.854 281.29 103.854C281.29 103.854 279.606 94.2791 274.944 96.8686Z" fill="white" style="fill:white;fill-opacity:1;"/>
<path opacity="0.1" d="M274.826 127.363C274.826 127.363 270.5 126.409 272.005 127.999C273.511 129.59 273.502 130.983 275.345 130.92C277.188 130.856 274.826 127.363 274.826 127.363Z" fill="black" style="fill:black;fill-opacity:1;"/>
<path opacity="0.1" d="M282.138 161.586C282.138 161.586 280.182 163.046 283.923 166.411C287.664 169.777 282.138 161.586 282.138 161.586Z" fill="black" style="fill:black;fill-opacity:1;"/>
<path opacity="0.1" d="M278.406 173.588C278.406 173.779 277.713 180.587 280.303 182.289C282.894 183.99 278.406 173.588 278.406 173.588Z" fill="black" style="fill:black;fill-opacity:1;"/>
<path d="M237.28 120.234C235.192 120.314 230.681 121.017 233.02 125.83C235.088 130.089 238.564 127.242 240.519 125.082C240.042 123.068 238.883 121.333 237.28 120.234Z" fill="#FFB0B1" style="fill:#FFB0B1;fill:color(display-p3 1.0000 0.6902 0.6941);fill-opacity:1;"/>
<path opacity="0.1" d="M274.252 90.7801C272.037 92.4502 270.179 93.8595 269.816 94.1521C268.824 94.9633 266.932 99.7255 265.711 102.156C264.739 104.112 261.581 104.615 260.39 104.739L260.543 103.285C263.251 101.949 265.325 97.6927 265.325 97.6927L270.678 87.3413L272.521 89.1895C272.521 89.1895 273.214 89.8258 274.252 90.7801Z" fill="black" style="fill:black;fill-opacity:1;"/>
<path d="M274.252 90.5892C272.037 92.2593 270.179 93.6685 269.816 93.9644C268.824 94.7724 266.932 99.5345 265.711 101.965C264.739 103.921 261.581 104.424 260.39 104.548L260.543 103.094C263.251 101.758 265.325 97.5018 265.325 97.5018L270.678 87.1504L272.521 88.9923C272.521 88.9923 273.214 89.6221 274.252 90.5892Z" fill="#DCE7FF" style="fill:#DCE7FF;fill:color(display-p3 0.8627 0.9059 1.0000);fill-opacity:1;"/>
<path d="M269.989 82.4837C269.99 84.3933 269.465 86.2582 268.483 87.8312C267.324 89.691 265.598 91.0307 263.62 91.6074C261.641 92.1841 259.541 91.9594 257.7 90.9742C255.858 89.9889 254.398 88.3084 253.585 86.2376C252.771 84.1667 252.657 81.8427 253.264 79.6872C253.871 77.5317 255.158 75.6876 256.892 74.4894C258.627 73.2912 260.693 72.8184 262.716 73.1567C264.74 73.495 266.586 74.622 267.92 76.3333C269.255 78.0445 269.989 80.2266 269.989 82.4837Z" fill="#FFB0B1" style="fill:#FFB0B1;fill:color(display-p3 1.0000 0.6902 0.6941);fill-opacity:1;"/>
<path opacity="0.1" d="M284.919 114.216C283.747 113.421 282.793 112.291 282.158 110.945C281.677 109.896 281.356 108.684 280.534 107.939C279.793 107.271 278.804 107.109 277.881 106.81C274.846 105.82 272.302 102.767 272.207 99.2801C272.161 97.6386 272.625 96.0003 272.415 94.3748C272.295 93.4548 271.963 92.584 271.451 91.8458C271.197 91.4927 270.918 91.1619 270.618 90.8564C270.214 90.4365 269.79 90.0293 269.421 89.584C269.188 89.3082 268.985 89.0041 268.815 88.6774C268.678 88.41 268.567 88.1275 268.483 87.8344C267.906 85.8875 268.431 83.578 267.797 81.6089L267.762 81.5007C267.523 80.8009 267.035 80.101 266.358 80.047C265.68 79.9929 265.1 80.6132 264.454 80.89C263.101 81.4689 261.642 80.4828 260.514 79.4775C259.386 78.4723 258.114 77.3239 256.68 77.5466C255.732 77.6961 254.982 78.4087 254.108 78.7777C253.91 78.8619 253.707 78.9269 253.499 78.9717C254.239 76.9374 255.598 75.2507 257.342 74.2014C259.087 73.152 261.109 72.8055 263.06 73.2215C265.011 73.6374 266.77 74.7898 268.034 76.4806C269.299 78.1714 269.99 80.2951 269.989 82.4869C269.99 83.1487 269.927 83.8088 269.802 84.456C269.816 84.5005 269.83 84.5419 269.848 84.5864C270.182 85.5408 270.56 86.5206 270.892 87.3667L272.521 88.9955C272.521 88.9955 273.214 89.6317 274.252 90.5861C276.511 92.6856 280.413 96.3821 282.426 98.6439C284.197 100.642 284.751 108.384 284.919 114.216Z" fill="black" style="fill:black;fill-opacity:1;"/>
<path d="M254.007 72.9657C254.419 72.04 254.624 71.003 255.117 70.125C255.841 68.8525 257.104 68.0381 258.402 67.5451C261.792 66.2567 268.953 64.3862 271.094 67.5451C271.515 68.1813 271.864 68.8875 272.446 69.3265C272.891 69.6605 273.427 69.8037 273.915 70.055C275.279 70.7612 276.15 72.3009 276.614 73.8723C277.079 75.4438 277.217 77.1298 277.558 78.749C277.993 80.8263 278.757 82.7954 279.519 84.7518C280.416 87.0613 281.368 89.4567 283.098 91.0886C285.461 93.3154 285.983 96.4679 288.175 98.911C290.771 101.812 290.687 106.6 289.349 110.401C289.173 110.901 288.974 111.422 289.043 111.954C289.112 112.485 289.47 112.968 289.808 113.392L291.227 115.157C287.869 116.051 284.07 114.117 282.507 110.723C282.025 109.673 281.705 108.464 280.88 107.716C280.142 107.048 279.15 106.889 278.23 106.59C275.195 105.598 272.651 102.541 272.556 99.0542C272.51 97.4159 272.974 95.7776 272.764 94.1552C272.647 93.2291 272.314 92.3522 271.797 91.6103C271.004 90.4683 269.807 89.7016 269.161 88.4292C268.068 86.301 268.899 83.5366 268.111 81.2526C267.869 80.5527 267.384 79.8529 266.707 79.7988C266.029 79.7447 265.449 80.365 264.8 80.6418C263.45 81.2208 261.991 80.2378 260.863 79.2294C259.735 78.2209 258.463 77.0757 257.027 77.3016C256.078 77.4479 255.331 78.1605 254.457 78.5327C253.81 78.8063 252.501 79.0512 251.936 78.45C250.741 77.238 253.508 74.0982 254.007 72.9657Z" fill="#591D4B" style="fill:#591D4B;fill:color(display-p3 0.3490 0.1137 0.2941);fill-opacity:1;"/>
<path opacity="0.1" d="M283.309 109.673C282.824 108.623 282.507 107.414 281.682 106.67C280.944 106.002 279.952 105.839 279.029 105.54C275.997 104.551 273.453 101.494 273.355 98.0075C273.309 96.3692 273.773 94.7278 273.566 93.1054C273.445 92.1852 273.112 91.3144 272.599 90.5764C271.803 89.4343 270.606 88.6677 269.963 87.3952C268.87 85.2702 269.701 82.5058 268.91 80.2186C268.671 79.5219 268.183 78.8221 267.508 78.7648C266.833 78.7076 266.248 79.3343 265.602 79.611C264.252 80.19 262.79 79.2038 261.665 78.1986C260.54 77.1934 259.262 76.045 257.828 76.2676C256.879 76.4172 256.13 77.1297 255.258 77.4987C254.612 77.7723 253.3 78.0204 252.735 77.4192C251.546 76.1468 254.312 73.0133 254.809 71.8872C255.221 70.9583 255.426 69.9245 255.922 69.0465C255.948 68.9987 255.977 68.951 256.006 68.9033C255.634 69.2424 255.314 69.6439 255.057 70.0931C254.563 70.9711 254.359 72.0017 253.946 72.9338C253.447 74.0599 250.681 77.2029 251.872 78.4658C252.449 79.0702 253.747 78.8221 254.393 78.5485C255.258 78.1763 256.014 77.4637 256.963 77.3174C258.405 77.0916 259.674 78.2399 260.799 79.2452C261.924 80.2504 263.395 81.2366 264.739 80.6576C265.386 80.3808 265.951 79.7573 266.643 79.8146C267.335 79.8719 267.797 80.5685 268.048 81.2684C268.835 83.5524 268.005 86.3168 269.098 88.445C269.744 89.6952 270.941 90.4778 271.734 91.6262C272.25 92.368 272.583 93.2449 272.7 94.1711C272.911 95.7934 272.446 97.4317 272.493 99.07C272.588 102.569 275.132 105.614 278.166 106.606C279.081 106.905 280.079 107.064 280.817 107.732C281.645 108.48 281.971 109.689 282.444 110.738C284.007 114.133 287.806 116.067 291.163 115.173L290.494 114.339C287.584 114.387 284.639 112.561 283.309 109.673Z" fill="black" style="fill:black;fill-opacity:1;"/>
<path opacity="0.1" d="M263.424 95.1541C263.046 95.7904 261.965 99.0478 261.062 101.892C260.217 101.529 259.449 99.2164 259.449 99.2164L263.955 92.1479C264.416 92.8478 264.113 94.0089 263.424 95.1541Z" fill="black" style="fill:black;fill-opacity:1;"/>
<path d="M263.597 94.9632C263.219 95.5994 262.138 98.8569 261.235 101.701C260.39 101.341 259.623 99.0255 259.623 99.0255L264.128 91.9602C264.589 92.6569 264.287 93.8212 263.597 94.9632Z" fill="#DCE7FF" style="fill:#DCE7FF;fill:color(display-p3 0.8627 0.9059 1.0000);fill-opacity:1;"/>
<path d="M237.401 127.462L234.903 118.774C234.874 118.672 234.863 118.565 234.871 118.459C234.879 118.352 234.906 118.249 234.95 118.154C234.995 118.059 235.056 117.975 235.13 117.906C235.204 117.837 235.29 117.785 235.382 117.753C235.568 117.689 235.769 117.708 235.942 117.807C236.115 117.906 236.246 118.076 236.305 118.281L238.803 126.959L238.555 128.775L237.401 127.462Z" fill="#BE8B87" style="fill:#BE8B87;fill:color(display-p3 0.7451 0.5451 0.5294);fill-opacity:1;"/>
<path opacity="0.1" d="M235.14 118.01C235.326 117.945 235.528 117.965 235.702 118.064C235.875 118.163 236.006 118.333 236.066 118.539L238.564 127.217L238.376 128.578L238.558 128.788L238.806 126.972L236.294 118.294C236.234 118.089 236.104 117.919 235.931 117.82C235.758 117.721 235.557 117.702 235.371 117.766C235.214 117.821 235.079 117.933 234.987 118.084C235.036 118.055 235.087 118.03 235.14 118.01Z" fill="white" style="fill:white;fill-opacity:1;"/>
<path d="M237.401 127.462L238.803 126.972L238.598 128.46L238.555 128.788L238.146 128.317L237.401 127.462Z" fill="#EFC8C4" style="fill:#EFC8C4;fill:color(display-p3 0.9373 0.7843 0.7686);fill-opacity:1;"/>
<path d="M238.146 128.317C238.17 128.283 238.2 128.255 238.235 128.235C238.255 128.22 238.279 128.213 238.303 128.213C238.327 128.213 238.35 128.22 238.37 128.235C238.39 128.261 238.407 128.29 238.42 128.32C238.439 128.356 238.465 128.385 238.496 128.408C238.526 128.431 238.562 128.445 238.598 128.451L238.555 128.769L238.146 128.317Z" fill="#727A9C" style="fill:#727A9C;fill:color(display-p3 0.4471 0.4784 0.6118);fill-opacity:1;"/>
<path d="M234.889 121.86C234.889 121.86 239.899 121.828 238.719 124.179C237.54 126.53 235.697 126.813 235.697 126.813L234.889 121.86Z" fill="#FFB0B1" style="fill:#FFB0B1;fill:color(display-p3 1.0000 0.6902 0.6941);fill-opacity:1;"/>
<path d="M203.729 16.3574H203.513C194.906 16.3574 187.294 21.3804 182.915 28.7925C178.537 21.3804 170.925 16.3574 162.318 16.3574H162.102C155.642 16.4253 149.468 19.3019 144.921 24.362C140.374 29.4222 137.822 36.257 137.818 43.3811C137.818 52.2279 141.331 64.7806 148.182 75.1098C161.233 94.7914 182.915 112.011 182.915 112.011C182.915 112.011 204.597 94.7946 217.646 75.1098C224.499 64.7806 228.01 52.2279 228.01 43.3811C228.006 36.2575 225.454 29.4232 220.908 24.3631C216.361 19.3031 210.188 16.4261 203.729 16.3574ZM200.634 76.624C199.654 76.6199 198.698 76.289 197.891 75.6747C197.084 75.0604 196.465 74.1915 196.114 73.182H190.969C190.63 73.1797 190.3 73.0607 190.025 72.8417C189.751 72.6227 189.545 72.3146 189.437 71.9604L187.856 66.7084L182.855 85.9829C182.757 86.3539 182.553 86.6801 182.274 86.9124C181.994 87.1447 181.653 87.2706 181.303 87.2712H181.202C180.837 87.2518 180.488 87.0946 180.215 86.8259C179.942 86.5573 179.761 86.1934 179.702 85.7952L174.548 51.6044L170.781 71.8364C170.694 72.2207 170.494 72.5621 170.211 72.806C169.928 73.0499 169.579 73.1823 169.22 73.182H161.972C161.755 73.1921 161.538 73.1537 161.334 73.069C161.131 72.9843 160.945 72.855 160.788 72.6891C160.631 72.5231 160.506 72.3238 160.421 72.1032C160.335 71.8826 160.291 71.6452 160.291 71.4053C160.291 71.1655 160.335 70.9281 160.421 70.7075C160.506 70.4869 160.631 70.2876 160.788 70.1216C160.945 69.9556 161.131 69.8264 161.334 69.7417C161.538 69.657 161.755 69.6185 161.972 69.6287H167.951L173.287 42.4268C173.375 42.0246 173.586 41.6685 173.886 41.4193C174.185 41.1701 174.554 41.0433 174.928 41.0606C175.303 41.0779 175.661 41.2382 175.94 41.5141C176.219 41.7899 176.403 42.1643 176.46 42.5731L181.724 77.4511L186.206 60.2062C186.3 59.843 186.497 59.5228 186.769 59.2935C187.041 59.0641 187.373 58.9379 187.715 58.9337H187.747C188.086 58.9338 188.416 59.052 188.69 59.2713C188.965 59.4907 189.17 59.8 189.275 60.1553L192.134 69.6382H196.051C196.329 68.7051 196.836 67.8749 197.515 67.2394C198.195 66.6039 199.02 66.1877 199.9 66.0368C200.78 65.8859 201.681 66.0062 202.503 66.3843C203.325 66.7624 204.037 67.3837 204.559 68.1795C205.081 68.9754 205.394 69.9149 205.463 70.8944C205.531 71.8739 205.353 72.8552 204.948 73.7301C204.543 74.605 203.926 75.3394 203.167 75.8524C202.407 76.3653 201.534 76.6367 200.643 76.6367L200.634 76.624Z" fill="#41C1BA" style="fill:#41C1BA;fill:color(display-p3 0.2549 0.7569 0.7294);fill-opacity:1;"/>
</g>
<defs>
<linearGradient id="paint0_linear_273_168" x1="102.911" y1="246.496" x2="102.911" y2="50.7486" gradientUnits="userSpaceOnUse">
<stop stop-color="#808080" stop-opacity="0.25" style="stop-color:#808080;stop-color:color(display-p3 0.5020 0.5020 0.5020);stop-opacity:0.25;"/>
<stop offset="0.54" stop-color="#808080" stop-opacity="0.12" style="stop-color:#808080;stop-color:color(display-p3 0.5020 0.5020 0.5020);stop-opacity:0.12;"/>
<stop offset="1" stop-color="#808080" stop-opacity="0.1" style="stop-color:#808080;stop-color:color(display-p3 0.5020 0.5020 0.5020);stop-opacity:0.1;"/>
</linearGradient>
<linearGradient id="paint1_linear_273_168" x1="257.831" y1="244.022" x2="257.831" y2="65.2419" gradientUnits="userSpaceOnUse">
<stop stop-color="#808080" stop-opacity="0.25" style="stop-color:#808080;stop-color:color(display-p3 0.5020 0.5020 0.5020);stop-opacity:0.25;"/>
<stop offset="0.54" stop-color="#808080" stop-opacity="0.12" style="stop-color:#808080;stop-color:color(display-p3 0.5020 0.5020 0.5020);stop-opacity:0.12;"/>
<stop offset="1" stop-color="#808080" stop-opacity="0.1" style="stop-color:#808080;stop-color:color(display-p3 0.5020 0.5020 0.5020);stop-opacity:0.1;"/>
</linearGradient>
<clipPath id="clip0_273_168">
<rect width="318.735" height="249" fill="white" style="fill:white;fill-opacity:1;" transform="translate(0.132324)"/>
</clipPath>
</defs>
</svg>
