<svg width="321" height="319" viewBox="0 0 321 319" fill="none" xmlns="http://www.w3.org/2000/svg">
<g clip-path="url(#clip0_282_43)">
<rect x="7" y="10" width="313" height="303" fill="white" style="fill:white;fill-opacity:1;"/>
<path d="M182.798 282.212C180.585 278.381 177.59 275.578 173.824 274.528C170.541 273.614 167.164 273.77 163.826 273.801L121.619 274.204C118.004 274.238 114.539 278.11 114.707 282.751C114.873 287.352 117.745 291.335 121.619 291.298C133.983 291.18 146.347 291.062 158.71 290.944C161.625 290.916 164.541 290.851 167.456 290.863C168.111 290.866 168.763 290.908 169.417 290.917C169.575 290.92 169.69 290.918 169.77 290.914C169.791 290.921 169.808 290.928 169.834 290.937C170.175 291.053 170.525 291.133 170.868 291.243C170.748 291.247 171.091 291.512 171.263 291.601C171.287 291.659 171.337 291.761 171.421 291.919C171.539 292.192 171.887 293.019 171.901 292.993C172.424 294.627 172.855 296.303 173.191 298.01C173.995 301.775 174.171 302.562 174.287 306.094C174.433 310.555 177.362 314.853 181.199 314.641C184.819 314.44 188.269 310.879 188.112 306.094C187.848 298.031 186.703 288.973 182.798 282.212Z" fill="#E6E6E6" style="fill:#E6E6E6;fill:color(display-p3 0.9020 0.9020 0.9020);fill-opacity:1;"/>
<path d="M124.1 301.499C123.308 295.559 122.53 289.615 121.722 283.679C120.902 277.656 119.227 272.141 115.437 268.189C114.424 267.133 113.374 266.147 112.319 265.164C111.948 264.818 111.578 264.472 111.212 264.119C111.19 264.098 111.176 264.085 111.157 264.066C111.116 264.024 111.068 263.973 111.003 263.905C109.423 262.252 107.897 260.525 106.443 258.689C105.151 257.059 103.917 255.36 102.738 253.591C102.444 253.149 102.153 252.703 101.866 252.253C101.817 252.176 101.551 251.751 101.376 251.474C101.213 251.197 100.915 250.696 100.865 250.608C100.53 250.022 100.201 249.431 99.8776 248.834C97.6759 244.755 95.7694 240.444 94.1803 235.952C94.0227 235.506 93.8688 235.058 93.7187 234.607C93.6784 234.47 93.6263 234.293 93.5571 234.058C93.2369 232.969 92.9173 231.881 92.6245 230.779C92.0024 228.439 91.4675 226.065 91.0199 223.656C90.7986 222.466 90.5994 221.27 90.4223 220.069C90.331 219.451 90.2455 218.831 90.166 218.211C90.1529 218.108 90.0753 217.438 90.0295 217.06C89.9958 216.68 89.9329 216.007 89.9244 215.903C89.8738 215.277 89.8289 214.651 89.7897 214.024C89.7013 212.614 89.6415 211.202 89.6104 209.787C89.5572 207.272 89.5936 204.757 89.7196 202.243C89.7914 200.83 89.8935 199.421 90.0192 198.015C90.0268 197.928 90.0327 197.86 90.0382 197.798C90.0458 197.735 90.0546 197.664 90.0652 197.575C90.1582 196.798 90.2561 196.021 90.3656 195.248C90.7802 192.31 91.3195 189.401 91.9811 186.533C92.2944 185.177 92.6346 183.832 93.0019 182.497C93.1656 181.905 93.3345 181.315 93.5086 180.727C93.4972 180.765 94.0193 179.116 94.0263 179.061C96.0979 173.009 99.4863 167.492 99.4909 160.617C99.4941 155.963 96.3093 151.504 92.5783 151.719C90.7181 151.806 88.9578 152.782 87.6683 154.442C86.3788 156.102 85.6608 158.316 85.6657 160.617C85.6657 160.722 85.6653 160.811 85.6651 160.898C85.6303 161.043 85.6011 161.164 85.575 161.27C85.171 162.356 84.6761 163.387 84.2327 164.446C83.0184 167.343 81.982 170.335 80.9974 173.371C79.3857 178.315 78.152 183.435 77.3125 188.664C75.4877 200.12 75.3461 211.889 76.8943 223.407C79.5745 243.606 88.4132 262.941 100.701 275.938C101.767 277.066 102.86 278.156 103.962 279.224C104.419 279.666 104.879 280.099 105.341 280.53C105.56 280.734 106.465 281.617 106.067 281.189C106.923 282.093 107.284 282.548 107.504 283.213C107.536 283.367 107.579 283.575 107.638 283.86C107.793 284.611 107.94 285.36 108.063 286.121C109.132 292.773 109.876 299.535 110.769 306.23C111.383 310.829 115.963 313.823 119.272 312.444C123.125 310.84 124.758 306.427 124.1 301.499Z" fill="#E6E6E6" style="fill:#E6E6E6;fill:color(display-p3 0.9020 0.9020 0.9020);fill-opacity:1;"/>
<path d="M183.497 318.75C180.594 318.76 177.807 317.345 175.746 314.816C173.686 312.288 172.521 308.852 172.506 305.262V295.513C164.251 296.655 135.981 296.391 127.877 294.781V304.872C127.855 308.459 126.688 311.89 124.629 314.416C122.57 316.943 119.787 318.361 116.886 318.361C113.985 318.361 111.202 316.943 109.143 314.416C107.084 311.89 105.916 308.459 105.895 304.872V285.059C94.9191 277.52 85.7694 266.496 79.3898 253.126C73.0102 239.755 69.6319 224.521 69.6035 208.998C69.6035 182.379 79.3602 157.548 96.3721 140.871C107.433 129.992 120.872 123.448 134.963 122.082C136.875 121.897 138.8 121.803 140.682 121.803C147.315 121.803 177.241 123.07 184.749 125.741L201.87 104.736C202.122 104.423 202.443 104.21 202.793 104.123C203.143 104.037 203.506 104.082 203.836 104.252C204.168 104.415 204.452 104.698 204.652 105.065C204.851 105.432 204.956 105.865 204.952 106.306V109.646L208.286 105.564C208.537 105.25 208.859 105.037 209.208 104.951C209.558 104.864 209.921 104.909 210.25 105.079C210.583 105.242 210.867 105.526 211.067 105.892C211.266 106.259 211.371 106.692 211.368 107.134V144.455C219.959 154.031 226.507 166.079 230.431 179.532C234.356 192.985 235.536 207.427 233.866 221.579C232.197 235.73 227.73 249.154 220.861 260.661C213.992 272.167 204.934 281.401 194.488 287.544V305.262C194.474 308.852 193.309 312.288 191.249 314.816C189.188 317.345 186.401 318.76 183.497 318.75ZM173.37 294.301V305.262C173.392 308.566 174.469 311.724 176.366 314.05C178.262 316.377 180.826 317.682 183.497 317.682C186.169 317.682 188.732 316.377 190.629 314.05C192.526 311.724 193.603 308.566 193.624 305.262V286.869L193.871 286.724C205.591 279.848 215.541 269.09 222.615 255.645C231.629 238.488 235.378 217.907 233.183 197.629C230.988 177.35 222.994 158.713 210.648 145.091L210.504 144.931V107.134C210.507 106.905 210.453 106.679 210.35 106.489C210.246 106.298 210.098 106.151 209.925 106.068C209.752 105.977 209.562 105.953 209.378 105.998C209.195 106.043 209.027 106.156 208.896 106.321L204.088 112.208V106.306C204.091 106.077 204.038 105.851 203.934 105.661C203.83 105.47 203.682 105.323 203.509 105.24C203.336 105.149 203.145 105.125 202.962 105.171C202.778 105.216 202.609 105.329 202.478 105.495L184.991 126.95L184.742 126.853C177.762 124.152 147.366 122.871 140.682 122.871C138.822 122.871 136.92 122.964 135.031 123.148C121.111 124.497 107.835 130.961 96.909 141.708C80.105 158.181 70.4675 182.707 70.4675 208.998C70.4962 224.384 73.8565 239.48 80.1992 252.719C86.5419 265.957 95.6357 276.853 106.536 284.277L106.759 284.43V304.872C106.781 308.175 107.858 311.333 109.755 313.659C111.651 315.985 114.215 317.29 116.886 317.29C119.557 317.29 122.12 315.985 124.017 313.659C125.914 311.333 126.991 308.175 127.013 304.872V293.502L127.525 293.621C134.807 295.315 165.471 295.582 172.882 294.38L173.37 294.301Z" fill="#2A4755" style="fill:#2A4755;fill:color(display-p3 0.1647 0.2784 0.3333);fill-opacity:1;"/>
<path d="M124.926 63.6304L77.0821 81.4079C75.5603 81.9756 74.2831 83.267 73.5309 84.9984C72.7787 86.7297 72.6132 88.7594 73.0706 90.6416C73.5281 92.5238 74.5711 94.1044 75.9705 95.0364C77.37 95.9683 79.0114 96.1753 80.5342 95.6118L122.403 80.0511L123.28 79.7252C123.457 74.1369 124.684 68.6762 126.862 63.7746C126.588 63.6225 126.296 63.5286 125.997 63.4968C125.637 63.4536 125.273 63.499 124.926 63.6304Z" fill="#41C1BA" style="fill:#41C1BA;fill:color(display-p3 0.2549 0.7569 0.7294);fill-opacity:1;"/>
<path d="M79.7067 99.402C79.0716 99.4 78.4531 99.1514 77.9385 98.6912C77.4239 98.2309 77.0392 97.5824 76.839 96.8372L73.8472 85.6749C73.7222 85.2088 73.6727 84.7168 73.7016 84.227C73.7304 83.7372 73.837 83.2593 74.0153 82.8204C74.1936 82.3816 74.44 81.9905 74.7405 81.6694C75.0411 81.3483 75.3898 81.1036 75.7668 80.9492L114.707 64.9931C115.084 64.8386 115.482 64.7775 115.878 64.8131C116.274 64.8487 116.661 64.9804 117.015 65.2008C117.37 65.4211 117.687 65.7257 117.946 66.0972C118.206 66.4687 118.404 66.8998 118.529 67.3659L121.521 78.5282C121.77 79.4463 121.72 80.4481 121.382 81.3215C121.044 82.1949 120.444 82.8712 119.709 83.2072C119.673 83.2239 119.637 83.2397 119.6 83.2544L80.6611 99.21C80.3533 99.3368 80.0311 99.4016 79.7067 99.402Z" fill="#2A4755" style="fill:#2A4755;fill:color(display-p3 0.1647 0.2784 0.3333);fill-opacity:1;"/>
<path d="M152.633 43.8071C144.773 43.8109 137.224 47.5956 131.582 54.3603C125.939 61.125 122.648 70.3387 122.403 80.0513C122.394 80.4306 122.39 80.8152 122.39 81.1999C122.39 88.5954 124.164 95.8249 127.487 101.974C130.81 108.123 135.533 112.916 141.059 115.746C146.585 118.576 152.666 119.317 158.533 117.874C164.399 116.431 169.788 112.87 174.017 107.64C178.247 102.411 181.127 95.7483 182.294 88.4948C183.461 81.2413 182.862 73.7229 180.573 66.8903C178.284 60.0577 174.408 54.2177 169.434 50.1089C164.461 46.0002 158.614 43.8071 152.633 43.8071ZM152.633 117.524C144.843 117.514 137.376 113.684 131.868 106.874C126.36 100.064 123.262 90.8306 123.254 81.1999C123.254 80.7031 123.263 80.2116 123.28 79.7255C123.514 72.6101 125.434 65.7367 128.802 59.9599C132.17 54.1832 136.838 49.758 142.223 47.2346C147.609 44.7111 153.476 44.2008 159.095 45.7671C164.713 47.3333 169.836 50.9071 173.825 56.0439C177.814 61.1807 180.493 67.654 181.531 74.6588C182.568 81.6637 181.917 88.891 179.659 95.4421C177.401 101.993 173.635 107.579 168.83 111.505C164.025 115.431 158.392 117.524 152.633 117.524Z" fill="#2A4755" style="fill:#2A4755;fill:color(display-p3 0.1647 0.2784 0.3333);fill-opacity:1;"/>
<path d="M178.123 81.1997C178.123 89.5585 175.437 97.5749 170.657 103.485C165.877 109.396 159.393 112.716 152.633 112.716C145.872 112.716 139.389 109.396 134.608 103.485C129.828 97.5749 127.142 89.5585 127.142 81.1997C127.142 80.2008 127.181 79.2179 127.255 78.2457C127.869 70.1786 130.972 62.714 135.921 57.4017C140.869 52.0894 147.282 49.3377 153.828 49.7178C160.375 50.098 166.551 53.5808 171.075 59.4432C175.599 65.3055 178.123 73.097 178.123 81.1997Z" fill="#E6E6E6" style="fill:#E6E6E6;fill:color(display-p3 0.9020 0.9020 0.9020);fill-opacity:1;"/>
<path d="M160.223 83.2935C159.606 82.2891 158.793 81.4935 157.86 80.9805C156.71 80.3812 155.522 79.8988 154.309 79.5382V70.9592C156.174 71.307 157.924 72.2932 159.359 73.8064L160.768 70.0939C159.958 69.2016 159.028 68.4911 158.02 67.9945C156.903 67.4353 155.73 67.0634 154.534 66.8888V62.5405H151.272V66.9315C150.012 67.1064 148.797 67.6108 147.707 68.4112C146.723 69.1316 145.894 70.136 145.292 71.3385C144.718 72.5121 144.42 73.8609 144.433 75.2327C144.376 76.7192 144.725 78.1862 145.422 79.3993C146.064 80.4496 146.911 81.2806 147.884 81.8138C149.053 82.4308 150.261 82.9258 151.496 83.2935V91.5146C149.295 91.3093 147.198 90.2745 145.487 88.5498L144.078 92.2677C145.035 93.2457 146.123 94.0086 147.293 94.522C148.574 95.0891 149.914 95.4343 151.272 95.5476V99.8585H154.534V95.4675C156.345 95.2227 158.044 94.2595 159.377 92.7218C159.963 92.0261 160.427 91.1873 160.738 90.2586C161.049 89.3299 161.2 88.3315 161.183 87.3266C161.237 85.8874 160.899 84.4673 160.223 83.2935ZM151.496 78.6301C150.702 78.3322 149.963 77.8419 149.323 77.1878C149.07 76.9089 148.869 76.564 148.736 76.1779C148.603 75.7919 148.541 75.3742 148.554 74.9549C148.531 74.0035 148.813 73.0794 149.34 72.3855C149.925 71.6575 150.679 71.1738 151.496 71.002V78.6301ZM156.357 89.9975C155.806 90.6964 155.088 91.1587 154.309 91.3169V84.2443C155.054 84.4914 155.75 84.922 156.357 85.5103C156.587 85.7532 156.77 86.057 156.891 86.3992C157.013 86.7414 157.071 87.1131 157.061 87.4868C157.091 88.4036 156.839 89.3005 156.357 89.9975Z" fill="#41C1BA" style="fill:#41C1BA;fill:color(display-p3 0.2549 0.7569 0.7294);fill-opacity:1;"/>
<path d="M81.0952 144.641C80.4273 144.64 79.7785 144.366 79.2493 143.862C78.72 143.359 78.34 142.653 78.1681 141.855L76.5393 134.232C76.3354 133.274 76.4472 132.255 76.8502 131.399C77.2531 130.543 77.9143 129.919 78.6887 129.664L130.076 112.875C130.851 112.625 131.675 112.765 132.367 113.264C133.06 113.763 133.564 114.581 133.77 115.538L135.15 121.997L134.891 122.021C121.712 123.288 109.102 129.196 98.5537 139.046L98.4787 139.091L81.8625 144.518C81.6121 144.6 81.3542 144.641 81.0952 144.641Z" fill="#2A4755" style="fill:#2A4755;fill:color(display-p3 0.1647 0.2784 0.3333);fill-opacity:1;"/>
<path d="M72.5846 182.294C66.5567 181.193 60.7916 178.497 55.6824 174.392C53.1511 172.36 50.8079 169.99 48.6946 167.326C46.6088 164.695 44.6134 161.705 43.5802 158.202C42.5862 154.961 42.6374 151.372 43.7233 148.176C44.7944 145 46.8404 142.479 49.4127 141.165C52.0005 139.889 55.127 139.752 57.6454 141.15C58.8455 141.8 59.884 142.834 60.6543 144.144C61.0123 144.748 61.2774 145.429 61.4364 146.152C61.5839 146.807 61.5973 147.497 61.4754 148.16C61.3277 148.822 61.0673 149.437 60.7116 149.964C60.3559 150.491 59.9131 150.919 59.4129 151.217C58.3122 151.915 57.1195 152.365 55.8909 152.545C54.6552 152.753 52.8802 152.943 51.8868 151.716C51.6823 151.474 51.5214 151.181 51.4147 150.856C51.3401 150.607 51.3145 150.34 51.3402 150.077C51.3258 150.193 51.4002 149.825 51.3959 149.839C51.3802 149.894 51.3122 150.027 51.4089 149.823C51.4391 149.756 51.4728 149.691 51.5096 149.629C51.4768 149.681 51.4047 149.769 51.5334 149.619C51.6398 149.475 51.7766 149.37 51.9284 149.317C51.9882 149.296 52.0489 149.278 52.1089 149.258C52.2613 149.207 51.957 149.261 52.1129 149.255C52.1731 149.252 52.2339 149.254 52.2939 149.251C52.4469 149.242 52.143 149.199 52.2896 149.245C52.3465 149.263 52.4029 149.28 52.459 149.302C52.5808 149.349 52.3727 149.191 52.4552 149.309C52.552 149.448 52.3536 149.175 52.4636 149.309C52.5184 149.375 52.57 149.446 52.6181 149.519C52.8089 149.752 53.0662 149.883 53.3343 149.883C53.6023 149.883 53.8596 149.752 54.0504 149.519C54.2346 149.281 54.3375 148.964 54.3375 148.634C54.3375 148.304 54.2346 147.987 54.0504 147.749C53.0517 146.218 51.0792 146.596 50.069 147.89C48.7807 149.54 49.2909 152.154 50.544 153.594C51.9627 155.224 53.972 155.337 55.7969 155.063C57.3392 154.881 58.8421 154.356 60.2336 153.513C61.6162 152.673 62.6975 151.229 63.2682 149.46C63.5259 148.516 63.6184 147.515 63.5398 146.523C63.4611 145.531 63.2129 144.572 62.8118 143.707C61.2006 139.962 57.8643 138.042 54.5666 137.709C52.8688 137.545 51.1615 137.798 49.5434 138.455C47.9254 139.112 46.4287 140.159 45.1401 141.536C42.6563 144.3 41.1268 148.139 40.868 152.259C40.5802 156.531 41.9205 160.679 43.8747 164.126C45.9204 167.628 48.3617 170.75 51.124 173.395C56.5242 178.726 62.8587 182.42 69.6204 184.181C70.4247 184.386 71.2333 184.562 72.0462 184.709C72.3049 184.786 72.5777 184.739 72.8091 184.576C73.0406 184.414 73.2132 184.148 73.292 183.834C73.3614 183.514 73.3261 183.173 73.1937 182.885C73.0614 182.596 72.8426 182.384 72.5846 182.294Z" fill="#2A4755" style="fill:#2A4755;fill:color(display-p3 0.1647 0.2784 0.3333);fill-opacity:1;"/>
<path d="M169.096 127.873C160.264 127.719 151.46 127.996 142.684 128.705C139.684 128.947 137.089 130.258 137.089 132.461C137.089 134.303 139.663 136.461 142.684 136.217C151.455 135.509 160.259 135.232 169.096 135.386C176.299 135.512 176.295 127.999 169.096 127.873Z" fill="#CCCCCC" style="fill:#CCCCCC;fill:color(display-p3 0.8000 0.8000 0.8000);fill-opacity:1;"/>
<path d="M156.042 135.014C155.088 135.014 132.666 134.97 132.666 131.141C132.666 127.312 155.088 127.268 156.042 127.268C156.996 127.268 179.418 127.312 179.418 131.141C179.418 134.97 156.996 135.014 156.042 135.014ZM133.543 131.141C134.157 132.302 142.398 133.946 156.042 133.946C169.686 133.946 177.927 132.302 178.541 131.141C177.927 129.98 169.686 128.336 156.042 128.336C142.398 128.336 134.157 129.98 133.543 131.141Z" fill="#2A4755" style="fill:#2A4755;fill:color(display-p3 0.1647 0.2784 0.3333);fill-opacity:1;"/>
<path d="M227.179 235.681C232.142 235.51 238.319 235.297 243.078 230.999C244.495 229.667 245.66 227.967 246.49 226.02C247.319 224.073 247.795 221.925 247.883 219.726C247.98 216.332 246.988 213.368 245.09 211.385C242.604 208.788 238.975 208.179 235.063 209.601L239.116 172.983L236.141 172.479L231.377 215.528L233.861 214.118C236.741 212.485 240.695 211.654 243.151 214.22C243.755 214.892 244.225 215.726 244.525 216.658C244.825 217.59 244.947 218.595 244.882 219.595C244.809 221.232 244.452 222.829 243.835 224.28C243.218 225.73 242.356 226.999 241.307 228.001C237.604 231.345 232.68 231.777 227.095 231.97L227.179 235.681Z" fill="#2A4755" style="fill:#2A4755;fill:color(display-p3 0.1647 0.2784 0.3333);fill-opacity:1;"/>
<path d="M218.954 176.142H202.781V179.854H218.954V176.142Z" fill="#2A4755" style="fill:#2A4755;fill:color(display-p3 0.1647 0.2784 0.3333);fill-opacity:1;"/>
<path d="M88.4134 161.717C87.6936 161.714 86.9981 161.394 86.4515 160.815C85.9049 160.236 85.543 159.435 85.4306 158.556L84.4435 150.767C84.3202 149.787 84.5162 148.787 84.9886 147.986C85.461 147.185 86.1711 146.648 86.9632 146.494L139.469 136.321C140.262 136.169 141.071 136.411 141.718 136.995C142.366 137.579 142.8 138.457 142.925 139.437L143.912 147.226C144.036 148.206 143.84 149.206 143.367 150.007C142.895 150.808 142.185 151.345 141.393 151.499L88.8866 161.671C88.73 161.702 88.5719 161.717 88.4134 161.717Z" fill="#2A4755" style="fill:#2A4755;fill:color(display-p3 0.1647 0.2784 0.3333);fill-opacity:1;"/>
<path d="M66.6836 70.4343C78.8526 70.4343 88.7175 58.2371 88.7175 43.191C88.7175 28.145 78.8526 15.9478 66.6836 15.9478C54.5146 15.9478 44.6497 28.145 44.6497 43.191C44.6497 58.2371 54.5146 70.4343 66.6836 70.4343Z" fill="#41C1BA" style="fill:#41C1BA;fill:color(display-p3 0.2549 0.7569 0.7294);fill-opacity:1;"/>
<path d="M79.1589 50.2403C79.8631 49.9357 80.5064 49.4483 81.0456 48.8107C81.4023 48.3562 81.6743 47.8107 81.8426 47.2124C82.0109 46.6142 82.0713 45.9778 82.0197 45.3476C81.9898 44.8985 81.8762 44.464 81.6879 44.0781C81.4997 43.6923 81.2418 43.3654 80.9344 43.1232C80.137 42.5169 79.0833 42.5398 78.0195 43.1496L77.8967 32.5151L77.0327 32.5303L77.1771 45.0322L77.8347 44.4989C78.5974 43.8814 79.6933 43.4337 80.4817 44.0333C80.6767 44.192 80.8394 44.4042 80.9573 44.6534C81.0752 44.9026 81.1449 45.182 81.1612 45.47C81.1976 45.9394 81.1517 46.4131 81.0268 46.8586C80.9018 47.3042 80.7007 47.7112 80.437 48.052C79.5004 49.2011 78.114 49.5862 76.5317 49.9383L76.6849 50.9897C77.526 50.8317 78.354 50.5809 79.1589 50.2403Z" fill="#2A4755" style="fill:#2A4755;fill:color(display-p3 0.1647 0.2784 0.3333);fill-opacity:1;"/>
<path d="M86.7939 31.7688L82.1926 32.6304L82.322 33.6866L86.9233 32.825L86.7939 31.7688Z" fill="#2A4755" style="fill:#2A4755;fill:color(display-p3 0.1647 0.2784 0.3333);fill-opacity:1;"/>
<path d="M72.2702 34.4875L67.6689 35.3491L67.7983 36.4053L72.3996 35.5437L72.2702 34.4875Z" fill="#2A4755" style="fill:#2A4755;fill:color(display-p3 0.1647 0.2784 0.3333);fill-opacity:1;"/>
<path d="M81.2446 161.241C80.4522 161.239 79.679 160.938 79.0281 160.38C78.3771 159.821 77.8792 159.03 77.6006 158.113L62.4088 107.81C60.552 101.64 60.7502 94.8123 62.9601 88.8234C65.17 82.8346 69.211 78.1741 74.1966 75.8646L86.5493 70.1615C87.0269 69.9395 87.5354 69.8365 88.0454 69.8583C88.5554 69.8802 89.0568 70.0266 89.5209 70.2891C89.9838 70.5448 90.4008 70.912 90.7477 71.3693C91.0945 71.8266 91.3641 72.3648 91.5408 72.9524L119.682 138.648C119.865 139.241 119.951 139.872 119.936 140.505C119.92 141.139 119.804 141.763 119.593 142.341C119.382 142.919 119.08 143.439 118.706 143.872C118.331 144.305 117.891 144.643 117.411 144.865L82.6035 160.935C82.1689 161.137 81.7087 161.24 81.2446 161.241Z" fill="#2A4755" style="fill:#2A4755;fill:color(display-p3 0.1647 0.2784 0.3333);fill-opacity:1;"/>
<path d="M82.8015 71.8915L110.724 118.059L91.83 72.3761C91.6739 71.8431 91.4345 71.3533 91.1253 70.9347C90.8162 70.5161 90.4433 70.177 90.0281 69.9366C89.6129 69.6962 89.1635 69.5593 88.7055 69.5337C88.2475 69.5081 87.7899 69.5943 87.3588 69.7875L82.8015 71.8915Z" fill="#E6E6E6" style="fill:#E6E6E6;fill:color(display-p3 0.9020 0.9020 0.9020);fill-opacity:1;"/>
<path d="M127.013 106.953L77.1576 102.982C76.3718 102.919 75.6036 102.666 74.897 102.236C74.1903 101.807 73.5591 101.209 73.0392 100.478C72.5193 99.7466 72.121 98.8958 71.867 97.9742C71.6131 97.0526 71.5084 96.0782 71.559 95.1065C71.6096 94.1349 71.8145 93.1851 72.162 92.3114C72.5095 91.4377 72.9928 90.6572 73.5842 90.0144C74.1757 89.3716 74.8638 88.8791 75.6092 88.5651C76.3546 88.2511 77.1427 88.1217 77.9285 88.1843L127.784 92.1546C128.152 92.1839 128.511 92.3025 128.842 92.5037C129.173 92.7049 129.469 92.9847 129.712 93.3272C129.956 93.6696 130.142 94.0681 130.261 94.4997C130.38 94.9313 130.429 95.3876 130.406 95.8427L129.996 103.711C129.948 104.63 129.607 105.487 129.047 106.095C128.488 106.703 127.756 107.012 127.013 106.953Z" fill="#41C1BA" style="fill:#41C1BA;fill:color(display-p3 0.2549 0.7569 0.7294);fill-opacity:1;"/>
<path d="M113.691 109.498C113.625 109.498 113.559 109.495 113.493 109.49L72.5545 106.23C72.1582 106.198 71.7708 106.071 71.4144 105.854C71.058 105.637 70.7395 105.336 70.4773 104.967C70.2151 104.598 70.0143 104.169 69.8862 103.704C69.7581 103.24 69.7053 102.748 69.7309 102.258L70.4309 88.819C70.4565 88.329 70.5598 87.85 70.7351 87.4093C70.9104 86.9687 71.1541 86.575 71.4524 86.2508C71.7508 85.9267 72.0978 85.6783 72.4738 85.52C72.8497 85.3617 73.2472 85.2965 73.6435 85.3281L114.582 88.5882C115.382 88.653 116.128 89.1076 116.658 89.8521C117.187 90.5967 117.456 91.5705 117.405 92.5599L116.705 105.999C116.667 106.719 116.461 107.41 116.113 107.989C115.764 108.568 115.288 109.011 114.741 109.263C114.405 109.419 114.05 109.498 113.691 109.498Z" fill="#2A4755" style="fill:#2A4755;fill:color(display-p3 0.1647 0.2784 0.3333);fill-opacity:1;"/>
<path d="M66.4311 25.0747C69.3297 21.9923 73.3102 24.7498 76.6344 24.2671C79.8147 23.8052 82.3259 20.278 82.9675 16.5308C83.7159 12.1591 81.8807 7.77924 79.1756 5.05354C76.2129 2.06822 72.2837 1.21121 68.5603 1.76352C64.2927 2.39652 60.3899 4.85608 56.8879 7.83104C53.5076 10.6137 50.3991 13.8705 47.6243 17.5367C45.1396 20.9296 43.0344 24.9739 42.3622 29.5396C41.7513 33.6889 42.2177 38.2868 44.2016 41.8018C45.2535 43.6034 46.6633 45.0394 48.2948 45.9713C49.9959 47.0041 51.8105 47.7424 53.4586 48.9102C55.9505 50.6758 58.3724 54.3368 57.5918 58.1467C57.4244 58.9789 57.0942 59.7476 56.6301 60.3849C56.0725 61.1502 55.0667 60.1389 55.6257 59.3715C56.6077 58.0237 56.569 56.2263 56.0457 54.6172C55.4234 52.8039 54.3215 51.3058 52.9206 50.3681C51.1954 49.1486 49.2908 48.3959 47.5227 47.2851C45.8303 46.2704 44.3612 44.7651 43.2406 42.8974C41.1243 39.2612 40.4913 34.529 40.9713 30.1513C41.4907 25.4139 43.4593 21.1091 45.927 17.5016C48.6127 13.5757 51.9116 10.2525 55.2817 7.26704C58.8979 4.06363 62.8931 1.35537 67.314 0.375839C71.1463 -0.473264 75.3001 0.0494978 78.6513 2.63165C81.7793 5.04193 84.178 9.18808 84.4166 13.821C84.5022 15.929 84.1321 18.0271 83.3441 19.8994C82.5562 21.7717 81.379 23.3507 79.9337 24.4737C78.4506 25.571 76.7263 26.0649 75.0041 25.8857C73.1629 25.74 71.32 25.0429 69.4671 25.2364C68.6286 25.2993 67.8296 25.6985 67.1911 26.3734C66.5577 27.0469 65.803 25.7427 66.4311 25.0747Z" fill="#2A4755" style="fill:#2A4755;fill:color(display-p3 0.1647 0.2784 0.3333);fill-opacity:1;"/>
<path d="M319.986 319H1.0144C0.878223 319 0.747764 318.932 0.651613 318.813C0.555462 318.694 0.501465 318.532 0.501465 318.364C0.501465 318.196 0.555462 318.034 0.651613 317.915C0.747764 317.796 0.878223 317.729 1.0144 317.728H319.986C320.122 317.728 320.253 317.795 320.349 317.914C320.446 318.034 320.5 318.195 320.5 318.364C320.5 318.533 320.446 318.695 320.349 318.814C320.253 318.933 320.122 319 319.986 319Z" fill="#2A4755" style="fill:#2A4755;fill:color(display-p3 0.1647 0.2784 0.3333);fill-opacity:1;"/>
</g>
<defs>
<clipPath id="clip0_282_43">
<rect width="320" height="319" fill="white" style="fill:white;fill-opacity:1;" transform="translate(0.5)"/>
</clipPath>
</defs>
</svg>
