<svg width="317" height="205" viewBox="0 0 317 205" fill="none" xmlns="http://www.w3.org/2000/svg">
<g clip-path="url(#clip0_297_56)">
<rect x="7" y="2" width="286" height="202" fill="white" style="fill:white;fill-opacity:1;"/>
<path d="M291.017 115.856C298.841 115.856 305.184 106.827 305.184 95.6892C305.184 84.5517 298.841 75.5229 291.017 75.5229C283.193 75.5229 276.85 84.5517 276.85 95.6892C276.85 106.827 283.193 115.856 291.017 115.856Z" fill="#F2F2F2" style="fill:#F2F2F2;fill:color(display-p3 0.9490 0.9490 0.9490);fill-opacity:1;"/>
<path d="M291.017 100.996C293.076 100.996 294.745 98.6202 294.745 95.6892C294.745 92.7583 293.076 90.3823 291.017 90.3823C288.958 90.3823 287.289 92.7583 287.289 95.6892C287.289 98.6202 288.958 100.996 291.017 100.996Z" fill="#E6E6E6" style="fill:#E6E6E6;fill:color(display-p3 0.9020 0.9020 0.9020);fill-opacity:1;"/>
<path d="M290.336 95.8022C291.906 97.626 292.385 100.5 292.093 103.276C291.734 106.32 290.624 109.082 288.963 111.067C287.096 113.429 284.818 115.026 282.62 116.661C280.601 118.128 278.66 119.805 276.814 121.678C269.745 128.992 264.405 139.405 261.348 151.026C258.297 162.627 257.479 175.794 259.797 187.817C260.944 193.766 263.265 200.184 267.588 202.422C271.034 204.207 275.739 203.057 277.494 198.001C279.379 192.571 276.749 186.466 273.361 183.77C268.97 180.275 263.725 182.828 259.776 186.366C255.428 190.261 251.933 195.85 247.393 199.341C245.35 200.961 243.076 201.906 240.741 202.103C238.596 202.223 236.456 201.752 234.437 200.717C230.248 198.544 226.642 194.56 224.124 189.322C221.241 183.356 219.95 176.042 219.715 168.877C219.188 152.847 223.637 137.85 227.206 122.984C229.124 115.243 230.561 107.277 231.5 99.1776C232.394 91.0373 232.711 82.7901 232.449 74.5596C232.213 67.2819 231.709 59.6716 229.452 53.0247C227.468 47.18 223.842 42.3965 219.257 41.1905C217.191 40.6131 215.049 40.9633 213.129 42.1926C212.475 42.6173 213.042 43.9898 213.693 43.5673C217.75 40.9327 222.546 43.4961 225.542 47.7501C229.042 52.7177 230.327 60.0536 230.897 66.8225C232.18 82.8643 231.169 99.1096 227.927 114.581C224.815 129.627 219.92 144.046 218.791 159.81C218.275 167.003 218.54 174.439 220.155 181.337C221.541 187.481 224.14 192.928 227.641 197.027C230.937 200.821 234.993 203.406 239.262 203.694C244.054 204.017 248.256 200.976 251.974 196.93C255.956 192.597 259.62 187.251 264.444 184.821C266.643 183.714 269.147 183.197 271.405 184.263C273.342 185.205 274.985 187.086 276.048 189.576C277.028 191.897 277.39 194.8 276.495 197.293C275.654 199.638 274.011 200.994 272.234 201.458C270.351 201.932 268.411 201.463 266.744 200.13C264.797 198.547 263.372 195.889 262.373 193.082C260.382 187.483 259.713 180.819 259.612 174.605C259.523 168.535 260.069 162.48 261.233 156.639C263.548 144.824 268.222 134.219 274.687 126.109C276.316 124.089 278.058 122.263 279.897 120.649C281.903 118.889 284.044 117.483 286.088 115.823C288.1 114.189 290.083 112.237 291.469 109.548C292.65 107.244 293.288 104.466 293.291 101.614C293.312 100.302 293.129 98.9996 292.755 97.8002C292.38 96.6009 291.825 95.5342 291.127 94.6765C290.574 94.0341 289.778 95.154 290.336 95.8022Z" fill="#CCCCCC" style="fill:#CCCCCC;fill:color(display-p3 0.8000 0.8000 0.8000);fill-opacity:1;"/>
<path d="M158.081 188.56C163.035 193.118 168.765 195.675 174.66 195.958C174.555 196.313 174.437 196.66 174.306 196.998C173.62 198.801 172.65 200.354 171.472 201.535C170.078 202.932 168.441 203.757 166.74 203.92C165.039 204.083 163.34 203.578 161.826 202.46C160.313 201.342 159.045 199.654 158.16 197.58C157.274 195.506 156.806 193.126 156.806 190.699V188.56H158.081Z" fill="#2A4755" style="fill:#2A4755;fill:color(display-p3 0.1647 0.2784 0.3333);fill-opacity:1;"/>
<path d="M192.853 189.187V190.699C192.854 193.644 192.165 196.505 190.896 198.83C189.627 201.155 187.85 202.813 185.846 203.54C183.842 204.267 181.724 204.023 179.828 202.846C177.932 201.669 176.365 199.627 175.376 197.041C175.239 196.695 175.116 196.339 175.007 195.974C175.279 195.985 175.547 195.99 175.819 195.99C181.829 196 187.724 193.645 192.853 189.187Z" fill="#2A4755" style="fill:#2A4755;fill:color(display-p3 0.1647 0.2784 0.3333);fill-opacity:1;"/>
<path d="M205.394 29.2466C205.115 29.1882 204.831 29.151 204.548 29.1245C207.768 39.6868 207.991 51.613 205.171 62.4042C205.454 62.3564 205.734 62.2928 206.013 62.2185C208.744 61.4654 211.197 59.3576 212.938 56.2703C214.679 53.183 215.594 49.3165 215.519 45.3592C215.445 41.4018 214.387 37.6104 212.533 34.6598C210.678 31.7093 208.149 29.791 205.394 29.2466Z" fill="#2A4755" style="fill:#2A4755;fill:color(display-p3 0.1647 0.2784 0.3333);fill-opacity:1;"/>
<path d="M147.091 29.1245C146.807 29.151 146.524 29.1882 146.244 29.2466C143.49 29.791 140.96 31.7092 139.106 34.6598C137.252 37.6104 136.194 41.4018 136.119 45.3592C136.045 49.3165 136.96 53.183 138.701 56.2703C140.441 59.3576 142.895 61.4654 145.626 62.2185C145.905 62.2928 146.185 62.3564 146.468 62.4042C143.648 51.613 143.871 39.6868 147.091 29.1245Z" fill="#2A4755" style="fill:#2A4755;fill:color(display-p3 0.1647 0.2784 0.3333);fill-opacity:1;"/>
<path d="M205.394 29.2462C202.323 18.8021 196.634 10.356 189.433 5.54879C182.231 0.741577 174.032 -0.0835248 166.427 3.23379C158.822 6.5511 152.355 13.774 148.282 23.4991C144.21 33.2243 142.822 44.7574 144.388 55.8579C145.955 66.9583 150.364 76.8335 156.76 83.5649C163.155 90.2963 171.08 93.4034 178.995 92.2824C186.91 91.1614 194.249 85.8924 199.587 77.4991C204.926 69.1058 207.882 58.1874 207.881 46.8652C207.879 40.8158 207.034 34.827 205.394 29.2462ZM205.171 62.4038C202.443 72.8393 197.071 81.4437 190.111 86.5236C183.151 91.6035 175.107 92.7909 167.563 89.8521C160.018 86.9132 153.52 80.0611 149.347 70.6442C145.173 61.2273 143.627 49.9278 145.013 38.9697C146.398 28.0117 150.615 18.1887 156.833 11.4342C163.051 4.67968 170.82 1.48292 178.611 2.47307C186.401 3.46322 193.65 8.56857 198.929 16.7843C204.208 25 207.135 35.731 207.135 46.8652C207.134 52.1697 206.469 57.4315 205.171 62.4038Z" fill="#2A4755" style="fill:#2A4755;fill:color(display-p3 0.1647 0.2784 0.3333);fill-opacity:1;"/>
<path d="M192.223 36.5171H159.416C157.685 36.5171 156.026 37.4956 154.802 39.2372C153.579 40.9789 152.892 43.3411 152.892 45.8042C152.892 48.2673 153.579 50.6295 154.802 52.3712C156.026 54.1128 157.685 55.0913 159.416 55.0913H192.223C193.953 55.0913 195.613 54.1128 196.836 52.3712C198.06 50.6295 198.747 48.2673 198.747 45.8042C198.747 43.3411 198.06 40.9789 196.836 39.2372C195.613 37.4956 193.953 36.5171 192.223 36.5171Z" fill="#2A4755" style="fill:#2A4755;fill:color(display-p3 0.1647 0.2784 0.3333);fill-opacity:1;"/>
<path d="M175.819 101.527C167.055 101.533 158.64 106.42 152.374 115.144C146.108 123.868 142.489 135.736 142.292 148.21C142.094 160.683 145.333 172.771 151.316 181.889C157.298 191.007 165.55 196.43 174.306 196.998C174.66 197.025 175.018 197.041 175.376 197.041C175.525 197.051 175.67 197.051 175.819 197.051C184.718 197.051 193.252 192.019 199.545 183.062C205.837 174.105 209.372 161.956 209.372 149.289C209.372 136.622 205.837 124.473 199.545 115.516C193.252 106.559 184.718 101.527 175.819 101.527ZM192.853 189.187C187.724 193.646 181.829 196 175.819 195.99C175.547 195.99 175.279 195.985 175.007 195.974C174.891 195.974 174.775 195.969 174.66 195.958C166.782 195.568 159.265 191.156 153.484 183.528C147.703 175.899 144.044 165.564 143.174 154.411C142.305 143.259 144.284 132.033 148.75 122.786C153.216 113.539 159.87 106.889 167.496 104.05C175.123 101.212 183.212 102.374 190.286 107.326C197.36 112.278 202.946 120.688 206.022 131.019C209.099 141.35 209.462 152.912 207.044 163.592C204.626 174.272 199.589 183.357 192.853 189.187Z" fill="#2A4755" style="fill:#2A4755;fill:color(display-p3 0.1647 0.2784 0.3333);fill-opacity:1;"/>
<path d="M199.368 137.525H184.705C183.683 137.525 182.703 136.948 181.981 135.919C181.258 134.891 180.852 133.496 180.852 132.042C180.852 130.587 181.258 129.192 181.981 128.164C182.703 127.135 183.683 126.558 184.705 126.558H199.368C200.39 126.558 201.37 127.135 202.093 128.164C202.815 129.192 203.221 130.587 203.221 132.042C203.221 133.496 202.815 134.891 202.093 135.919C201.37 136.948 200.39 137.525 199.368 137.525Z" fill="#2A4755" style="fill:#2A4755;fill:color(display-p3 0.1647 0.2784 0.3333);fill-opacity:1;"/>
<path d="M185.682 134.825C186.762 134.825 187.637 133.579 187.637 132.041C187.637 130.504 186.762 129.258 185.682 129.258C184.602 129.258 183.727 130.504 183.727 132.041C183.727 133.579 184.602 134.825 185.682 134.825Z" fill="#F2F2F2" style="fill:#F2F2F2;fill:color(display-p3 0.9490 0.9490 0.9490);fill-opacity:1;"/>
<path d="M192.036 134.825C193.116 134.825 193.992 133.579 193.992 132.041C193.992 130.504 193.116 129.258 192.036 129.258C190.957 129.258 190.081 130.504 190.081 132.041C190.081 133.579 190.957 134.825 192.036 134.825Z" fill="#F2F2F2" style="fill:#F2F2F2;fill:color(display-p3 0.9490 0.9490 0.9490);fill-opacity:1;"/>
<path d="M198.391 134.825C199.471 134.825 200.346 133.579 200.346 132.041C200.346 130.504 199.471 129.258 198.391 129.258C197.311 129.258 196.436 130.504 196.436 132.041C196.436 133.579 197.311 134.825 198.391 134.825Z" fill="#41C1BA" style="fill:#41C1BA;fill:color(display-p3 0.2549 0.7569 0.7294);fill-opacity:1;"/>
<path d="M61.8738 202.564C65.2263 198.531 67.2626 192.161 66.7286 185.96C66.1946 179.758 62.8869 174.057 58.5964 172.74C54.3059 171.423 49.415 175.069 48.1119 181.035C47.3947 169.533 46.5682 157.548 42.2721 147.753C38.3821 138.883 31.6446 132.537 24.3426 131.401C17.0407 130.266 9.35262 134.554 4.79865 142.758C0.244684 150.962 -0.87034 162.889 2.31914 172.308C4.66873 179.247 8.99748 184.411 13.5329 188.612C28.0026 202.015 45.9522 206.543 63.0316 202.965L61.8738 202.564Z" fill="#F2F2F2" style="fill:#F2F2F2;fill:color(display-p3 0.9490 0.9490 0.9490);fill-opacity:1;"/>
<path d="M12.0194 134.792C18.0444 141.777 23.5718 149.59 28.5214 158.118C33.4719 166.636 37.8303 175.818 41.5353 185.535C43.6062 190.985 45.4666 196.593 47.1081 202.332C47.4428 203.499 46.111 204.007 45.78 202.853C42.8725 192.735 39.2754 183.047 35.0402 173.927C30.8256 164.841 26.0018 156.358 20.6365 148.598C17.6018 144.211 14.4 140.064 11.0455 136.178C10.358 135.381 11.3375 134.001 12.0194 134.792Z" fill="white" style="fill:white;fill-opacity:1;"/>
<path d="M60.7371 35.0255C67.1199 35.0255 72.2942 27.6599 72.2942 18.574C72.2942 9.48813 67.1199 2.12256 60.7371 2.12256C54.3543 2.12256 49.1801 9.48813 49.1801 18.574C49.1801 27.6599 54.3543 35.0255 60.7371 35.0255Z" fill="#2A4755" style="fill:#2A4755;fill:color(display-p3 0.1647 0.2784 0.3333);fill-opacity:1;"/>
<path d="M103.84 78.8138C103.619 79.288 103.349 79.7124 103.039 80.073C102.593 80.5963 102.075 80.9796 101.518 81.1977C100.96 81.4159 100.377 81.4639 99.8059 81.3388C99.2347 81.2136 98.6886 80.9181 98.2032 80.4715C97.7179 80.025 97.3043 79.4375 96.9896 78.7475C96.9167 78.5868 96.8499 78.4206 96.7893 78.2498L78.5777 75.7487C77.1404 75.5435 75.7879 74.684 74.7209 73.2978C73.654 71.9116 72.9294 70.0726 72.6549 68.0538L71.6212 60.2966L78.7286 58.7227L80.004 64.9363L97.7601 71.1449C97.8976 70.9731 98.0434 70.8153 98.1965 70.6725C98.9885 69.9408 99.9337 69.6205 100.872 69.7657C101.811 69.9108 102.686 70.5125 103.349 71.4692C104.012 72.426 104.423 73.6791 104.513 75.0171C104.602 76.3552 104.365 77.6962 103.84 78.8138Z" fill="#FFB8B8" style="fill:#FFB8B8;fill:color(display-p3 1.0000 0.7216 0.7216);fill-opacity:1;"/>
<path d="M80.4405 63.9985L72.5012 67.0514C72.0716 67.2159 71.6138 67.1311 71.2282 66.8156C70.8425 66.5002 70.5605 65.9798 70.4441 65.3688L67.6633 50.7154C67.3654 49.1458 67.4863 47.4747 68.0027 46.0245C68.519 44.5743 69.3943 43.4476 70.4597 42.8616C71.5252 42.2756 72.7053 42.272 73.7725 42.8512C74.8397 43.4305 75.7185 44.5517 76.2393 45.9987L81.4961 60.604C81.6101 60.9207 81.6729 61.2696 81.6801 61.6252C81.6872 61.9809 81.6383 62.3343 81.5372 62.6597C81.436 62.9851 81.285 63.2741 81.0953 63.5058C80.9055 63.7374 80.6818 63.9057 80.4405 63.9985Z" fill="#2A4755" style="fill:#2A4755;fill:color(display-p3 0.1647 0.2784 0.3333);fill-opacity:1;"/>
<path d="M75.8417 198.549H80.412L82.5866 173.454L75.8406 173.455L75.8417 198.549Z" fill="#FFB8B8" style="fill:#FFB8B8;fill:color(display-p3 1.0000 0.7216 0.7216);fill-opacity:1;"/>
<path d="M89.2268 204.59L74.8622 204.591L74.862 196.691L83.6766 196.69C85.1485 196.69 86.5602 197.523 87.6011 199.004C88.6419 200.486 89.2267 202.495 89.2268 204.59Z" fill="#2A4755" style="fill:#2A4755;fill:color(display-p3 0.1647 0.2784 0.3333);fill-opacity:1;"/>
<path d="M35.1049 192.209L39.381 194.507L47.6432 172.123L41.3323 168.731L35.1049 192.209Z" fill="#FFB8B8" style="fill:#FFB8B8;fill:color(display-p3 1.0000 0.7216 0.7216);fill-opacity:1;"/>
<path d="M46.1281 204.591L32.6895 197.368L34.6499 189.977L42.8963 194.41C44.2734 195.15 45.3875 196.638 45.9935 198.548C46.5996 200.457 46.648 202.631 46.1281 204.591Z" fill="#2A4755" style="fill:#2A4755;fill:color(display-p3 0.1647 0.2784 0.3333);fill-opacity:1;"/>
<path d="M75.6973 192.721C75.343 192.72 74.9979 192.56 74.7115 192.263C74.4251 191.966 74.2122 191.548 74.1033 191.068L62.4461 139.822C62.4115 139.67 62.3457 139.537 62.2571 139.439C62.1685 139.341 62.0613 139.283 61.9494 139.273C61.8374 139.263 61.7259 139.301 61.6294 139.382C61.5328 139.463 61.4556 139.584 61.4079 139.728L45.2524 188.659C45.0774 189.188 44.7723 189.607 44.3947 189.837C44.0172 190.068 43.5935 190.093 43.2037 189.909L36.841 186.889C36.4369 186.696 36.0993 186.292 35.8967 185.758C35.694 185.224 35.6414 184.601 35.7495 184.014L45.6455 130.655C46.681 125.002 47.429 119.251 47.8836 113.446C48.5776 103.886 51.7261 95.0278 56.7255 88.5688C58.9083 85.7219 60.3273 81.8826 60.7391 77.7093L60.7657 77.4424L75.2582 80.6996L84.4381 187.331C84.4855 187.901 84.3876 188.477 84.162 188.954C83.9365 189.43 83.5983 189.775 83.209 189.927L76.1354 192.638C75.9926 192.693 75.8452 192.721 75.6973 192.721Z" fill="#2A4755" style="fill:#2A4755;fill:color(display-p3 0.1647 0.2784 0.3333);fill-opacity:1;"/>
<path d="M65.3282 34.9471C70.3852 34.9471 74.4848 29.1114 74.4848 21.9128C74.4848 14.7141 70.3852 8.87842 65.3282 8.87842C60.2712 8.87842 56.1716 14.7141 56.1716 21.9128C56.1716 29.1114 60.2712 34.9471 65.3282 34.9471Z" fill="#FFB8B8" style="fill:#FFB8B8;fill:color(display-p3 1.0000 0.7216 0.7216);fill-opacity:1;"/>
<path d="M74.3575 82.973C74.3289 82.973 74.3002 82.9719 74.2713 82.9699L59.9048 81.9474C59.5038 81.9216 59.1227 81.6909 58.8316 81.2976C58.5404 80.9042 58.3586 80.3746 58.3196 79.8059L56.3569 52.5665C56.2133 50.5717 56.4145 48.5572 56.943 46.6984C57.4715 44.8397 58.3113 43.1931 59.3893 41.9022C60.4672 40.6113 61.7506 39.7152 63.1275 39.2921C64.5045 38.8689 65.9332 38.9315 67.2893 39.4744C68.4127 39.9124 69.4598 40.679 70.3634 41.7254C80.4696 53.5398 77.2109 74.9458 75.9715 81.2249C75.8743 81.7279 75.6637 82.1715 75.3721 82.4873C75.0805 82.8032 74.724 82.9738 74.3575 82.973Z" fill="#41C1BA" style="fill:#41C1BA;fill:color(display-p3 0.2549 0.7569 0.7294);fill-opacity:1;"/>
<path d="M61.8592 101.264C61.4592 101.264 61.0615 101.179 60.6791 101.012C60.126 100.773 59.6146 100.371 59.1784 99.8313C58.7422 99.2917 58.3909 98.6271 58.1477 97.8808C57.9045 97.1346 57.7749 96.3236 57.7672 95.5011C57.7595 94.6785 57.8741 93.8629 58.1033 93.1077C58.157 92.9323 58.2171 92.7611 58.2834 92.5947L49.6584 69.6256C48.9823 67.8085 48.7357 65.7295 48.9555 63.6971C49.1752 61.6647 49.8494 59.7874 50.8781 58.3438L54.8425 52.8218L59.7 60.3733L56.7724 65.3267L62.9767 89.8096C63.1533 89.8774 63.3264 89.9628 63.4947 90.0651C64.3613 90.5985 65.0722 91.5412 65.5073 92.7341C65.9424 93.927 66.075 95.297 65.8828 96.613C65.6907 97.929 65.1854 99.1103 64.4524 99.9575C63.7194 100.805 62.8035 101.266 61.8592 101.264Z" fill="#FFB8B8" style="fill:#FFB8B8;fill:color(display-p3 1.0000 0.7216 0.7216);fill-opacity:1;"/>
<path d="M57.5627 65.3247L51.3793 57.6065C51.0452 57.1885 50.8412 56.599 50.8121 55.9672C50.783 55.3354 50.9311 54.713 51.224 54.2364L58.254 42.8239C59.007 41.6014 60.0513 40.8191 61.1855 40.6278C62.3198 40.4364 63.4636 40.8497 64.3965 41.7878C65.3293 42.7259 65.9852 44.1224 66.2375 45.7081C66.4899 47.2938 66.3209 48.9563 65.7631 50.3751L60.1327 64.6955C60.0107 65.006 59.8414 65.2737 59.6374 65.4792C59.4333 65.6846 59.1995 65.8225 58.9532 65.8828C58.7068 65.9431 58.4541 65.9243 58.2136 65.8278C57.973 65.7312 57.7506 65.5593 57.5627 65.3247Z" fill="#2A4755" style="fill:#2A4755;fill:color(display-p3 0.1647 0.2784 0.3333);fill-opacity:1;"/>
<path d="M59.436 34.5742C60.2714 34.9959 61.2956 35.3677 61.953 34.4931C62.5948 33.6393 62.4779 32.0779 62.0998 30.9277C61.7218 29.7774 61.1354 28.7538 60.9556 27.5018C60.6979 25.7074 61.3641 23.8433 62.3151 22.6735C63.2661 21.5036 64.4632 20.8891 65.6318 20.2978L72.0415 17.0543C73.6281 16.2515 75.3379 15.3083 76.2257 13.1956C77.5104 10.1384 76.336 5.76848 74.2287 3.9846C72.1214 2.20071 69.4596 2.53304 67.186 3.78739C65.9285 4.48114 64.7324 5.43713 63.4319 5.92549C60.8654 6.88931 57.9472 6.02466 55.6919 8.0846C53.7286 9.87777 52.818 13.5366 52.8841 16.9601C52.9502 20.3835 53.8357 23.6439 54.7697 26.7748C55.3254 28.6375 55.919 30.5216 56.8602 32.0031C57.8014 33.4846 59.1615 34.521 60.5201 34.2484L59.436 34.5742Z" fill="#2A4755" style="fill:#2A4755;fill:color(display-p3 0.1647 0.2784 0.3333);fill-opacity:1;"/>
<path d="M51.0441 21.2277C55.162 21.2277 58.5002 16.4757 58.5002 10.6138C58.5002 4.75198 55.162 0 51.0441 0C46.9261 0 43.5879 4.75198 43.5879 10.6138C43.5879 16.4757 46.9261 21.2277 51.0441 21.2277Z" fill="#2A4755" style="fill:#2A4755;fill:color(display-p3 0.1647 0.2784 0.3333);fill-opacity:1;"/>
<path d="M111.518 71.8825L111.386 71.8566L111.884 66.6969C111.96 65.9048 111.813 65.102 111.473 64.4649C111.134 63.8278 110.631 63.4088 110.074 63.2999L102.395 61.7971C101.838 61.6883 101.274 61.8985 100.827 62.3816C100.379 62.8646 100.085 63.581 100.008 64.373L97.2747 92.6804C97.1983 93.4725 97.3459 94.2753 97.6853 94.9124C98.0247 95.5494 98.5279 95.9685 99.0843 96.0774L106.764 97.5801C107.32 97.689 107.884 97.4788 108.332 96.9957C108.779 96.5126 109.074 95.7963 109.15 95.0042L111.031 75.5294L111.163 75.5553L111.518 71.8825Z" fill="#2A4755" style="fill:#2A4755;fill:color(display-p3 0.1647 0.2784 0.3333);fill-opacity:1;"/>
<path d="M109.833 64.8138L108.877 64.6267C108.906 64.7888 108.907 64.9586 108.879 65.1212C108.851 65.2837 108.796 65.434 108.717 65.5589C108.639 65.6837 108.541 65.7793 108.43 65.8371C108.32 65.8949 108.201 65.9132 108.085 65.8904L103.889 65.0693C103.772 65.0465 103.661 64.9833 103.566 64.8852C103.471 64.7872 103.394 64.6573 103.342 64.507C103.291 64.3568 103.266 64.1907 103.27 64.0235C103.274 63.8563 103.307 63.6931 103.366 63.5483L102.473 63.3735C102.276 63.3351 102.077 63.3521 101.885 63.4235C101.693 63.495 101.514 63.6194 101.356 63.7898C101.198 63.9602 101.065 64.1732 100.965 64.4166C100.865 64.66 100.8 64.929 100.773 65.2084L98.1691 92.1698C98.1146 92.734 98.2198 93.3059 98.4615 93.7597C98.7033 94.2135 99.0617 94.512 99.4581 94.5895L106.819 96.0298C107.215 96.1074 107.617 95.9576 107.935 95.6135C108.254 95.2694 108.464 94.7591 108.518 94.195L111.122 67.2335C111.176 66.6693 111.071 66.0974 110.83 65.6436C110.588 65.1898 110.229 64.8914 109.833 64.8138Z" fill="white" style="fill:white;fill-opacity:1;"/>
<path d="M104.613 87.1982C106.878 87.1982 108.714 84.5846 108.714 81.3606C108.714 78.1365 106.878 75.5229 104.613 75.5229C102.348 75.5229 100.512 78.1365 100.512 81.3606C100.512 84.5846 102.348 87.1982 104.613 87.1982Z" fill="#41C1BA" style="fill:#41C1BA;fill:color(display-p3 0.2549 0.7569 0.7294);fill-opacity:1;"/>
<path d="M104.206 83.5872C104.114 83.5874 104.024 83.5449 103.95 83.4662L103.946 83.4613L102.982 82.4109C102.937 82.3624 102.9 82.3017 102.871 82.2323C102.843 82.163 102.824 82.0864 102.817 82.0068C102.809 81.9273 102.813 81.8464 102.827 81.7689C102.842 81.6913 102.867 81.6186 102.901 81.5549C102.936 81.4912 102.978 81.4378 103.027 81.3977C103.076 81.3576 103.13 81.3316 103.186 81.3212C103.242 81.3109 103.299 81.3163 103.353 81.3373C103.407 81.3582 103.458 81.3942 103.503 81.4433L104.127 82.1247L105.602 79.3861C105.637 79.3226 105.679 79.2693 105.728 79.2292C105.777 79.1892 105.83 79.1632 105.886 79.1527C105.942 79.1422 105.998 79.1475 106.053 79.1682C106.107 79.1889 106.158 79.2246 106.203 79.2733C106.293 79.3718 106.352 79.5173 106.367 79.6775C106.381 79.8377 106.351 79.9997 106.282 80.1281L104.547 83.3493C104.507 83.4235 104.455 83.4836 104.396 83.5249C104.337 83.5661 104.272 83.5874 104.206 83.5872Z" fill="white" style="fill:white;fill-opacity:1;"/>
<path d="M316.056 205H3.16002C3.04251 205 2.92994 204.933 2.84697 204.814C2.764 204.696 2.71741 204.535 2.71741 204.368C2.71741 204.201 2.764 204.041 2.84697 203.922C2.92994 203.804 3.04251 203.737 3.16002 203.736H316.056C316.174 203.736 316.287 203.803 316.37 203.921C316.453 204.04 316.5 204.201 316.5 204.368C316.5 204.536 316.453 204.697 316.37 204.815C316.287 204.934 316.174 205 316.056 205Z" fill="#CCCCCC" style="fill:#CCCCCC;fill:color(display-p3 0.8000 0.8000 0.8000);fill-opacity:1;"/>
</g>
<defs>
<clipPath id="clip0_297_56">
<rect width="316" height="205" fill="white" style="fill:white;fill-opacity:1;" transform="translate(0.5)"/>
</clipPath>
</defs>
</svg>
