<svg width="323" height="275" viewBox="0 0 323 275" fill="none" xmlns="http://www.w3.org/2000/svg">
<g clip-path="url(#clip0_296_2)">
<path opacity="0.1" d="M161.5 274.5C250.423 274.5 322.51 269.109 322.51 262.458C322.51 255.807 250.423 250.416 161.5 250.416C72.5768 250.416 0.490234 255.807 0.490234 262.458C0.490234 269.109 72.5768 274.5 161.5 274.5Z" fill="#41C1BA" style="fill:#41C1BA;fill:color(display-p3 0.2549 0.7569 0.7294);fill-opacity:1;"/>
<path d="M297.254 253.54C297.256 254.491 297.174 255.44 297.009 256.371C296.978 256.547 296.944 256.736 296.911 256.886C296.04 261.042 293.583 264.082 290.651 264.275C290.553 264.275 290.455 264.275 290.345 264.275C287.244 264.275 284.622 261.093 283.757 256.711C283.732 256.594 283.711 256.477 283.689 256.346C283.524 255.415 283.442 254.466 283.444 253.514C283.444 247.577 286.532 242.768 290.345 242.768C294.157 242.768 297.254 247.61 297.254 253.54Z" fill="#2A4755" style="fill:#2A4755;fill:color(display-p3 0.1647 0.2784 0.3333);fill-opacity:1;"/>
<path opacity="0.1" d="M297.254 253.54C297.257 254.491 297.174 255.44 297.009 256.371C296.978 256.546 296.945 256.736 296.911 256.886C296.807 256.886 296.705 256.886 296.604 256.886C295.845 256.837 295.09 256.715 294.347 256.521C293.689 256.763 293.016 256.946 292.335 257.068C291.813 257.162 291.287 257.22 290.759 257.243H290.225C289.593 257.243 288.962 257.193 288.336 257.094C287.323 256.933 286.329 256.639 285.37 256.218C284.846 256.426 284.311 256.596 283.769 256.729C283.745 256.612 283.723 256.495 283.702 256.364C283.537 255.433 283.454 254.484 283.457 253.532C283.457 247.595 286.545 242.786 290.357 242.786C294.169 242.786 297.254 247.61 297.254 253.54Z" fill="black" style="fill:black;fill-opacity:1;"/>
<path d="M311.975 233.524C311.978 230.913 311.463 228.337 310.472 226.007L302.358 229.01L309.482 224.026C308.287 221.971 306.72 220.262 304.897 219.025C303.073 217.788 301.038 217.054 298.944 216.877C298.61 216.276 298.244 215.701 297.849 215.155L286.195 219.471L295.755 212.786C293.926 211.117 291.78 210.01 289.506 209.563C287.232 209.115 284.901 209.341 282.718 210.221C280.535 211.1 278.568 212.606 276.99 214.605C275.413 216.604 274.274 219.035 273.673 221.683L283.656 235.36L272.827 226.036C270.081 228.35 268.126 231.761 267.317 235.647C266.509 239.533 266.901 243.636 268.423 247.207C269.945 250.777 272.495 253.578 275.607 255.098C278.72 256.618 282.188 256.757 285.379 255.488C288.266 256.747 291.419 256.849 294.359 255.78C296.409 256.32 298.534 256.305 300.578 255.737C302.623 255.169 304.534 254.063 306.171 252.499C307.808 250.935 309.129 248.954 310.037 246.702C310.945 244.45 311.417 241.985 311.417 239.487C311.417 239.122 311.417 238.757 311.386 238.392C311.784 236.813 311.982 235.172 311.975 233.524Z" fill="#41C1BA" style="fill:#41C1BA;fill:color(display-p3 0.2549 0.7569 0.7294);fill-opacity:1;"/>
<path opacity="0.1" d="M311.733 236.622C307.447 235.654 303.053 235.587 298.748 236.425C293.875 237.385 288.894 239.494 284.128 237.951C281.331 237.046 278.914 234.951 276.182 233.791C273.546 232.693 270.706 232.49 267.978 233.203C266.938 236.162 266.636 239.414 267.108 242.571C267.58 245.729 268.806 248.658 270.639 251.008C272.473 253.358 274.837 255.031 277.448 255.825C280.059 256.62 282.807 256.503 285.364 255.488C288.251 256.747 291.404 256.85 294.344 255.78C296.393 256.32 298.519 256.305 300.563 255.737C302.607 255.169 304.518 254.063 306.155 252.499C307.792 250.935 309.114 248.955 310.022 246.703C310.93 244.451 311.401 241.985 311.402 239.487C311.402 239.122 311.402 238.757 311.371 238.392C311.519 237.811 311.64 237.22 311.733 236.622Z" fill="black" style="fill:black;fill-opacity:1;"/>
<path d="M214.741 63.2534H212.983C212.595 63.2534 212.281 63.6275 212.281 64.0891V93.4424C212.281 93.9039 212.595 94.2781 212.983 94.2781H214.741C215.128 94.2781 215.443 93.9039 215.443 93.4424V64.0891C215.443 63.6275 215.128 63.2534 214.741 63.2534Z" fill="#2A4755" style="fill:#2A4755;fill:color(display-p3 0.1647 0.2784 0.3333);fill-opacity:1;"/>
<path d="M108.459 38.9468H107.603C107.349 38.9468 107.143 39.1918 107.143 39.4941V48.6132C107.143 48.9155 107.349 49.1606 107.603 49.1606H108.459C108.713 49.1606 108.919 48.9155 108.919 48.6132V39.4941C108.919 39.1918 108.713 38.9468 108.459 38.9468Z" fill="#2A4755" style="fill:#2A4755;fill:color(display-p3 0.1647 0.2784 0.3333);fill-opacity:1;"/>
<path d="M108.56 57.6484H107.597C107.311 57.6484 107.079 57.9245 107.079 58.2651V74.8102C107.079 75.1507 107.311 75.4269 107.597 75.4269H108.56C108.846 75.4269 109.078 75.1507 109.078 74.8102V58.2651C109.078 57.9245 108.846 57.6484 108.56 57.6484Z" fill="#2A4755" style="fill:#2A4755;fill:color(display-p3 0.1647 0.2784 0.3333);fill-opacity:1;"/>
<path d="M108.52 81.645H107.603C107.33 81.645 107.109 81.9081 107.109 82.2325V98.9892C107.109 99.3137 107.33 99.5767 107.603 99.5767H108.52C108.793 99.5767 109.014 99.3137 109.014 98.9892V82.2325C109.014 81.9081 108.793 81.645 108.52 81.645Z" fill="#2A4755" style="fill:#2A4755;fill:color(display-p3 0.1647 0.2784 0.3333);fill-opacity:1;"/>
<path d="M203.04 5.19629H119.095C113.049 5.19629 108.149 11.0272 108.149 18.2199V248.11C108.149 255.302 113.049 261.133 119.095 261.133H203.04C209.085 261.133 213.986 255.302 213.986 248.11V18.2199C213.986 11.0272 209.085 5.19629 203.04 5.19629Z" fill="#2A4755" style="fill:#2A4755;fill:color(display-p3 0.1647 0.2784 0.3333);fill-opacity:1;"/>
<path d="M164.858 12.8374H151.637C151.207 12.8374 150.858 13.2524 150.858 13.7643V15.483C150.858 15.9949 151.207 16.4099 151.637 16.4099H164.858C165.288 16.4099 165.637 15.9949 165.637 15.483V13.7643C165.637 13.2524 165.288 12.8374 164.858 12.8374Z" fill="#E6E8EC" style="fill:#E6E8EC;fill:color(display-p3 0.9020 0.9098 0.9255);fill-opacity:1;"/>
<path d="M169.575 16.6472C170.515 16.6472 171.277 15.7404 171.277 14.6219C171.277 13.5034 170.515 12.5967 169.575 12.5967C168.635 12.5967 167.873 13.5034 167.873 14.6219C167.873 15.7404 168.635 16.6472 169.575 16.6472Z" fill="#E6E8EC" style="fill:#E6E8EC;fill:color(display-p3 0.9020 0.9098 0.9255);fill-opacity:1;"/>
<path d="M207.451 21.862V244.457C207.45 247.109 206.564 249.652 204.988 251.527C203.411 253.402 201.273 254.456 199.044 254.456H123.091C120.862 254.456 118.724 253.402 117.148 251.527C115.571 249.652 114.685 247.109 114.685 244.457V21.862C114.685 20.5485 114.902 19.2479 115.324 18.0344C115.747 16.8209 116.366 15.7182 117.147 14.7894C117.927 13.8606 118.854 13.1239 119.874 12.6212C120.894 12.1186 121.987 11.8599 123.091 11.8599H134.457V13.5968C134.46 15.779 135.19 17.8705 136.488 19.4124C137.786 20.9544 139.545 21.8209 141.378 21.8219H180.021C180.93 21.8219 181.83 21.6089 182.67 21.195C183.509 20.7811 184.273 20.1744 184.915 19.4096C185.558 18.6448 186.068 17.7369 186.416 16.7377C186.764 15.7384 186.943 14.6675 186.943 13.5859V11.8599H199.06C201.287 11.8647 203.421 12.9206 204.994 14.7959C206.567 16.6711 207.451 19.2125 207.451 21.862Z" fill="white" style="fill:white;fill-opacity:1;"/>
<path opacity="0.2" d="M208.116 113.779V189.472H207.451V189.549H114.685V97.0734C115.28 96.2658 115.883 95.4277 116.494 94.5592C129.522 76.0473 147.23 71.1758 160.936 70.6649C170.326 70.3 179.674 72.6099 188.599 77.1968C193.313 79.6198 200.078 82.2763 207.451 82.5391V111.155C207.902 112.684 208.116 113.779 208.116 113.779Z" fill="#41C1BA" style="fill:#41C1BA;fill:color(display-p3 0.2549 0.7569 0.7294);fill-opacity:1;"/>
<path opacity="0.2" d="M208.116 113.779V189.472H114.685V139.888C118.012 138.892 122.658 135.06 128.62 124.474C135.751 111.808 145.439 108.477 152.937 108.126C158.074 107.886 163.19 109.455 168.072 112.597C173.565 116.125 184.152 120.38 192.196 108.028C201.09 94.3693 205.819 105.634 207.451 111.155C207.902 112.684 208.116 113.779 208.116 113.779Z" fill="#41C1BA" style="fill:#41C1BA;fill:color(display-p3 0.2549 0.7569 0.7294);fill-opacity:1;"/>
<path d="M194.622 175.609H127.765C125.732 175.609 124.084 177.57 124.084 179.988V198.964C124.084 201.382 125.732 203.343 127.765 203.343H194.622C196.655 203.343 198.302 201.382 198.302 198.964V179.988C198.302 177.57 196.655 175.609 194.622 175.609Z" fill="#2A4755" style="fill:#2A4755;fill:color(display-p3 0.1647 0.2784 0.3333);fill-opacity:1;"/>
<path d="M41.6044 249.996L47.4743 245.876C46.6805 244.263 45.6657 242.819 44.4719 241.603L33.3975 245.716L42.0767 239.644C39.9282 238.243 37.5103 237.533 35.0609 237.582C32.6115 237.631 30.2152 238.438 28.1076 239.924C26.0001 241.41 24.254 243.523 23.0413 246.056C21.8286 248.588 21.1911 251.453 21.1914 254.368C21.1914 263.64 27.5061 263.961 35.2989 263.961C43.0918 263.961 49.4064 263.64 49.4064 254.368C49.4092 252.022 48.9964 249.702 48.195 247.559L41.6044 249.996Z" fill="#41C1BA" style="fill:#41C1BA;fill:color(display-p3 0.2549 0.7569 0.7294);fill-opacity:1;"/>
<path opacity="0.1" d="M43.0981 259.013C42.4734 258.268 41.7752 257.615 41.0188 257.068C39.9515 256.225 38.8505 255.368 37.5931 255.08C36.489 254.828 35.3512 255.039 34.2196 254.966C32.267 254.823 30.4292 253.82 29.0642 252.153C28.2637 251.168 27.632 249.964 26.669 249.201C25.6293 248.391 24.3106 248.216 23.0777 248.416C22.7204 248.481 22.3662 248.567 22.0166 248.675C21.4631 250.502 21.1808 252.43 21.1824 254.372C21.1824 263.644 27.497 263.965 35.2899 263.965C39.0713 263.965 42.5031 263.889 45.0364 262.75L44.6131 261.809C44.2095 260.804 43.7004 259.865 43.0981 259.013Z" fill="black" style="fill:black;fill-opacity:1;"/>
<path d="M70.4881 212.987C70.0399 213.455 69.6945 214.046 69.4822 214.709C68.9578 216.658 70.4237 218.57 70.5648 220.61C70.6752 222.23 69.9514 223.741 69.5405 225.295C69.0767 227.226 69.1067 229.278 69.6267 231.189C70.1467 233.099 71.1331 234.783 72.4601 236.024C72.7427 236.309 73.0762 236.514 73.4354 236.622C73.7317 236.665 74.0323 236.635 74.3186 236.534C74.6049 236.434 74.871 236.265 75.1007 236.038C75.8129 235.422 76.356 234.569 76.6617 233.586C76.9161 232.62 77.0535 231.617 77.0696 230.605L77.2874 226.7C77.5143 222.624 77.7198 218.42 76.8856 214.417C76.6126 213.104 76.1066 210.086 74.8308 209.903C73.555 209.721 71.3346 212.002 70.4881 212.987Z" fill="#2A4755" style="fill:#2A4755;fill:color(display-p3 0.1647 0.2784 0.3333);fill-opacity:1;"/>
<path d="M91.8825 196.216C90.3505 202.617 89.2401 209.15 88.5611 215.757C88.463 216.687 88.3618 217.665 87.8895 218.417C86.948 219.924 85.0618 219.829 83.4978 219.585C83.1223 219.561 82.7563 219.436 82.4274 219.22C81.8386 218.745 81.7098 217.796 81.6392 216.953C80.5679 204.527 79.8523 192.068 79.4924 179.576C79.4771 179.098 92.5848 179.054 93.7073 180.306C94.8298 181.557 93.9588 186.239 93.7073 187.834C93.2964 190.673 92.5542 193.439 91.8825 196.216Z" fill="#FBBEBE" style="fill:#FBBEBE;fill:color(display-p3 0.9843 0.7451 0.7451);fill-opacity:1;"/>
<path opacity="0.05" d="M91.8825 196.216C90.3505 202.617 89.2401 209.15 88.5611 215.757C88.463 216.687 88.3618 217.665 87.8895 218.417C86.948 219.924 85.0618 219.829 83.4978 219.585C83.1223 219.561 82.7563 219.436 82.4274 219.22C81.8386 218.745 81.7098 217.796 81.6392 216.953C80.5679 204.527 79.8523 192.068 79.4924 179.576C79.4771 179.098 92.5848 179.054 93.7073 180.306C94.8298 181.557 93.9588 186.239 93.7073 187.834C93.2964 190.673 92.5542 193.439 91.8825 196.216Z" fill="black" style="fill:black;fill-opacity:1;"/>
<path d="M64.5874 177.799L69.8961 191.691C71.6626 196.311 73.4414 200.981 74.2848 205.955C74.6231 208.033 74.8394 210.136 74.9319 212.25C75.06 214.061 75.0127 215.885 74.7908 217.683C74.5976 219.019 74.2419 220.318 74.0854 221.661C73.4721 227.014 76.0206 232.05 77.7657 237.031C79.2734 241.309 80.2328 245.832 80.6117 250.449C80.7712 252.416 80.8601 254.503 81.8047 256.127C83.5314 255.51 85.2181 254.977 87.0184 255.218C87.3404 252.076 85.672 249.182 85.0586 246.095C83.9331 240.439 86.4203 234.495 85.5739 228.769C85.1138 225.668 83.6878 222.748 83.8043 219.603C84.022 213.866 84.9268 208.072 84.0067 202.452C82.9701 196.099 79.9891 190.322 79.3298 183.9C78.8237 178.966 79.6365 173.511 77.3271 169.366C72.2821 169.012 67.0654 172.555 64.5874 177.799Z" fill="#FBBEBE" style="fill:#FBBEBE;fill:color(display-p3 0.9843 0.7451 0.7451);fill-opacity:1;"/>
<path d="M82.0347 265.042C81.5041 265.064 80.8846 265.042 80.5565 264.542C80.3963 264.251 80.3042 263.915 80.2896 263.568C80.0384 261.368 79.9154 259.15 79.9216 256.93C79.9216 256.12 79.9523 255.259 80.3326 254.591C80.6116 254.183 80.9296 253.816 81.2802 253.496C82.0929 252.602 82.6848 251.307 83.7337 250.894C84.1932 250.735 84.6804 250.728 85.1433 250.872C85.6062 251.017 86.0274 251.308 86.362 251.715C87.0238 252.555 87.4336 253.631 87.5274 254.777C87.6807 256.134 87.5519 257.612 88.1561 258.791C88.3953 259.247 88.7296 259.619 88.9995 260.05C89.9196 261.509 90.7445 264.367 88.8462 264.958C86.8343 265.582 84.1232 264.961 82.0347 265.042Z" fill="#2A4755" style="fill:#2A4755;fill:color(display-p3 0.1647 0.2784 0.3333);fill-opacity:1;"/>
<path d="M86.6382 95.5844C87.7116 93.1176 87.0706 89.9429 85.5372 87.8483C84.0038 85.7537 81.7619 84.586 79.474 83.9547C76.4072 83.1008 73.1195 83.1081 70.1845 84.451C67.8445 85.5202 65.8296 87.3703 63.6705 88.881C59.855 91.5536 55.5845 93.1746 51.1731 93.6248C46.2661 94.1175 40.7857 93.3512 36.992 97.0696C30.0425 103.879 34.882 119.223 28.4048 126.653C26.6567 128.656 24.3228 129.74 22.3202 131.371C20.3175 133.002 18.5265 135.611 18.8485 138.472C19.0018 139.848 19.6336 141.089 20.3635 142.172C23.4978 146.832 28.7606 149.274 33.7381 148.547C38.7156 147.821 43.2729 144.019 45.6988 138.786C46.3121 137.476 46.809 136.042 47.775 135.09C49.7102 133.188 52.5501 133.958 55.0588 133.867C60.6374 133.663 65.7039 127.974 66.1915 121.354C66.4 118.526 65.9952 115.235 67.7034 113.25C69.0805 111.644 71.2334 111.659 73.1164 111.166C76.5759 110.265 79.0937 107.287 80.6732 103.653C81.3969 101.981 81.3233 100.113 82.3967 98.7263C83.5407 97.201 85.6169 97.9271 86.6382 95.5844Z" fill="#2A4755" style="fill:#2A4755;fill:color(display-p3 0.1647 0.2784 0.3333);fill-opacity:1;"/>
<g opacity="0.1">
<path d="M46.6003 94.7815C48.6349 94.5751 50.6462 94.119 52.6021 93.4204C52.0501 93.5116 51.498 93.5883 50.9429 93.643C47.0971 94.0262 42.8894 93.643 39.4238 95.2523C41.7853 94.964 44.2603 95.0151 46.6003 94.7815Z" fill="black" style="fill:black;fill-opacity:1;"/>
<path d="M43.1777 136.246C42.2116 137.195 41.7026 138.633 41.1014 139.943C39.2429 143.929 36.2665 147.012 32.6921 148.653C32.9651 148.631 33.238 148.602 33.511 148.562C38.4885 147.832 43.0458 144.037 45.4717 138.804C46.0851 137.494 46.5788 136.057 47.548 135.108L47.7136 134.955C46.0299 134.907 44.4167 135.028 43.1777 136.246Z" fill="black" style="fill:black;fill-opacity:1;"/>
<path d="M85.3071 87.8702C83.7737 85.7757 81.5165 84.6116 79.244 83.9767C76.1771 83.1228 72.8894 83.1337 69.9514 84.4766L69.7551 84.5715C71.4836 84.4544 73.2172 84.6376 74.9013 85.1152C77.1738 85.7501 79.4341 86.9142 80.9645 89.0124C82.4948 91.1106 83.1389 94.2817 82.0655 96.7485C81.0442 99.0912 78.9679 98.3614 77.7995 99.8758C76.7261 101.259 76.7997 103.131 76.0759 104.802C74.7173 107.929 72.6594 110.564 69.9115 111.816C70.8715 111.546 71.9019 111.425 72.8588 111.177C76.3182 110.272 78.8361 107.298 80.4155 103.664C81.1423 101.992 81.0687 100.12 82.1391 98.7373C83.3106 97.2229 85.3869 97.9491 86.4051 95.61C87.4785 93.1505 86.8375 89.9758 85.3071 87.8702Z" fill="black" style="fill:black;fill-opacity:1;"/>
<path d="M68.5192 112.319C66.6362 112.808 64.4832 112.797 63.1062 114.399C61.398 116.388 61.8028 119.679 61.5942 122.507C61.2293 127.452 58.3066 131.878 54.5251 133.889H54.8042C60.3828 133.685 65.4462 127.992 65.9338 121.376C66.1455 118.544 65.7406 115.253 67.4489 113.268C67.8403 112.823 68.3007 112.474 68.8044 112.239L68.5192 112.319Z" fill="black" style="fill:black;fill-opacity:1;"/>
</g>
<path d="M86.7302 128.795C86.4757 129.332 85.9512 129.58 85.4636 129.795C80.4156 132.006 75.1038 134.258 69.7797 133.327C69.5804 132.331 69.3841 131.331 69.1878 130.335C68.9036 128.89 68.6174 127.445 68.3291 126C68.1942 125.31 68.0561 124.613 67.9457 123.913C67.7555 122.807 67.6946 121.674 67.7648 120.548C67.7973 120.14 67.8588 119.736 67.9488 119.34C68.1063 118.621 68.3701 117.94 68.7278 117.33C68.7891 117.231 68.8535 117.133 68.921 117.038C69.2242 116.603 69.5923 116.238 70.0067 115.961C70.9114 115.37 72.1535 115.118 72.5184 113.973C72.6596 113.374 72.6457 112.738 72.4785 112.148C72.1719 110.688 71.6168 109.316 71.2733 107.871C70.8378 106.047 71.4941 106.16 72.9754 105.718C75.6435 104.919 78.4344 104.346 81.1731 104.989C81.0443 106.598 80.9185 108.247 81.2589 109.816C81.5994 111.385 82.5102 112.874 83.8198 113.308C84.013 113.374 84.2184 113.414 84.4331 113.469C84.7175 113.523 84.9874 113.656 85.2213 113.856C85.3827 114.014 85.5108 114.216 85.5955 114.443C85.7288 114.828 85.8165 115.234 85.8562 115.648C86.3366 119.477 86.6832 123.324 86.8958 127.19V127.336C86.9589 127.831 86.9014 128.338 86.7302 128.795Z" fill="#FBBEBE" style="fill:#FBBEBE;fill:color(display-p3 0.9843 0.7451 0.7451);fill-opacity:1;"/>
<path d="M60.7416 122.508C59.5946 124.584 59.2082 127.109 58.8586 129.561L56.632 144.924C56.3253 147.026 56.0524 149.336 56.9571 151.178C57.2638 151.802 57.6932 152.343 57.917 153.003C58.0862 153.668 58.1972 154.351 58.2483 155.043C58.7696 158.564 61.6801 160.94 64.5997 161.794C65.6547 162.104 66.8876 162.224 67.7187 161.389C68.6388 160.48 68.6388 158.75 68.0959 157.502C67.5531 156.254 66.5625 155.371 65.6026 154.536L62.4223 151.748L64.2624 134.962C64.3973 133.743 64.8757 132.163 65.9123 132.298C66.8569 132.418 67.5838 134.057 68.4241 133.528C68.6874 133.316 68.8728 132.992 68.9424 132.623C69.3104 131.247 69.2092 129.766 69.1049 128.324L68.7246 123.121C68.5989 121.431 68.9638 120.165 69.1356 118.577C69.3349 116.727 68.2983 117.289 67.0195 117.687C64.5629 118.461 62.1616 119.931 60.7416 122.508Z" fill="#FBBEBE" style="fill:#FBBEBE;fill:color(display-p3 0.9843 0.7451 0.7451);fill-opacity:1;"/>
<path d="M100.289 147.738C100.055 148.205 99.7089 148.579 99.295 148.81C96.8119 150.476 93.8917 150.965 91.1187 150.179C90.4797 149.955 89.8305 149.775 89.1744 149.639C88.1255 149.486 87.0582 149.734 86.0002 149.639C83.8534 149.445 81.9672 147.851 80.4798 145.99C79.5843 144.895 78.7716 143.103 79.6058 141.928C79.8388 141.645 80.1282 141.436 80.4473 141.321C80.7663 141.206 81.1045 141.189 81.4305 141.271C82.0799 141.444 82.7063 141.721 83.2921 142.096C85.3447 143.228 87.5406 143.948 89.7908 144.227C91.3242 144.417 93.2747 144.107 93.8053 142.373C94.0629 141.531 93.882 140.596 93.701 139.724C93.2062 137.335 92.7115 134.945 92.2167 132.554C92.1827 132.345 92.1205 132.144 92.0327 131.959C92.0075 131.909 91.9777 131.862 91.9437 131.82C91.7482 131.626 91.5116 131.5 91.2598 131.455C90.1159 131.12 88.9719 130.576 88.1531 129.572C87.6164 128.86 87.1888 128.041 86.8895 127.153C86.8037 126.93 86.7239 126.704 86.6411 126.478C86.0124 124.734 85.35 122.946 84.8378 121.114C84.4803 119.876 84.2165 118.602 84.0496 117.308C83.9147 116.188 83.8411 115.673 84.3563 115.177C84.4945 115.053 84.6412 114.943 84.7949 114.848C85.031 114.699 85.2979 114.549 85.58 114.407L85.8529 114.272C86.6919 113.873 87.5538 113.546 88.4322 113.294C90.5606 112.706 92.8331 113.932 94.2929 115.87C95.7527 117.808 96.5103 120.344 96.9948 122.88C97.4794 125.416 97.7278 128.014 98.335 130.51C98.5712 131.488 98.8656 132.452 99.068 133.43C99.2852 134.593 99.4399 135.771 99.5311 136.958C99.8194 139.982 100.107 143.006 100.393 146.03C100.499 146.599 100.462 147.193 100.289 147.738Z" fill="#FBBEBE" style="fill:#FBBEBE;fill:color(display-p3 0.9843 0.7451 0.7451);fill-opacity:1;"/>
<path d="M68.7984 146.424C69.4117 151.08 67.6483 155.66 65.9431 159.926C66.9092 160.765 68.0899 161.181 69.243 161.542C76.961 163.956 84.9844 164.675 92.9191 163.662C93.1093 162.086 93.2872 160.415 92.7443 158.962C92.407 158.061 91.8243 157.328 91.4532 156.444C90.8398 154.985 90.9012 153.288 90.9686 151.668L91.5176 137.863C87.7116 135.776 83.2984 137.732 79.1122 138.013C76.9439 138.159 74.748 137.845 72.6104 138.301C71.5002 138.538 68.0102 139.191 67.4857 140.553C66.9613 141.914 68.6113 144.942 68.7984 146.424Z" fill="#FBBEBE" style="fill:#FBBEBE;fill:color(display-p3 0.9843 0.7451 0.7451);fill-opacity:1;"/>
<path opacity="0.05" d="M68.7984 146.424C69.4117 151.08 67.6483 155.66 65.9431 159.926C66.9092 160.765 68.0899 161.181 69.243 161.542C76.961 163.956 84.9844 164.675 92.9191 163.662C93.1093 162.086 93.2872 160.415 92.7443 158.962C92.407 158.061 91.8243 157.328 91.4532 156.444C90.8398 154.985 90.9012 153.288 90.9686 151.668L91.5176 137.863C87.7116 135.776 83.2984 137.732 79.1122 138.013C76.9439 138.159 74.748 137.845 72.6104 138.301C71.5002 138.538 68.0102 139.191 67.4857 140.553C66.9613 141.914 68.6113 144.942 68.7984 146.424Z" fill="black" style="fill:black;fill-opacity:1;"/>
<path d="M78.8821 159.787C74.7572 158.765 70.7028 157.076 66.492 156.959C66.2806 156.933 66.0675 156.981 65.8787 157.098C65.6732 157.3 65.536 157.584 65.4923 157.897C65.0568 159.685 64.6673 161.486 64.3238 163.301C63.1829 169.333 62.6217 175.996 65.1304 181.411C65.1058 179.653 66.0351 178.007 67.2772 177.033C68.5192 176.058 70.0067 175.664 71.4788 175.504C72.9508 175.343 74.5241 175.409 75.895 176.128C76.853 176.646 77.6796 177.454 78.2917 178.473C78.9038 179.491 79.2798 180.683 79.382 181.93L93.8729 182.488C93.9577 182.517 94.0474 182.521 94.1337 182.499C94.2201 182.477 94.3005 182.429 94.3675 182.361C94.4345 182.292 94.4861 182.205 94.5175 182.107C94.549 182.009 94.5593 181.902 94.5476 181.798C95.0818 176.267 95.0623 170.68 94.4893 165.155C94.3299 163.611 94.3084 161.469 92.8486 160.889C91.1066 160.196 88.3526 161.006 86.491 160.911C83.9333 160.783 81.3885 160.407 78.8821 159.787Z" fill="#2A4755" style="fill:#2A4755;fill:color(display-p3 0.1647 0.2784 0.3333);fill-opacity:1;"/>
<path d="M92.0359 132.754L91.9899 140.417L77.3303 140.998C74.6407 141.107 71.9296 141.217 69.3074 141.928C68.553 142.132 67.8077 142.388 67.0655 142.64C66.2927 139.272 65.5321 135.743 65.7345 132.309C65.7904 131.383 65.9261 130.466 66.1394 129.572C66.6055 127.646 67.4796 125.828 67.9457 123.923C68.1336 123.182 68.2367 122.414 68.2524 121.639C68.2176 120.866 68.1148 120.099 67.9457 119.351C67.8112 118.738 67.7473 118.106 67.7556 117.472L68.9179 117.045C68.9517 117.209 68.9793 117.37 69.0038 117.538C69.0529 117.884 69.0927 118.238 69.1203 118.592C69.186 119.469 69.2065 120.35 69.1817 121.23C69.1418 122.989 68.9425 124.949 69.8656 126.339C71.0647 128.124 73.371 127.846 75.254 127.401L80.1855 126.23C81.7435 125.865 83.4824 125.347 84.2951 123.723C84.6419 122.934 84.8249 122.058 84.8288 121.168V120.993C84.9021 119.055 84.74 117.114 84.3473 115.231C84.2276 114.64 84.0804 114.056 83.9148 113.483H84.4086C84.693 113.538 84.9628 113.67 85.1968 113.87C85.3582 114.029 85.4863 114.23 85.5709 114.458L85.8439 114.323C86.932 119.615 88.7253 124.666 91.1557 129.284C91.4682 129.813 91.716 130.391 91.8917 131.003C91.9647 131.334 92.0058 131.675 92.0144 132.017C92.0389 132.232 92.0359 132.492 92.0359 132.754Z" fill="#FF6F61" style="fill:#FF6F61;fill:color(display-p3 1.0000 0.4353 0.3804);fill-opacity:1;"/>
<path d="M76.5482 109.561C81.4601 109.561 85.442 104.823 85.442 98.9784C85.442 93.1339 81.4601 88.396 76.5482 88.396C71.6362 88.396 67.6543 93.1339 67.6543 98.9784C67.6543 104.823 71.6362 109.561 76.5482 109.561Z" fill="#FBBEBE" style="fill:#FBBEBE;fill:color(display-p3 0.9843 0.7451 0.7451);fill-opacity:1;"/>
<path d="M60.7416 122.508C59.5946 124.584 59.2082 127.109 58.8586 129.561L56.632 144.924C56.3253 147.026 56.0524 149.336 56.9571 151.179C57.2638 151.803 57.6932 152.343 57.917 153.003C58.0862 153.668 58.1972 154.351 58.2483 155.043C58.7696 158.565 61.6801 160.94 64.5997 161.794C65.6547 162.104 66.8876 162.225 67.7187 161.389C68.6388 160.48 68.6388 158.751 68.0959 157.503C67.5531 156.255 66.5625 155.372 65.6026 154.536L62.4223 151.748L64.2624 134.962C64.385 133.754 62.1616 119.932 60.7416 122.508Z" fill="#FBBEBE" style="fill:#FBBEBE;fill:color(display-p3 0.9843 0.7451 0.7451);fill-opacity:1;"/>
<path d="M96.9979 122.902C97.4825 125.438 97.7309 128.036 98.3381 130.532C98.5742 131.514 98.8687 132.473 99.0711 133.451C99.2883 134.613 99.443 135.791 99.5342 136.976L100.396 146.048C100.495 146.608 100.458 147.191 100.289 147.727C100.054 148.193 99.7082 148.567 99.295 148.799C96.8107 150.461 93.8919 150.949 91.1187 150.168C90.4804 149.941 89.8311 149.761 89.1744 149.628C88.1255 149.471 87.0582 149.723 86.0002 149.628C83.8534 149.434 81.9672 147.843 80.4798 145.997C79.5843 144.902 78.7716 143.107 79.6058 141.932C79.8388 141.648 80.1282 141.439 80.4473 141.325C80.7663 141.21 81.1045 141.193 81.4305 141.275C82.08 141.448 82.7064 141.727 83.2921 142.103C85.3453 143.233 87.541 143.951 89.7908 144.231C91.3242 144.424 93.2747 144.114 93.8053 142.377C94.0629 141.534 93.882 140.6 93.701 139.728L92.2167 132.557C92.1553 132.309 96.5133 120.369 96.9979 122.902Z" fill="#FBBEBE" style="fill:#FBBEBE;fill:color(display-p3 0.9843 0.7451 0.7451);fill-opacity:1;"/>
<path d="M71.0431 102.237C70.6475 100.548 70.0924 98.4347 71.2056 97.2889C71.6057 96.9214 72.0878 96.7019 72.5919 96.6576C75.0913 96.2927 77.6767 98.0443 80.0689 97.1101C80.8319 96.8135 81.5064 96.2604 82.0111 95.5176C82.5158 94.7749 82.829 93.8742 82.913 92.9244C82.997 91.9745 82.8481 91.016 82.4844 90.1646C82.1206 89.3131 81.5576 88.6051 80.8632 88.126C79.8174 87.3962 78.5692 87.2539 77.3639 87.1262C74.1897 86.7795 70.8806 86.4584 67.9118 87.856C64.9431 89.2536 62.4406 92.8516 63.0539 96.5773C63.3392 98.3545 64.2623 99.8834 65.2007 101.299C65.9215 102.376 68.8135 107.503 69.9758 107.43C71.6135 107.32 71.3007 103.335 71.0431 102.237Z" fill="#2A4755" style="fill:#2A4755;fill:color(display-p3 0.1647 0.2784 0.3333);fill-opacity:1;"/>
<path opacity="0.1" d="M80.8634 88.1261C80.6862 88.0042 80.5017 87.8981 80.3113 87.8086C80.8499 88.39 81.2506 89.1295 81.4735 89.9531C81.6965 90.7766 81.7337 91.6554 81.5815 92.5015C81.4294 93.3476 81.0932 94.1313 80.6065 94.7742C80.1199 95.4171 79.4999 95.8967 78.8086 96.165C76.4164 97.0992 73.8311 95.3476 71.3316 95.7125C70.8275 95.7568 70.3455 95.9763 69.9454 96.3438C68.8321 97.4897 69.3872 99.6025 69.7828 101.292C70.0404 102.387 70.3533 106.375 68.7217 106.485H68.6941C69.2001 107.072 69.6571 107.455 69.9822 107.433C71.6137 107.324 71.3009 103.339 71.0433 102.241C70.6477 100.551 70.0926 98.4384 71.2058 97.2926C71.6059 96.9251 72.088 96.7056 72.5921 96.6613C75.0915 96.2964 77.6769 98.048 80.069 97.1138C80.8321 96.8171 81.5066 96.2641 82.0113 95.5213C82.516 94.7786 82.8292 93.8779 82.9132 92.9281C82.9972 91.9782 82.8483 91.0197 82.4846 90.1682C82.1208 89.3168 81.5578 88.6088 80.8634 88.1297V88.1261Z" fill="black" style="fill:black;fill-opacity:1;"/>
<path d="M211.49 219.764H111.51V256.62H211.49V219.764Z" fill="#2A4755" style="fill:#2A4755;fill:color(display-p3 0.1647 0.2784 0.3333);fill-opacity:1;"/>
<path d="M157.206 231.674V244.702L165.793 238.188L157.206 231.674Z" fill="white" style="fill:white;fill-opacity:1;"/>
<path d="M80.5351 12.9541L75.7754 16.5449L78.6644 10.294C77.8456 9.51633 76.8321 9.08611 75.7846 9.0715H75.7079C75.3772 9.07726 75.0467 9.04795 74.7204 8.98393L73.1072 10.1991L73.8003 8.70295C72.6559 8.22924 71.6677 7.33465 70.9788 6.14858L68.0899 8.33804L69.9146 4.39336C68.2248 1.9813 65.9492 0.503418 63.4466 0.503418C60.4442 0.503418 57.7699 2.62719 56.0433 5.93693C55.5327 6.93072 54.8091 7.74509 53.9469 8.29655C53.0846 8.84801 52.1146 9.11672 51.1363 9.07515H50.9738C47.6585 9.07515 44.9719 13.5453 44.9719 19.0627C44.9719 24.5802 47.6585 29.0503 50.9738 29.0503C51.7031 29.0463 52.4207 28.8322 53.0653 28.4263C54.1932 27.7732 55.4269 27.4199 56.681 27.3909C57.935 27.3619 59.1794 27.6579 60.3277 28.2585C61.2992 28.7756 62.3516 29.0429 63.416 29.0429C64.4803 29.0429 65.5327 28.7756 66.5043 28.2585C67.6445 27.6703 68.8777 27.3809 70.1201 27.4099C71.3626 27.4388 72.5853 27.7855 73.7053 28.4263C74.3433 28.8236 75.0522 29.0326 75.7723 29.0357C79.0876 29.0357 81.7742 24.5619 81.7742 19.0481C81.7969 16.9254 81.3708 14.8298 80.5351 12.9541Z" fill="#F2F2F2" style="fill:#F2F2F2;fill:color(display-p3 0.9490 0.9490 0.9490);fill-opacity:1;"/>
<path opacity="0.03" d="M71.5616 27.5688C69.8328 27.1787 68.0456 27.4099 66.4276 28.2329C65.4558 28.749 64.4035 29.0157 63.3393 29.0157C62.2751 29.0157 61.2228 28.749 60.251 28.2329C59.1023 27.6337 57.858 27.3387 56.604 27.3683C55.35 27.3979 54.1165 27.7514 52.9887 28.4044C52.3437 28.8087 51.6261 29.0216 50.8971 29.0248C47.9529 29.0248 45.5025 25.4961 44.9934 20.8399C45.5804 20.328 46.08 19.6877 46.4655 18.9533C48.1921 15.6399 50.8664 13.5161 53.8689 13.5161C56.8713 13.5161 59.5119 15.6143 61.2293 18.8912C61.7461 19.8768 62.4679 20.6871 63.3247 21.2439C64.1816 21.8007 65.1447 22.085 66.121 22.0696H66.1976C68.5438 22.0696 70.574 24.3065 71.5616 27.5688Z" fill="black" style="fill:black;fill-opacity:1;"/>
<path d="M243.385 94.3441L241.011 96.1358L242.453 93.0158C242.044 92.6288 241.539 92.4144 241.017 92.4064H240.977C240.813 92.4097 240.649 92.3963 240.487 92.3663L239.668 92.9794L240.014 92.2313C239.444 91.9959 238.951 91.5513 238.607 90.9614L237.165 92.0561L238.085 90.0893C237.702 89.5011 237.214 89.0218 236.656 88.686C236.098 88.3502 235.484 88.1664 234.859 88.1479C233.362 88.1479 232.028 89.2062 231.179 90.8592C230.923 91.3554 230.561 91.7619 230.13 92.037C229.699 92.3121 229.214 92.4459 228.725 92.4247H228.646C226.993 92.4247 225.652 94.6579 225.652 97.4057C225.652 100.153 226.993 102.39 228.646 102.39C229.009 102.389 229.367 102.282 229.688 102.08C230.251 101.754 230.866 101.578 231.491 101.563C232.117 101.548 232.737 101.694 233.31 101.993C233.792 102.252 234.315 102.388 234.844 102.39C235.372 102.388 235.894 102.257 236.377 102.004C236.946 101.71 237.561 101.566 238.18 101.579C238.8 101.593 239.41 101.765 239.968 102.084C240.286 102.283 240.64 102.388 240.999 102.39C242.652 102.39 243.992 100.157 243.992 97.4057C244.01 96.3406 243.801 95.2873 243.385 94.3441Z" fill="#F2F2F2" style="fill:#F2F2F2;fill:color(display-p3 0.9490 0.9490 0.9490);fill-opacity:1;"/>
<path opacity="0.03" d="M238.898 101.635C238.035 101.438 237.142 101.553 236.334 101.967C235.852 102.223 235.329 102.355 234.801 102.355C234.273 102.355 233.75 102.223 233.268 101.967C232.695 101.669 232.074 101.522 231.449 101.536C230.824 101.551 230.208 101.726 229.646 102.051C229.324 102.254 228.967 102.362 228.603 102.365C227.134 102.365 225.913 100.602 225.659 98.2812C225.952 98.0263 226.2 97.7066 226.392 97.3397C227.253 95.6867 228.588 94.6284 230.072 94.6284C231.556 94.6284 232.887 95.6757 233.752 97.3069C234.01 97.8029 234.372 98.2106 234.802 98.4902C235.232 98.7698 235.716 98.9115 236.206 98.9015H236.242C237.392 98.8906 238.408 100.007 238.898 101.635Z" fill="black" style="fill:black;fill-opacity:1;"/>
<path d="M248.638 47.814L252.45 50.6932L250.132 45.683C250.788 45.0614 251.6 44.7174 252.438 44.705H252.5C252.764 44.7097 253.029 44.6865 253.291 44.6357L254.585 45.61L254.03 44.4131C254.945 44.0311 255.736 43.3162 256.29 42.3696L258.606 44.1139L257.143 40.9537C258.495 39.0197 260.32 37.8374 262.326 37.8374C264.733 37.8374 266.874 39.5379 268.257 42.1908C268.666 42.9846 269.244 43.6355 269.933 44.0771C270.622 44.5187 271.397 44.7353 272.18 44.705H272.308C274.964 44.705 277.117 48.2884 277.117 52.7075C277.117 57.1265 274.97 60.71 272.308 60.71C271.724 60.7064 271.15 60.5348 270.634 60.21C269.729 59.6852 268.739 59.4013 267.733 59.378C266.727 59.3547 265.728 59.5925 264.807 60.075C264.029 60.4888 263.186 60.7026 262.333 60.7026C261.481 60.7026 260.638 60.4888 259.86 60.075C258.947 59.6031 257.959 59.3706 256.964 59.3932C255.968 59.4159 254.989 59.6932 254.091 60.2064C253.579 60.5239 253.01 60.6915 252.432 60.6954C249.776 60.6954 247.623 57.112 247.623 52.6929C247.613 50.9912 247.963 49.3138 248.638 47.814Z" fill="#F2F2F2" style="fill:#F2F2F2;fill:color(display-p3 0.9490 0.9490 0.9490);fill-opacity:1;"/>
<path opacity="0.03" d="M255.824 59.5243C257.212 59.2097 258.647 59.3952 259.946 60.057C260.724 60.4708 261.567 60.6846 262.419 60.6846C263.272 60.6846 264.115 60.4708 264.893 60.057C265.815 59.5761 266.813 59.3394 267.819 59.3633C268.825 59.3873 269.815 59.6713 270.72 60.1957C271.236 60.5194 271.811 60.6897 272.394 60.692C274.753 60.692 276.716 57.8639 277.127 54.1236C276.654 53.7156 276.252 53.2011 275.946 52.6092C274.563 49.96 272.419 48.2559 270.015 48.2559C267.61 48.2559 265.491 49.9381 264.108 52.5618C263.694 53.3529 263.117 54.0038 262.43 54.4513C261.743 54.8988 260.971 55.1278 260.188 55.1162H260.127C258.244 55.1198 256.615 56.9115 255.824 59.5243Z" fill="black" style="fill:black;fill-opacity:1;"/>
</g>
<defs>
<clipPath id="clip0_296_2">
<rect width="322.02" height="274" fill="white" style="fill:white;fill-opacity:1;" transform="translate(0.490234 0.5)"/>
</clipPath>
</defs>
</svg>
