<svg width="319" height="195" viewBox="0 0 319 195" fill="none" xmlns="http://www.w3.org/2000/svg">
<g clip-path="url(#clip0_282_42)">
<path d="M51.6458 22.6113C49.0849 22.6143 46.6296 23.6678 44.8187 25.5406C43.0078 27.4134 41.9892 29.9527 41.9863 32.6012V141.208C41.9892 143.857 43.0078 146.396 44.8187 148.269C46.6296 150.142 49.0849 151.195 51.6458 151.198H269.315C271.876 151.195 274.331 150.142 276.142 148.269C277.953 146.396 278.972 143.857 278.975 141.208V32.6012C278.972 29.9527 277.953 27.4134 276.142 25.5406C274.331 23.6678 271.876 22.6143 269.315 22.6113H51.6458Z" fill="white" style="fill:white;fill-opacity:1;"/>
<path d="M269.315 151.588H51.6458C48.9849 151.585 46.4339 150.49 44.5524 148.544C42.6709 146.598 41.6125 143.96 41.6095 141.208V32.6012C41.6125 29.8494 42.6709 27.2111 44.5524 25.2652C46.4339 23.3194 48.9849 22.2248 51.6458 22.2217H269.315C271.976 22.2248 274.527 23.3194 276.409 25.2652C278.29 27.2111 279.348 29.8494 279.351 32.6012V141.208C279.348 143.96 278.29 146.598 276.409 148.544C274.527 150.49 271.976 151.585 269.315 151.588ZM51.6458 23.001C49.1847 23.0039 46.8252 24.0162 45.0849 25.816C43.3447 27.6158 42.3658 30.056 42.363 32.6012V141.208C42.3658 143.753 43.3447 146.194 45.0849 147.993C46.8252 149.793 49.1847 150.806 51.6458 150.808H269.315C271.776 150.806 274.136 149.793 275.876 147.993C277.616 146.194 278.595 143.753 278.598 141.208V32.6012C278.595 30.056 277.616 27.6158 275.876 25.816C274.136 24.0162 271.776 23.0039 269.315 23.001H51.6458Z" fill="#2A4755" style="fill:#2A4755;fill:color(display-p3 0.1647 0.2784 0.3333);fill-opacity:1;"/>
<path d="M114.452 145.504C114.469 145.068 113.177 144.661 111.567 144.595C109.957 144.529 108.637 144.829 108.621 145.265C108.604 145.701 109.896 146.108 111.506 146.174C113.117 146.24 114.436 145.94 114.452 145.504Z" fill="#E6E6E6" style="fill:#E6E6E6;fill:color(display-p3 0.9020 0.9020 0.9020);fill-opacity:1;"/>
<path d="M133.028 144.487C133.045 144.051 131.753 143.644 130.143 143.578C128.532 143.511 127.213 143.811 127.197 144.247C127.18 144.684 128.472 145.091 130.082 145.157C131.693 145.223 133.012 144.923 133.028 144.487Z" fill="#2A4755" style="fill:#2A4755;fill:color(display-p3 0.1647 0.2784 0.3333);fill-opacity:1;"/>
<path d="M107.315 139.577C107.332 139.141 106.04 138.733 104.43 138.667C102.819 138.601 101.5 138.901 101.484 139.337C101.467 139.773 102.759 140.181 104.369 140.247C105.979 140.313 107.299 140.013 107.315 139.577Z" fill="#FF6584" style="fill:#FF6584;fill:color(display-p3 1.0000 0.3961 0.5176);fill-opacity:1;"/>
<path d="M98.3433 137.411C98.3862 137.021 97.8435 136.638 97.1311 136.554C96.4188 136.47 95.8065 136.717 95.7636 137.107C95.7207 137.496 96.2634 137.88 96.9758 137.964C97.6881 138.048 98.3004 137.8 98.3433 137.411Z" fill="#E6E6E6" style="fill:#E6E6E6;fill:color(display-p3 0.9020 0.9020 0.9020);fill-opacity:1;"/>
<path d="M94.0563 132.87C94.0992 132.481 93.5565 132.097 92.8441 132.013C92.1318 131.929 91.5195 132.177 91.4766 132.566C91.4337 132.955 91.9764 133.339 92.6888 133.423C93.4011 133.507 94.0134 133.259 94.0563 132.87Z" fill="#2A4755" style="fill:#2A4755;fill:color(display-p3 0.1647 0.2784 0.3333);fill-opacity:1;"/>
<path d="M118.283 140.602C118.326 140.212 117.783 139.829 117.071 139.745C116.359 139.661 115.746 139.908 115.703 140.297C115.661 140.687 116.203 141.071 116.916 141.154C117.628 141.238 118.24 140.991 118.283 140.602Z" fill="#E6E6E6" style="fill:#E6E6E6;fill:color(display-p3 0.9020 0.9020 0.9020);fill-opacity:1;"/>
<path d="M109.782 142.534C109.824 142.144 109.282 141.761 108.569 141.677C107.857 141.593 107.245 141.84 107.202 142.23C107.159 142.619 107.702 143.003 108.414 143.087C109.126 143.171 109.739 142.923 109.782 142.534Z" fill="#FF6584" style="fill:#FF6584;fill:color(display-p3 1.0000 0.3961 0.5176);fill-opacity:1;"/>
<path d="M123.532 145.646C123.575 145.257 123.033 144.873 122.32 144.789C121.608 144.705 120.996 144.953 120.953 145.342C120.91 145.731 121.453 146.115 122.165 146.199C122.877 146.283 123.49 146.035 123.532 145.646Z" fill="#2A4755" style="fill:#2A4755;fill:color(display-p3 0.1647 0.2784 0.3333);fill-opacity:1;"/>
<path d="M1.98445e-06 129.534C-0.000173617 129.595 0.0113064 129.655 0.0337777 129.712C0.0562489 129.768 0.0892713 129.819 0.130942 129.862C0.172614 129.905 0.22211 129.94 0.276589 129.963C0.331068 129.986 0.389452 129.998 0.448382 129.998H318.552C318.671 129.998 318.785 129.949 318.869 129.862C318.953 129.775 319 129.657 319 129.534C319 129.411 318.953 129.293 318.869 129.206C318.785 129.119 318.671 129.07 318.552 129.07H0.448359C0.389432 129.07 0.331053 129.082 0.276578 129.105C0.222102 129.128 0.172605 129.163 0.130937 129.206C0.0892684 129.249 0.0562482 129.3 0.0337777 129.356C0.0113072 129.413 -0.000171602 129.473 1.98445e-06 129.534Z" fill="#CCCCCC" style="fill:#CCCCCC;fill:color(display-p3 0.8000 0.8000 0.8000);fill-opacity:1;"/>
<path d="M108.732 121.342C108.515 121.352 108.3 121.293 108.117 121.173C107.934 121.053 107.791 120.878 107.707 120.671C107.623 120.464 107.603 120.235 107.649 120.016C107.696 119.797 107.806 119.598 107.965 119.446L108.037 119.148C108.028 119.124 108.018 119.1 108.009 119.076C107.79 118.543 107.425 118.088 106.957 117.769C106.49 117.45 105.942 117.281 105.382 117.284C104.822 117.286 104.276 117.459 103.811 117.781C103.346 118.104 102.983 118.561 102.769 119.096C101.912 121.231 100.821 123.369 100.552 125.626C100.434 126.624 100.484 127.635 100.7 128.615C98.687 124.074 97.6418 119.139 97.6351 114.143C97.6347 112.89 97.702 111.637 97.8368 110.392C97.9482 109.37 98.1027 108.356 98.3004 107.35C99.3792 101.888 101.696 96.768 105.059 92.4114C106.687 91.4928 108.003 90.0802 108.831 88.3639C109.131 87.747 109.343 87.0884 109.46 86.4087C109.277 86.4336 108.768 83.5411 108.906 83.3637C108.65 82.9621 108.192 82.7624 107.913 82.3705C106.523 80.4214 104.608 80.7617 103.608 83.4104C101.472 84.5252 101.451 86.374 102.762 88.1522C103.596 89.2835 103.71 90.8142 104.442 92.0253C104.367 92.125 104.288 92.2215 104.213 92.3211C102.837 94.1508 101.638 96.1154 100.633 98.187C100.877 95.8662 100.586 93.5186 99.7816 91.3373C98.9667 89.3044 97.4395 87.5922 96.0945 85.8347C94.479 83.7238 91.1662 84.645 90.8816 87.321C90.8788 87.3469 90.8762 87.3729 90.8735 87.3987C91.0733 87.5153 91.2689 87.639 91.4602 87.7699C91.7006 87.936 91.8868 88.1733 91.9945 88.4507C92.1023 88.7281 92.1265 89.0327 92.0639 89.3246C92.0014 89.6165 91.8551 89.8821 91.6441 90.0865C91.4332 90.2909 91.1674 90.4246 90.8817 90.4702L90.8525 90.4748C90.9236 91.2195 91.0494 91.9574 91.2288 92.6823C89.5034 99.5832 93.2284 102.097 98.5473 102.21C98.6647 102.272 98.7791 102.334 98.8965 102.393C97.8866 105.353 97.2531 108.436 97.0119 111.565C96.8754 113.411 96.8835 115.266 97.036 117.111L97.027 117.045C96.6416 114.994 95.5836 113.143 94.0315 111.805C91.7264 109.847 88.4696 109.126 85.9827 107.552C85.7185 107.376 85.4111 107.282 85.0971 107.282C84.783 107.281 84.4752 107.373 84.2101 107.547C83.945 107.721 83.7336 107.97 83.6008 108.264C83.468 108.559 83.4193 108.886 83.4606 109.208C83.4639 109.231 83.4673 109.254 83.4707 109.277C83.8414 109.433 84.2024 109.613 84.5515 109.816C84.7513 109.932 84.9468 110.056 85.1381 110.187C85.3785 110.353 85.5648 110.59 85.6725 110.868C85.7802 111.145 85.8044 111.45 85.7419 111.742C85.6793 112.033 85.533 112.299 85.3221 112.503C85.1111 112.708 84.8454 112.842 84.5597 112.887L84.5304 112.892C84.5093 112.895 84.4913 112.898 84.4702 112.901C85.1036 114.465 85.9927 115.905 87.0984 117.157C88.1772 123.181 92.8109 123.753 97.7676 121.999H97.7706C98.3144 124.443 99.1024 126.822 100.122 129.097H108.521C108.551 129.001 108.578 128.901 108.605 128.805C107.828 128.855 107.047 128.807 106.281 128.662C106.904 127.871 107.528 127.074 108.151 126.283C108.165 126.268 108.178 126.252 108.19 126.236C108.506 125.831 108.825 125.43 109.141 125.025L109.141 125.024C109.158 123.784 109.02 122.546 108.732 121.342Z" fill="#F2F2F2" style="fill:#F2F2F2;fill:color(display-p3 0.9490 0.9490 0.9490);fill-opacity:1;"/>
<path d="M66.8018 116.522C66.4505 116.539 66.1027 116.443 65.8056 116.249C65.5085 116.054 65.2764 115.77 65.1407 115.435C65.0051 115.099 64.9724 114.728 65.0472 114.373C65.122 114.018 65.3006 113.695 65.5588 113.448C65.6021 113.27 65.6331 113.142 65.6763 112.965C65.6609 112.926 65.6453 112.887 65.6296 112.849C65.2758 111.984 64.6828 111.247 63.9251 110.73C63.1675 110.213 62.279 109.939 61.3713 109.943C60.4636 109.946 59.5771 110.227 58.8232 110.75C58.0693 111.273 57.4816 112.014 57.1339 112.881C55.7444 116.342 53.9753 119.809 53.5397 123.469C53.3479 125.086 53.4288 126.726 53.7789 128.315C50.5153 120.953 48.8206 112.95 48.8097 104.851C48.809 102.818 48.9182 100.788 49.1368 98.7677C49.3174 97.1119 49.568 95.4678 49.8885 93.8355C51.6377 84.979 55.3934 76.678 60.847 69.614C63.4866 68.1246 65.6212 65.8341 66.9633 63.0513C67.4495 62.051 67.7931 60.9831 67.9835 59.881C67.6857 59.9214 66.8608 55.2315 67.0853 54.9438C66.6704 54.2926 65.9277 53.9689 65.4745 53.3334C63.2206 50.1731 60.1153 50.7249 58.4942 55.0195C55.0312 56.8271 54.9977 59.8249 57.1226 62.708C58.4744 64.5423 58.6602 67.0243 59.8464 68.988C59.7243 69.1496 59.5974 69.3061 59.4754 69.4676C57.2446 72.4342 55.3003 75.6198 53.6704 78.9786C54.0668 75.2157 53.5937 71.4093 52.2901 67.8724C50.9689 64.5761 48.4925 61.8 46.3118 58.9504C43.6923 55.5276 38.3209 57.0214 37.8594 61.3604C37.855 61.4024 37.8506 61.4444 37.8463 61.4864C38.1703 61.6753 38.4873 61.8759 38.7976 62.0881C39.1873 62.3574 39.4893 62.7422 39.6639 63.192C39.8386 63.6418 39.8778 64.1358 39.7764 64.609C39.6751 65.0823 39.4378 65.5129 39.0958 65.8443C38.7537 66.1757 38.3229 66.3926 37.8596 66.4665L37.8122 66.474C37.9276 67.6814 38.1315 68.8779 38.4223 70.0533C35.6247 81.2425 41.6646 85.3178 50.2887 85.5009C50.4791 85.6019 50.6646 85.7028 50.855 85.7988C49.2175 90.5982 48.1903 95.5975 47.7993 100.671C47.578 103.664 47.5911 106.671 47.8384 109.662L47.8237 109.556C47.1989 106.23 45.4833 103.229 42.9668 101.06C39.2292 97.8843 33.9486 96.715 29.9163 94.1626C27.9753 92.934 25.488 94.5217 25.8268 96.849C25.8322 96.8862 25.8377 96.9233 25.8432 96.9605C26.4443 97.2137 27.0296 97.5053 27.5956 97.8338C27.9195 98.0228 28.2366 98.2234 28.5468 98.4356C28.9366 98.7049 29.2385 99.0896 29.4132 99.5395C29.5879 99.9893 29.6271 100.483 29.5257 100.956C29.4243 101.43 29.1871 101.86 28.845 102.192C28.503 102.523 28.0721 102.74 27.6089 102.814L27.5614 102.821C27.5272 102.827 27.498 102.832 27.4638 102.837C28.4909 105.373 29.9324 107.707 31.7252 109.738C33.4744 119.505 40.9877 120.432 49.0245 117.588H49.0294C49.9112 121.55 51.1888 125.408 52.8417 129.098H66.4605C66.5093 128.941 66.5533 128.78 66.5972 128.623C65.3366 128.705 64.0711 128.627 62.8288 128.391C63.8392 127.109 64.8497 125.816 65.8601 124.534C65.8826 124.51 65.9038 124.485 65.9236 124.458C66.4361 123.802 66.9535 123.151 67.4661 122.494L67.4663 122.494C67.4937 120.482 67.2704 118.475 66.8022 116.522L66.8018 116.522Z" fill="#F2F2F2" style="fill:#F2F2F2;fill:color(display-p3 0.9490 0.9490 0.9490);fill-opacity:1;"/>
<path d="M253.186 7.54341C252.271 0.295882 236.107 0.758208 234.581 7.57695C233.771 7.05325 231.711 7.41574 230.943 8.01769C230.175 8.61965 229.683 9.50457 229.201 10.3636C228.543 11.5567 227.861 12.7925 227.715 14.1606C227.563 15.5259 228.082 17.0727 229.279 17.6807C230.228 18.1652 232.318 17.838 233.362 17.6211C234.09 17.4713 234.701 17.3402 235.22 17.2115C235.395 16.3629 235.274 15.4779 234.881 14.7118C235.3 14.7979 235.696 14.9789 236.039 15.2419C236.383 15.5049 236.666 15.8433 236.869 16.2328C236.95 16.396 239.912 39.4507 239.912 39.4507C240.721 39.5516 241.538 39.5727 242.352 39.5137C242.857 36.6763 242.948 33.7768 242.624 30.9114C243.482 32.5492 244.16 34.2808 244.647 36.074C244.926 37.077 245.155 38.094 245.334 39.1212C252.381 37.7582 261.909 33.0636 263.647 25.0922C263.638 25.0665 263.628 25.0407 263.618 25.015C263.523 24.7714 263.513 24.5012 263.59 24.2507C263.666 24.0002 263.824 23.785 264.037 23.6419C264.25 23.4988 264.505 23.4368 264.757 23.4664C265.009 23.496 265.244 23.6155 265.421 23.8043C265.633 24.0305 265.823 24.2238 265.983 24.3736C265.365 19.2828 261.631 14.7019 253.186 7.54341Z" fill="#2A4755" style="fill:#2A4755;fill:color(display-p3 0.1647 0.2784 0.3333);fill-opacity:1;"/>
<path d="M150.277 185.042L146.326 182.906L152.592 165.775L158.424 168.929L150.277 185.042Z" fill="#EEB5B5" style="fill:#EEB5B5;fill:color(display-p3 0.9333 0.7098 0.7098);fill-opacity:1;"/>
<path d="M134.334 184.836C134.089 185.321 134.041 185.886 134.198 186.407C134.356 186.929 134.708 187.365 135.176 187.619L143.033 191.866L145.848 189.702L144.914 192.881L147.878 194.486L152.266 183.707L151.266 183.087L147.19 180.548L145.874 179.732L144.395 182.656L135.855 183.745C135.535 183.786 135.229 183.907 134.964 184.097C134.699 184.287 134.483 184.54 134.334 184.836Z" fill="#2A4755" style="fill:#2A4755;fill:color(display-p3 0.1647 0.2784 0.3333);fill-opacity:1;"/>
<path d="M146.229 121.978L143.355 118.453L155.43 105.055L159.672 110.258L146.229 121.978Z" fill="#EEB5B5" style="fill:#EEB5B5;fill:color(display-p3 0.9333 0.7098 0.7098);fill-opacity:1;"/>
<path d="M131.55 115.54C131.146 115.892 130.894 116.396 130.849 116.941C130.804 117.486 130.97 118.027 131.31 118.445L137.025 125.454L140.423 124.555L138.394 127.131L140.548 129.778L148.559 121.522L147.86 120.557L145.019 116.61L144.1 115.338L141.66 117.465L133.358 115.126C133.046 115.039 132.719 115.031 132.405 115.103C132.09 115.175 131.797 115.325 131.55 115.54Z" fill="#2A4755" style="fill:#2A4755;fill:color(display-p3 0.1647 0.2784 0.3333);fill-opacity:1;"/>
<path d="M272.982 108.767C272.982 108.767 285.184 135.778 234.653 128.499C234.653 128.499 207.731 97.6434 208.509 93.9308C208.509 93.9308 197.051 81.8894 197.612 81.6702C198.172 81.451 198.518 80.9748 197.592 81.0181C196.665 81.0613 196.665 79.635 196.665 79.635C196.665 79.635 175.957 102.86 158.521 114.384L152.493 107.371C152.493 107.371 154.844 99.7648 155.974 99.7648C157.104 99.7648 157.494 100.046 157.676 98.5415C157.858 97.0372 156.958 95.7455 158.161 95.6121C159.365 95.4786 184.31 65.3271 184.31 65.3271C184.31 65.3271 187.001 55.396 195.224 57.3182C203.447 59.2405 246.175 95.1672 246.175 95.1672L272.982 108.767Z" fill="#2A4755" style="fill:#2A4755;fill:color(display-p3 0.1647 0.2784 0.3333);fill-opacity:1;"/>
<path d="M252.405 129.375L185.648 128.802L156.637 176.34L148.439 171.852L150.256 171.058C150.256 171.058 149.706 164.451 150.38 162.778C151.054 161.106 153.059 161.609 153.059 161.609L169.973 121.268C171.14 117.687 173.431 114.613 176.483 112.536C179.535 110.458 183.171 109.496 186.813 109.804C200.808 107.693 223.527 109.379 247.13 111.451L252.405 129.375Z" fill="#2A4755" style="fill:#2A4755;fill:color(display-p3 0.1647 0.2784 0.3333);fill-opacity:1;"/>
<path d="M213.755 48.4701C215.026 48.6715 216.17 49.3778 216.945 50.4386C217.72 51.4995 218.064 52.8311 217.904 54.1503C217.867 54.4179 217.809 54.6819 217.731 54.9396L231.448 65.7002L228.617 74.8197L211.367 57.978C210.359 57.5576 209.514 56.804 208.964 55.8346C208.414 54.8653 208.189 53.7348 208.325 52.6197C208.409 51.9859 208.612 51.3753 208.923 50.8227C209.235 50.2702 209.649 49.7865 210.141 49.3994C210.633 49.0122 211.195 48.7291 211.793 48.5663C212.391 48.4034 213.014 48.364 213.627 48.4503C213.67 48.4563 213.712 48.4629 213.755 48.4701Z" fill="#EEB5B5" style="fill:#EEB5B5;fill:color(display-p3 0.9333 0.7098 0.7098);fill-opacity:1;"/>
<path d="M274.269 49.1415L269.337 63.2626L250.05 91.4504C250.05 91.4504 249.892 91.3802 249.606 91.2556C247.948 90.5152 241.927 87.7954 236.264 84.7054C230.948 81.8025 225.941 78.5722 225.165 76.3512C225.082 76.1174 225.006 75.8914 224.939 75.6732V75.6693C224.577 74.5383 224.351 73.3658 224.264 72.178C224.2 71.2623 224.257 70.7713 224.136 70.7129C224.042 70.67 223.846 70.8804 223.413 71.3558C223.382 71.387 223.356 71.4181 223.326 71.4454C221.759 73.0703 219.833 72.8599 220.304 72.0883C220.787 71.2973 220.534 71.3129 219.826 70.4869C219.298 69.8712 217.584 67.4631 216.74 66.2747C216.45 65.8655 216.265 65.6006 216.265 65.6006L216.555 65.1291L217.358 63.8276L221.175 57.6399L221.386 57.3009C221.386 57.3009 229.23 59.1751 230.274 60.9559C231.321 62.7366 228.695 62.6781 231.321 62.7366C233.947 62.795 236.626 59.1011 234.708 62.7755C232.79 66.4461 233.295 67.7281 235.669 67.1475C236.633 66.9098 238.159 67.6618 239.629 68.636V68.6399C240.548 69.2573 241.434 69.9246 242.285 70.6388C243.193 71.3947 243.807 71.9675 243.807 71.9675L258.705 40.7093L260.355 37.2491C260.858 36.1962 261.559 35.2576 262.416 34.4882C263.274 33.7188 264.272 33.134 265.351 32.7681L265.867 33.6993C269.081 38.5943 271.891 43.7599 274.269 49.1415Z" fill="#41C1BA" style="fill:#41C1BA;fill:color(display-p3 0.2549 0.7569 0.7294);fill-opacity:1;"/>
<path d="M275.094 93.9599C279.661 95.0587 274.803 129.436 269.36 129.543C229.799 130.323 241.844 107.368 239.723 105.17C237.602 102.969 235.688 104.547 237.602 101.122C238.996 98.628 241.064 98.9982 241.094 97.5993C241.109 97.0772 240.842 96.3134 240.149 95.0587C237.602 90.4452 237.602 89.0697 237.602 89.0697C236.967 87.6844 236.517 86.2162 236.264 84.7056C235.851 82.4593 235.8 80.1578 236.114 77.8943C236.592 74.5739 237.794 71.4093 239.629 68.64V68.6361C239.821 68.34 240.021 68.0399 240.232 67.7438C240.71 67.0697 243.363 67.1983 243.363 67.1983L249.014 42.6499L245.744 32.8617L261.233 25.3569L265.351 32.7682L265.867 33.6995C269.081 38.5945 271.891 43.76 274.269 49.1416C276.556 54.4058 278.436 60.2507 278.504 65.3357C278.685 78.5957 276.473 82.5391 276.473 82.5391C276.473 82.5391 281.842 86.6889 279.156 89.2256C276.473 91.7661 270.528 92.8611 275.094 93.9599Z" fill="#41C1BA" style="fill:#41C1BA;fill:color(display-p3 0.2549 0.7569 0.7294);fill-opacity:1;"/>
<path d="M204.925 45.2404L202.397 47.2257C201.898 47.6206 201.571 48.2039 201.486 48.8479C201.402 49.492 201.568 50.1443 201.948 50.6619L208.035 58.9358L211.629 63.8171C212.01 64.3326 212.573 64.6709 213.195 64.7578C213.817 64.8447 214.447 64.6732 214.946 64.2808L217.477 62.293C217.974 61.8971 218.299 61.3142 218.383 60.6711C218.466 60.028 218.301 59.3768 217.923 58.8592L217.55 58.3494L210.176 48.3305L208.242 45.7041C208.054 45.4483 207.818 45.2333 207.55 45.0716C207.281 44.9098 206.984 44.8044 206.676 44.7613C206.368 44.7182 206.055 44.7384 205.754 44.8206C205.454 44.9028 205.172 45.0454 204.925 45.2404Z" fill="#2A4755" style="fill:#2A4755;fill:color(display-p3 0.1647 0.2784 0.3333);fill-opacity:1;"/>
<path d="M206.246 45.0903L203.524 47.0545C203.284 47.2169 203.08 47.43 202.925 47.6799C202.77 47.9298 202.669 48.2108 202.627 48.5043C202.585 48.7977 202.603 49.0971 202.681 49.3826C202.76 49.6681 202.895 49.9332 203.08 50.1605L206.643 54.601L208.542 56.9665L209.809 58.5448L212.643 62.0755C213.043 62.5492 213.598 62.8539 214.202 62.9316C214.806 63.0092 215.417 62.8545 215.917 62.4967L217.957 61.025L218.636 60.5354C218.974 60.3021 219.238 59.9706 219.395 59.5825C219.552 59.1944 219.594 58.7671 219.517 58.3542C219.449 58.0111 219.299 57.6911 219.081 57.4231L210.708 46.9884L209.521 45.5116C209.121 45.0372 208.565 44.7321 207.961 44.6543C207.357 44.5766 206.747 44.7319 206.246 45.0903Z" fill="#41C1BA" style="fill:#41C1BA;fill:color(display-p3 0.2549 0.7569 0.7294);fill-opacity:1;"/>
<path d="M207.986 56.0575C209.257 56.2589 210.401 56.9652 211.176 58.0261C211.951 59.0869 212.295 60.4186 212.135 61.7377C212.098 62.0053 212.04 62.2693 211.962 62.527L225.679 73.2876L222.848 82.4071L205.598 65.5654C204.59 65.145 203.745 64.3914 203.195 63.422C202.644 62.4527 202.42 61.3223 202.556 60.2071C202.64 59.5733 202.843 58.9627 203.154 58.4101C203.466 57.8576 203.88 57.3739 204.372 56.9868C204.864 56.5996 205.426 56.3165 206.024 56.1537C206.622 55.9908 207.245 55.9514 207.858 56.0377C207.901 56.0437 207.943 56.0503 207.986 56.0575Z" fill="#EEB5B5" style="fill:#EEB5B5;fill:color(display-p3 0.9333 0.7098 0.7098);fill-opacity:1;"/>
<path d="M263.93 40.099C265.129 40.3515 266.262 40.868 267.251 41.6135C268.239 42.359 269.061 43.316 269.66 44.4194C270.26 45.5227 270.622 46.7466 270.723 48.0078C270.824 49.2689 270.661 50.5378 270.246 51.728L263.57 70.8495L244.28 99.0398C244.28 99.0398 221.146 88.934 219.395 83.9389C217.643 78.9439 219.225 77.2203 217.643 78.9439C216.061 80.6674 214.056 80.4631 214.536 79.6743C215.016 78.8856 214.764 78.9024 214.057 78.0761C213.35 77.2499 210.497 73.1896 210.497 73.1896L215.616 64.8894C215.616 64.8894 223.461 66.7623 224.506 68.5441C225.551 70.326 222.924 70.2677 225.551 70.326C228.178 70.3842 230.858 66.6889 228.939 70.3623C227.02 74.0358 227.526 75.3164 229.9 74.7343C232.274 74.1523 238.036 79.5561 238.036 79.5561L254.587 44.8378C255.42 43.0915 256.788 41.6795 258.478 40.8222C260.168 39.9649 262.086 39.7106 263.93 40.099Z" fill="#41C1BA" style="fill:#41C1BA;fill:color(display-p3 0.2549 0.7569 0.7294);fill-opacity:1;"/>
<path d="M254.06 28.5884C258.855 23.6289 258.855 15.5879 254.06 10.6283C249.264 5.6688 241.489 5.66881 236.694 10.6283C231.898 15.5879 231.898 23.6289 236.694 28.5884C241.489 33.548 249.264 33.548 254.06 28.5884Z" fill="#EEB5B5" style="fill:#EEB5B5;fill:color(display-p3 0.9333 0.7098 0.7098);fill-opacity:1;"/>
<path d="M259.736 5.77339C258.822 -1.47414 242.657 -1.01181 241.131 5.80693C240.321 5.28323 238.262 5.64572 237.494 6.24767C236.726 6.84963 236.233 7.73455 235.751 8.59356C235.093 9.78669 230.489 13.8233 229.799 12.6464C228.246 9.99785 225.201 15.7854 227.538 19.6602C228.099 20.5893 238.928 19.0978 239.972 18.8809C239.453 19.0095 240.7 18.7311 239.972 18.8809C240.139 18.0403 241.831 13.697 241.431 12.9418C241.85 13.0279 242.246 13.2089 242.59 13.4719C242.934 13.7349 243.217 14.0732 243.419 14.4628C243.501 14.6259 246.462 37.6807 246.462 37.6807C247.272 37.7816 248.089 37.8027 248.902 37.7436C249.407 34.9063 249.499 32.0068 249.175 29.1414C250.032 30.7792 250.711 32.5107 251.198 34.304C251.476 35.3069 251.706 36.324 251.884 37.3512C258.932 35.9882 268.459 31.2936 270.198 23.3221C260.694 20.0499 268.182 12.9319 259.736 5.77339Z" fill="#2A4755" style="fill:#2A4755;fill:color(display-p3 0.1647 0.2784 0.3333);fill-opacity:1;"/>
<path d="M152.25 42.193C152.407 41.0735 151.274 39.9761 149.718 39.742C148.161 39.5079 146.772 40.2256 146.615 41.3451C146.457 42.4645 147.591 43.5619 149.147 43.796C150.703 44.0302 152.092 43.3124 152.25 42.193Z" fill="#E6E6E6" style="fill:#E6E6E6;fill:color(display-p3 0.9020 0.9020 0.9020);fill-opacity:1;"/>
<path d="M170.776 40.3233C170.934 39.2038 169.8 38.1065 168.244 37.8724C166.688 37.6382 165.299 38.3559 165.141 39.4754C164.984 40.5949 166.117 41.6923 167.673 41.9264C169.229 42.1605 170.619 41.4428 170.776 40.3233Z" fill="#2A4755" style="fill:#2A4755;fill:color(display-p3 0.1647 0.2784 0.3333);fill-opacity:1;"/>
<path d="M147.177 26.6813C147.334 25.5618 146.2 24.4644 144.644 24.2303C143.088 23.9961 141.699 24.7139 141.542 25.8334C141.384 26.9528 142.518 28.0502 144.074 28.2843C145.63 28.5184 147.019 27.8007 147.177 26.6813Z" fill="#FF6584" style="fill:#FF6584;fill:color(display-p3 1.0000 0.3961 0.5176);fill-opacity:1;"/>
<path d="M139.127 20.3276C139.134 19.2999 138.58 18.4624 137.888 18.457C137.197 18.4516 136.631 19.2803 136.623 20.3081C136.616 21.3358 137.17 22.1733 137.861 22.1787C138.553 22.1841 139.119 21.3554 139.127 20.3276Z" fill="#E6E6E6" style="fill:#E6E6E6;fill:color(display-p3 0.9020 0.9020 0.9020);fill-opacity:1;"/>
<path d="M136.397 8.49317C136.404 7.46544 135.85 6.62792 135.158 6.62251C134.467 6.6171 133.901 7.44586 133.893 8.4736C133.886 9.50133 134.44 10.3389 135.131 10.3443C135.823 10.3497 136.389 9.52091 136.397 8.49317Z" fill="#2A4755" style="fill:#2A4755;fill:color(display-p3 0.1647 0.2784 0.3333);fill-opacity:1;"/>
<path d="M157.626 29.3213C157.633 28.2936 157.079 27.456 156.388 27.4506C155.696 27.4452 155.13 28.274 155.122 29.3017C155.115 30.3295 155.669 31.167 156.36 31.1724C157.052 31.1778 157.618 30.349 157.626 29.3213Z" fill="#E6E6E6" style="fill:#E6E6E6;fill:color(display-p3 0.9020 0.9020 0.9020);fill-opacity:1;"/>
<path d="M148.673 33.9439C148.681 32.9161 148.126 32.0786 147.435 32.0732C146.744 32.0678 146.177 32.8966 146.17 33.9243C146.162 34.952 146.716 35.7895 147.408 35.7949C148.099 35.8004 148.666 34.9716 148.673 33.9439Z" fill="#FF6584" style="fill:#FF6584;fill:color(display-p3 1.0000 0.3961 0.5176);fill-opacity:1;"/>
<path d="M161.136 42.4883C161.143 41.4606 160.589 40.623 159.897 40.6176C159.206 40.6122 158.64 41.441 158.632 42.4687C158.625 43.4964 159.179 44.334 159.87 44.3394C160.562 44.3448 161.128 43.516 161.136 42.4883Z" fill="#2A4755" style="fill:#2A4755;fill:color(display-p3 0.1647 0.2784 0.3333);fill-opacity:1;"/>
<path d="M203.904 53.4165C204.074 53.2913 203.966 52.8351 203.663 52.3974C203.361 51.9597 202.978 51.7064 202.809 51.8315C202.64 51.9567 202.748 52.4129 203.05 52.8506C203.353 53.2883 203.735 53.5416 203.904 53.4165Z" fill="#2A4755" style="fill:#2A4755;fill:color(display-p3 0.1647 0.2784 0.3333);fill-opacity:1;"/>
<path d="M202.774 51.8579C202.943 51.7327 202.835 51.2765 202.533 50.8388C202.23 50.4011 201.848 50.1478 201.679 50.2729C201.509 50.3981 201.617 50.8543 201.92 51.292C202.222 51.7297 202.605 51.983 202.774 51.8579Z" fill="#2A4755" style="fill:#2A4755;fill:color(display-p3 0.1647 0.2784 0.3333);fill-opacity:1;"/>
</g>
<defs>
<clipPath id="clip0_282_42">
<rect width="319" height="193.972" fill="white" style="fill:white;fill-opacity:1;" transform="translate(0 0.513672)"/>
</clipPath>
</defs>
</svg>
