<svg width="323" height="350" viewBox="0 0 323 350" fill="none" xmlns="http://www.w3.org/2000/svg">
<g clip-path="url(#clip0_389_299)">
<path d="M130.452 281.682C129.849 280.629 127.242 281.757 126.763 280.801C126.285 279.849 128.708 278.398 130.091 275.083C130.341 274.486 131.913 270.719 130.749 269.557C128.543 267.354 118.445 276.445 114.911 273.47C114.136 272.817 113.594 271.514 111.247 269.398C110.313 268.556 109.748 268.176 109.202 268.317C108.426 268.518 108.365 269.593 107.534 271.708C106.287 274.879 105.549 274.687 104.823 277.217C104.283 279.096 104.407 280.187 103.772 280.4C102.874 280.701 102.047 278.709 100.909 278.887C99.7479 279.07 99.0457 281.389 98.824 283.126C98.4078 286.385 99.5626 288.535 100.203 290.797C100.898 293.254 101.311 296.991 99.7048 302.282L83.8049 348.708C87.3151 339.181 97.4788 313.067 101.75 303.362C102.983 300.561 104.344 297.719 107.139 296.598C109.83 295.518 113.526 296.163 118.238 294.986C118.788 294.849 120.315 294.446 120.507 293.516C120.666 292.746 119.768 292.317 119.906 291.596C120.091 290.629 121.857 290.617 124.028 289.502C125.558 288.715 126.512 287.78 127.332 286.976C127.579 286.733 131.254 283.084 130.452 281.682Z" fill="#F2F2F2" style="fill:#F2F2F2;fill:color(display-p3 0.9490 0.9490 0.9490);fill-opacity:1;"/>
<path d="M67.8969 306.123C67.2243 306.125 67.0061 307.776 66.4152 307.745C65.8264 307.713 65.8382 306.062 64.6678 304.402C64.4567 304.103 63.1266 302.216 62.2403 302.473C60.5603 302.959 61.9523 310.719 59.5237 311.658C58.9908 311.864 58.2171 311.763 56.5377 312.347C55.8696 312.579 55.5267 312.756 55.436 313.075C55.3073 313.527 55.7989 313.869 56.5604 314.902C57.7025 316.451 57.399 316.771 58.3876 317.87C59.1215 318.687 59.6742 318.939 59.5918 319.323C59.4753 319.867 58.2933 319.712 58.0494 320.343C57.8005 320.986 58.6965 322.012 59.455 322.626C60.8783 323.778 62.23 323.811 63.4856 324.138C64.8502 324.494 66.7392 325.362 68.7813 327.705L86.1808 349.188C82.682 344.654 73.2467 331.949 69.8831 326.977C68.912 325.542 67.9591 324.029 68.2345 322.284C68.4996 320.604 69.8712 318.91 70.6736 316.174C70.7673 315.854 71.0172 314.961 70.6319 314.595C70.3133 314.292 69.8507 314.625 69.5492 314.347C69.1447 313.974 69.6488 313.072 69.7468 311.646C69.8159 310.641 69.6481 309.886 69.5037 309.237C69.4602 309.041 68.7922 306.119 67.8969 306.123Z" fill="#F2F2F2" style="fill:#F2F2F2;fill:color(display-p3 0.9490 0.9490 0.9490);fill-opacity:1;"/>
<path d="M81.3146 309.244L80.9094 305.495L81.0946 305.211C81.9513 303.897 82.388 302.614 82.3932 301.395C82.3941 301.202 82.3853 301.008 82.3766 300.811C82.3417 300.029 82.298 299.057 82.7871 297.924C83.0613 297.292 83.8316 295.829 84.9896 296.01C85.3014 296.056 85.5372 296.204 85.7162 296.378C85.7424 296.334 85.7695 296.291 85.7983 296.244C86.159 295.674 86.4445 295.429 86.7196 295.194C86.931 295.013 87.1493 294.827 87.4916 294.385C87.6418 294.191 87.7589 294.021 87.8576 293.878C88.1571 293.445 88.5484 292.93 89.2383 292.939C89.9754 292.975 90.3614 293.607 90.6173 294.025C91.074 294.77 91.281 295.308 91.4181 295.665C91.4679 295.795 91.5246 295.942 91.5535 295.987C91.791 296.349 93.7219 296.01 94.4494 295.887C96.0834 295.605 97.4973 295.361 98.0798 296.428C98.4973 297.192 98.1872 298.202 97.1305 299.511C96.8012 299.918 96.451 300.228 96.1401 300.47C96.3978 300.63 96.6283 300.874 96.7218 301.258C96.9419 302.167 96.1882 303.077 94.4826 303.968C94.059 304.19 93.4887 304.487 92.6897 304.63C92.3133 304.697 91.9744 304.713 91.6845 304.722C91.6783 304.896 91.6391 305.084 91.5369 305.278C91.2373 305.848 90.6138 306.12 89.6741 306.055C88.6401 305.999 87.7886 305.794 87.0375 305.615C86.3817 305.459 85.8166 305.327 85.373 305.358C84.5503 305.427 83.9163 306.109 83.1722 306.994L81.3146 309.244Z" fill="#F2F2F2" style="fill:#F2F2F2;fill:color(display-p3 0.9490 0.9490 0.9490);fill-opacity:1;"/>
<path d="M83.1944 286.924L79.7981 288.281L79.4859 288.167C78.042 287.642 76.7334 287.53 75.595 287.833C75.414 287.882 75.2355 287.94 75.0535 287.998C74.3325 288.232 73.4363 288.522 72.2546 288.319C71.5954 288.205 70.0349 287.803 69.9101 286.597C69.8733 286.273 69.952 285.999 70.0688 285.775C70.0216 285.76 69.9742 285.744 69.923 285.727C69.2993 285.51 68.9988 285.285 68.7093 285.069C68.4868 284.903 68.2574 284.732 67.7583 284.501C67.5394 284.399 67.3509 284.325 67.1924 284.262C66.7126 284.072 66.1319 283.811 65.9653 283.117C65.8122 282.369 66.3039 281.821 66.6293 281.459C67.2095 280.812 67.6588 280.468 67.9569 280.24C68.0659 280.157 68.1883 280.063 68.2233 280.023C68.5009 279.693 67.6952 277.843 67.3958 277.145C66.7178 275.578 66.131 274.223 66.9801 273.368C67.5872 272.756 68.6086 272.811 70.0982 273.538C70.5618 273.765 70.9396 274.037 71.2448 274.287C71.3282 273.989 71.4977 273.696 71.8322 273.505C72.6246 273.054 73.6655 273.578 74.9294 275.062C75.2447 275.43 75.6664 275.926 76.0026 276.691C76.1605 277.052 76.2617 277.387 76.3437 277.675C76.5075 277.638 76.6931 277.629 76.8998 277.682C77.508 277.838 77.9196 278.394 78.0971 279.353C78.307 280.404 78.3321 281.309 78.3553 282.107C78.3764 282.804 78.3964 283.404 78.5376 283.841C78.8105 284.649 79.6083 285.111 80.6232 285.632L83.1944 286.924Z" fill="#F2F2F2" style="fill:#F2F2F2;fill:color(display-p3 0.9490 0.9490 0.9490);fill-opacity:1;"/>
<path d="M81.3146 275.88L80.9094 272.131L81.0946 271.847C81.9513 270.533 82.388 269.249 82.3932 268.031C82.3941 267.838 82.3853 267.644 82.3766 267.447C82.3417 266.665 82.298 265.693 82.7871 264.559C83.0613 263.928 83.8316 262.465 84.9896 262.646C85.3014 262.691 85.5372 262.84 85.7162 263.014C85.7424 262.97 85.7695 262.927 85.7983 262.88C86.159 262.309 86.4445 262.065 86.7196 261.83C86.931 261.649 87.1493 261.462 87.4916 261.021C87.6418 260.827 87.7589 260.657 87.8576 260.514C88.1571 260.081 88.5484 259.565 89.2383 259.574C89.9754 259.611 90.3614 260.242 90.6173 260.66C91.074 261.406 91.281 261.944 91.4181 262.3C91.4679 262.431 91.5246 262.577 91.5535 262.623C91.791 262.985 93.7219 262.646 94.4494 262.523C96.0834 262.241 97.4973 261.996 98.0798 263.064C98.4973 263.828 98.1872 264.838 97.1305 266.147C96.8012 266.554 96.451 266.864 96.1401 267.106C96.3978 267.266 96.6283 267.51 96.7218 267.894C96.9419 268.802 96.1882 269.713 94.4826 270.603C94.059 270.826 93.4887 271.123 92.6897 271.266C92.3133 271.333 91.9744 271.349 91.6845 271.358C91.6783 271.532 91.6391 271.72 91.5369 271.914C91.2373 272.484 90.6138 272.756 89.6741 272.69C88.6401 272.634 87.7886 272.43 87.0375 272.251C86.3817 272.095 85.8166 271.963 85.373 271.994C84.5503 272.062 83.9163 272.745 83.1722 273.63L81.3146 275.88Z" fill="#F2F2F2" style="fill:#F2F2F2;fill:color(display-p3 0.9490 0.9490 0.9490);fill-opacity:1;"/>
<path d="M85.0159 348.647L84.2578 348.154L83.374 348.259C83.36 348.174 83.312 347.979 83.2395 347.673C82.8439 345.997 81.6379 340.896 80.6318 332.862C79.9296 327.255 79.5323 321.489 79.4502 315.724C79.3681 309.95 79.6318 305.579 79.8432 302.065C80.003 299.415 80.1969 296.892 80.3873 294.434C80.8938 287.867 81.3715 281.663 81.016 274.796C80.9374 273.263 80.7724 270.071 78.9733 266.676C77.9297 264.706 76.4922 262.958 74.7002 261.481L75.8145 260.029C77.7926 261.662 79.3829 263.598 80.5418 265.785C82.5365 269.55 82.7164 273.027 82.8029 274.698C83.1644 281.687 82.6815 287.95 82.1697 294.58C81.9811 297.029 81.7872 299.542 81.6282 302.181C81.4186 305.662 81.1575 309.995 81.2387 315.695C81.3191 321.392 81.7121 327.086 82.4046 332.623C83.3985 340.555 84.5871 345.58 84.9774 347.231C85.1853 348.113 85.229 348.297 85.0159 348.647Z" fill="#F2F2F2" style="fill:#F2F2F2;fill:color(display-p3 0.9490 0.9490 0.9490);fill-opacity:1;"/>
<path d="M71.42 264.425C71.3467 264.425 71.2724 264.424 71.1973 264.418C69.6743 264.333 68.2638 263.388 67.0045 261.611C66.4142 260.774 66.112 259.821 65.5094 257.918C65.416 257.625 64.9618 256.137 64.6858 254.09C64.5051 252.752 64.5278 252.193 64.7837 251.699C65.0675 251.148 65.5269 250.765 66.0439 250.506C66.0212 250.328 66.0395 250.145 66.1137 249.959C66.4185 249.186 67.229 249.287 67.6674 249.336C67.8892 249.365 68.166 249.403 68.4647 249.387C68.9346 249.364 69.187 249.219 69.5695 249.001C69.9354 248.793 70.3904 248.534 71.0655 248.391C72.3964 248.104 73.5116 248.495 73.8793 248.623C75.8137 249.291 76.7674 250.85 77.8712 252.654C78.0913 253.016 78.8467 254.334 79.3454 256.141C79.7052 257.444 79.6546 258.023 79.5463 258.454C79.3262 259.339 78.8066 259.846 77.487 260.965C76.1089 262.136 75.4172 262.722 74.8233 263.079C73.4409 263.906 72.5728 264.425 71.42 264.425Z" fill="#F2F2F2" style="fill:#F2F2F2;fill:color(display-p3 0.9490 0.9490 0.9490);fill-opacity:1;"/>
<path d="M155.201 345.474L159.885 345.474L162.113 326.751L155.2 326.751L155.201 345.474Z" fill="#FFB6B6" style="fill:#FFB6B6;fill:color(display-p3 1.0000 0.7137 0.7137);fill-opacity:1;"/>
<path d="M171.248 345.364C171.394 345.619 171.471 346.44 171.471 346.736C171.471 347.646 170.759 348.384 169.881 348.384H155.376C154.777 348.384 154.292 347.881 154.292 347.26V346.634C154.292 346.634 153.574 344.753 155.051 342.435C155.051 342.435 156.888 344.25 159.631 341.407L160.44 339.888L166.297 344.327L169.543 344.741C170.253 344.831 170.883 344.727 171.248 345.364Z" fill="#2A4755" style="fill:#2A4755;fill:color(display-p3 0.1647 0.2784 0.3333);fill-opacity:1;"/>
<path d="M140.926 345.474L145.61 345.474L147.838 326.751L140.925 326.751L140.926 345.474Z" fill="#FFB6B6" style="fill:#FFB6B6;fill:color(display-p3 1.0000 0.7137 0.7137);fill-opacity:1;"/>
<path d="M156.974 345.364C157.119 345.619 157.196 346.44 157.196 346.736C157.196 347.646 156.485 348.384 155.607 348.384H141.101C140.503 348.384 140.017 347.881 140.017 347.26V346.634C140.017 346.634 139.299 344.753 140.777 342.435C140.777 342.435 142.613 344.25 145.356 341.407L146.166 339.888L152.022 344.327L155.268 344.741C155.979 344.831 156.608 344.727 156.974 345.364Z" fill="#2A4755" style="fill:#2A4755;fill:color(display-p3 0.1647 0.2784 0.3333);fill-opacity:1;"/>
<path d="M160.612 264.619L165.608 284.669L163.11 336.157L151.333 336.974L150.62 307.335L149.192 337.846L137.059 335.231L136.345 268.106L160.612 264.619Z" fill="#2A4755" style="fill:#2A4755;fill:color(display-p3 0.1647 0.2784 0.3333);fill-opacity:1;"/>
<path d="M112.247 197.112C110.635 194.181 107.868 192.666 106.068 193.73C104.268 194.793 104.116 198.031 105.729 200.964C106.358 202.144 107.25 203.152 108.332 203.901L115.313 216.233L120.828 212.714L113.36 200.931C113.288 199.584 112.907 198.275 112.247 197.112Z" fill="#FFB6B6" style="fill:#FFB6B6;fill:color(display-p3 1.0000 0.7137 0.7137);fill-opacity:1;"/>
<path d="M143.975 240.645C143.975 240.645 137.358 250.097 133.311 246.719C129.264 243.342 106.905 205.376 106.905 205.376L115.778 200.448L143.975 240.645Z" fill="#41C1BA" style="fill:#41C1BA;fill:color(display-p3 0.2549 0.7569 0.7294);fill-opacity:1;"/>
<path d="M137.772 229.115L146.337 215.801L154.902 219.5L152.761 231.334L137.772 229.115Z" fill="#FFB6B6" style="fill:#FFB6B6;fill:color(display-p3 1.0000 0.7137 0.7137);fill-opacity:1;"/>
<path d="M138.486 226.157L153.474 225.417L163.467 228.376L165.608 283.111L135.631 280.152V251.288L131.349 236.512L138.486 226.157Z" fill="#41C1BA" style="fill:#41C1BA;fill:color(display-p3 0.2549 0.7569 0.7294);fill-opacity:1;"/>
<path d="M163.222 263.078C162.696 261.486 162.486 259.805 162.622 258.128C163.005 253.396 163.077 244.123 158.423 239.934L155.794 236.983C155.739 236.921 155.678 236.869 155.622 236.809L159.972 226.213L157.344 225.055L153.307 234.89C151.516 233.76 149.45 233.135 147.314 233.135C144.846 233.135 142.487 233.969 140.538 235.437L138.076 226.088L135.322 226.868L138.4 237.53C138.288 237.671 138.166 237.801 138.06 237.949L136.556 240.041C136.19 240.55 135.786 241.023 135.348 241.468C134.424 242.405 132.623 244.68 132.606 248.183C132.6 249.381 132.362 250.566 132.01 251.707L130.222 257.497C130.054 258.041 129.922 258.594 129.833 259.157C129.045 264.115 126.316 287.474 144.965 287.006C162.349 286.57 163.493 275.6 163.392 271.957C163.37 271.166 163.438 270.382 163.58 269.605C163.841 268.18 164.076 265.658 163.222 263.078Z" fill="#2A4755" style="fill:#2A4755;fill:color(display-p3 0.1647 0.2784 0.3333);fill-opacity:1;"/>
<path d="M241.756 26.6401L243.382 52.6517L222.94 57.5126L224.364 36.4811L241.756 26.6401Z" fill="#FFB6B6" style="fill:#FFB6B6;fill:color(display-p3 1.0000 0.7137 0.7137);fill-opacity:1;"/>
<path d="M243.313 342.767L234.098 342.766L229.715 305.934L243.314 305.935L243.313 342.767Z" fill="#FFB6B6" style="fill:#FFB6B6;fill:color(display-p3 1.0000 0.7137 0.7137);fill-opacity:1;"/>
<path d="M211.744 342.55C211.457 343.051 211.305 344.667 211.305 345.25C211.305 347.04 212.706 348.491 214.433 348.491H242.968C244.146 348.491 245.101 347.501 245.101 346.28V345.049C245.101 345.049 246.513 341.348 243.607 336.787C243.607 336.787 239.995 340.359 234.597 334.765L233.006 331.777L221.484 340.509L215.098 341.324C213.701 341.502 212.462 341.296 211.744 342.55Z" fill="#2A4755" style="fill:#2A4755;fill:color(display-p3 0.1647 0.2784 0.3333);fill-opacity:1;"/>
<path d="M268.293 342.767L259.079 342.766L254.696 305.934L268.295 305.935L268.293 342.767Z" fill="#FFB6B6" style="fill:#FFB6B6;fill:color(display-p3 1.0000 0.7137 0.7137);fill-opacity:1;"/>
<path d="M236.724 342.55C236.437 343.051 236.286 344.667 236.286 345.25C236.286 347.04 237.686 348.491 239.413 348.491H267.948C269.127 348.491 270.082 347.501 270.082 346.28V345.049C270.082 345.049 271.494 341.348 268.587 336.787C268.587 336.787 264.975 340.359 259.578 334.765L257.986 331.777L246.465 340.509L240.079 341.324C238.682 341.502 237.443 341.296 236.724 342.55Z" fill="#2A4755" style="fill:#2A4755;fill:color(display-p3 0.1647 0.2784 0.3333);fill-opacity:1;"/>
<path d="M274.095 167.723C274.095 167.723 281.946 178.078 280.518 183.995C279.091 189.913 269.099 326.011 269.099 326.011L254.824 325.271L246.259 203.227L244.056 326.011L230.557 325.271L213.428 172.9L274.095 167.723Z" fill="#2A4755" style="fill:#2A4755;fill:color(display-p3 0.1647 0.2784 0.3333);fill-opacity:1;"/>
<path d="M191.568 200.741C190.219 206.102 186.455 209.726 183.163 208.835C179.871 207.944 178.297 202.877 179.648 197.514C180.16 195.364 181.16 193.372 182.567 191.705L188.562 169.065L198.754 172.207L191.761 194.193C192.203 196.36 192.136 198.606 191.568 200.741Z" fill="#FFB6B6" style="fill:#FFB6B6;fill:color(display-p3 1.0000 0.7137 0.7137);fill-opacity:1;"/>
<path d="M225.151 48.226C236.415 48.226 245.546 38.7635 245.546 27.0908C245.546 15.4181 236.415 5.95557 225.151 5.95557C213.888 5.95557 204.757 15.4181 204.757 27.0908C204.757 38.7635 213.888 48.226 225.151 48.226Z" fill="#FFB6B6" style="fill:#FFB6B6;fill:color(display-p3 1.0000 0.7137 0.7137);fill-opacity:1;"/>
<path d="M222.706 53.8145L244.118 49.3765L267.671 61.9508L272.667 142.574L279.091 172.901L212.714 173.64L215.569 132.959L211.287 68.6078L222.706 53.8145Z" fill="#E6E6E6" style="fill:#E6E6E6;fill:color(display-p3 0.9020 0.9020 0.9020);fill-opacity:1;"/>
<path d="M217.71 70.8267C217.71 70.8267 206.29 67.1284 202.008 73.7854C197.726 80.4424 189.875 140.355 189.875 140.355L182.024 185.475L196.298 187.694L219.851 108.55L217.71 70.8267Z" fill="#E6E6E6" style="fill:#E6E6E6;fill:color(display-p3 0.9020 0.9020 0.9020);fill-opacity:1;"/>
<path d="M321.581 174.809C323.908 179.798 323.31 185.085 320.247 186.619C317.183 188.153 312.815 185.353 310.488 180.363C309.532 178.382 309.047 176.194 309.075 173.98L299.474 152.715L309.199 148.258L317.631 169.695C319.323 171.048 320.678 172.802 321.581 174.809Z" fill="#FFB6B6" style="fill:#FFB6B6;fill:color(display-p3 1.0000 0.7137 0.7137);fill-opacity:1;"/>
<path d="M258.732 62.7174C258.732 62.7174 268.988 56.3317 274.665 61.754C280.341 67.1762 301.608 123.479 301.608 123.479L319.508 165.406L306.142 171.052L265.238 99.8993L258.732 62.7174Z" fill="#E6E6E6" style="fill:#E6E6E6;fill:color(display-p3 0.9020 0.9020 0.9020);fill-opacity:1;"/>
<path d="M308.095 348.559C308.095 349.048 307.717 349.44 307.246 349.44H0.849337C0.378297 349.44 0 349.048 0 348.559C0 348.323 0.0856902 348.116 0.2284 347.96H64.2641C65.6273 347.96 66.962 347.864 68.2753 347.679H307.246C307.717 347.679 308.095 348.071 308.095 348.559Z" fill="#2A4755" style="fill:#2A4755;fill:color(display-p3 0.1647 0.2784 0.3333);fill-opacity:1;"/>
<path d="M182.645 203.071C183.918 199.966 186.497 198.13 188.404 198.97C190.31 199.811 190.823 203.009 189.549 206.115C189.056 207.363 188.282 208.471 187.292 209.345L181.734 222.432L175.864 219.598L181.966 206.998C181.886 205.652 182.119 204.305 182.645 203.071Z" fill="#FFB6B6" style="fill:#FFB6B6;fill:color(display-p3 1.0000 0.7137 0.7137);fill-opacity:1;"/>
<path d="M145.528 225.631C152.778 225.631 158.656 219.54 158.656 212.027C158.656 204.513 152.778 198.422 145.528 198.422C138.278 198.422 132.401 204.513 132.401 212.027C132.401 219.54 138.278 225.631 145.528 225.631Z" fill="#FFB6B6" style="fill:#FFB6B6;fill:color(display-p3 1.0000 0.7137 0.7137);fill-opacity:1;"/>
<path d="M162.039 228.376L174.886 223.198L179.169 207.665L188.447 211.363L181.31 233.553L162.039 241.183V228.376Z" fill="#41C1BA" style="fill:#41C1BA;fill:color(display-p3 0.2549 0.7569 0.7294);fill-opacity:1;"/>
<path d="M143.802 227.153L151.632 220.552C151.632 220.552 150.89 210.658 153.705 209.768C156.52 208.878 159.455 205.324 159.455 205.324C159.455 205.324 154.797 194.418 146.597 196.073C138.397 197.728 140.268 195.21 135.214 197.984C130.161 200.757 128.976 204.458 129.591 208.39C130.205 212.322 128.376 222.09 134.496 222.593C140.617 223.096 143.802 227.153 143.802 227.153Z" fill="#2A4755" style="fill:#2A4755;fill:color(display-p3 0.1647 0.2784 0.3333);fill-opacity:1;"/>
<path d="M212.799 31.8225C211.311 29.0099 212.084 27.6672 210.741 26.5677C210.741 26.5676 210.201 26.1252 206.133 25.5617C205.744 18.6638 204.666 17.742 204.666 17.742C203.424 16.6795 201.447 16.8277 200.187 17.3102C197.523 18.3309 197.615 21.0198 195.846 21.3864C193.402 21.8928 200.065 17.5624 199.987 12.9817C199.924 9.2451 202.506 5.83491 203.406 6.1011C204.298 6.36503 206.689 3.67341 207.858 3.81472C208.656 3.91122 212.039 2.70913 212.91 2.8971C213.86 3.1024 216.896 5.0775 217.058 4.69708C218.184 2.05359 217.973 1.27675 218.811 0.563205C220.297 -0.70118 222.478 0.445583 225.978 1.25398C233.177 2.91726 234.64 0.534291 238.242 2.52976C240.061 3.53778 241.461 5.96596 244.187 10.7812C248 17.5152 249.906 20.8822 249.633 24.6027C249.355 28.3969 247.601 28.0093 246.39 33.5602C245.041 39.7391 246.662 42.7498 244.494 44.614C242.818 46.0548 228.924 46.1657 227.37 44.6508C224.709 42.0571 228.868 36.6743 226.042 32.2563C224.308 29.5443 220.513 28.0872 218.636 29.2015C216.515 30.4614 217.3 34.7399 215.855 35.0198C214.618 35.2596 213.059 32.3126 212.799 31.8225Z" fill="#2A4755" style="fill:#2A4755;fill:color(display-p3 0.1647 0.2784 0.3333);fill-opacity:1;"/>
<path d="M113.954 203.765C116.795 201.277 116.041 195.511 112.269 190.884C110.618 188.859 108.663 187.388 106.748 186.583L104.546 183.95L76.1211 147.04C76.1211 147.04 60.3795 110.321 55.7327 106.354C51.0859 102.388 45.6187 104.453 45.6187 104.453L41.353 109.922L67.9347 161.19L95.1392 189.563L98.8117 193.531C99.2579 195.622 100.33 197.866 101.981 199.891C105.753 204.518 111.113 206.252 113.954 203.765Z" fill="#FFB6B6" style="fill:#FFB6B6;fill:color(display-p3 1.0000 0.7137 0.7137);fill-opacity:1;"/>
<path d="M60.297 113.182L67.4204 124.008L77.6468 139.693L59.2718 146.281L43.0481 117.431L60.297 113.182Z" fill="#E6E6E6" style="fill:#E6E6E6;fill:color(display-p3 0.9020 0.9020 0.9020);fill-opacity:1;"/>
<path d="M67.5294 76.3343L62.3702 96.7184L42.7009 92.7084C42.7009 92.7084 50.4397 78.0051 48.505 71.3218L67.5294 76.3343Z" fill="#FFB6B6" style="fill:#FFB6B6;fill:color(display-p3 1.0000 0.7137 0.7137);fill-opacity:1;"/>
<path d="M46.7658 341.672L58.6105 341.671L64.2451 294.323L46.7634 294.325L46.7658 341.672Z" fill="#FFB6B6" style="fill:#FFB6B6;fill:color(display-p3 1.0000 0.7137 0.7137);fill-opacity:1;"/>
<path d="M87.3472 341.394C87.716 342.038 87.9106 344.115 87.9106 344.864C87.9106 347.165 86.1108 349.03 83.8905 349.03H47.2088C45.6942 349.03 44.4662 347.757 44.4662 346.188V344.605C44.4662 344.605 42.6516 339.848 46.3876 333.985C46.3876 333.985 51.0309 338.576 57.9691 331.386L60.0152 327.544L74.8257 338.77L83.0349 339.817C84.8309 340.046 86.4234 339.781 87.3472 341.394Z" fill="#2A4755" style="fill:#2A4755;fill:color(display-p3 0.1647 0.2784 0.3333);fill-opacity:1;"/>
<path d="M79.6545 204.647L63.333 319.75H42.8554L45.5783 254.047L47.0114 219.499L42.8554 203.055C42.8554 203.055 40.9605 199.4 39.3642 194.969C37.5648 189.969 36.1436 183.974 38.2535 181.132C39.0298 180.084 41.0481 179.308 43.7909 178.731C45.4668 178.376 47.4175 178.1 49.5233 177.885C61.6331 176.643 78.8583 177.419 78.8583 177.419L79.2962 192.395L79.5391 200.757L79.6545 204.647Z" fill="#2A4755" style="fill:#2A4755;fill:color(display-p3 0.1647 0.2784 0.3333);fill-opacity:1;"/>
<path d="M25.9011 336.043L37.62 337.827L49.8402 291.833L32.5443 289.199L25.9011 336.043Z" fill="#FFB6B6" style="fill:#FFB6B6;fill:color(display-p3 1.0000 0.7137 0.7137);fill-opacity:1;"/>
<path d="M66.09 341.885C66.3645 342.577 66.2654 344.662 66.1604 345.403C65.8374 347.679 63.7949 349.253 61.5982 348.919L25.3066 343.389C23.8081 343.161 22.7719 341.717 22.9922 340.164L23.2143 338.598C23.2143 338.598 22.0866 333.618 26.6058 328.381C26.6058 328.381 30.5553 333.623 38.429 327.554L40.9925 324.062L54.0699 337.401L62.0448 339.675C63.7896 340.172 65.4023 340.15 66.09 341.885Z" fill="#2A4755" style="fill:#2A4755;fill:color(display-p3 0.1647 0.2784 0.3333);fill-opacity:1;"/>
<path d="M79.9115 185.451L77.6728 205.431L65.4644 247.534L45.3672 316.85L25.1096 313.765L43.2905 215.208L41.4903 198.308C41.4903 198.308 40.9041 196.628 40.232 194.169C38.8981 189.304 37.2251 181.38 39.0657 177.339C39.3142 176.789 39.6262 176.313 40.0122 175.927C40.7362 175.199 42.2075 174.757 44.1789 174.523C52.4186 173.558 69.3878 176.318 76.9387 177.673L79.9115 185.451Z" fill="#2A4755" style="fill:#2A4755;fill:color(display-p3 0.1647 0.2784 0.3333);fill-opacity:1;"/>
<path d="M64.3048 90.7035L86.5537 119.776L82.5599 150.086L79.1374 180.928L38.8314 174.579C38.8314 174.579 47.5375 152.858 48.5049 151.856C49.4722 150.853 51.902 153.329 50.2034 150.086C48.5049 146.843 46.5702 146.843 48.1824 145.173C49.7946 143.502 35.6069 121.781 35.6069 110.085C35.6069 98.3894 42.3783 89.0327 42.3783 89.0327L64.3048 90.7035Z" fill="#E6E6E6" style="fill:#E6E6E6;fill:color(display-p3 0.9020 0.9020 0.9020);fill-opacity:1;"/>
<path d="M59.1139 80.1839C67.3916 80.1839 74.1019 73.2297 74.1019 64.6513C74.1019 56.0729 67.3916 49.1187 59.1139 49.1187C50.8363 49.1187 44.126 56.0729 44.126 64.6513C44.126 73.2297 50.8363 80.1839 59.1139 80.1839Z" fill="#FFB6B6" style="fill:#FFB6B6;fill:color(display-p3 1.0000 0.7137 0.7137);fill-opacity:1;"/>
<path d="M58.4135 94.349C58.4135 94.349 60.6563 75.9582 61.0532 70.61C61.4502 65.2618 68.7348 56.9117 68.7348 56.9117L73.8954 61.2314C73.8954 61.2314 78.2621 61.2314 75.2848 54.6491C72.3075 48.0667 66.7499 47.0382 66.7499 47.0382C66.7499 47.0382 66.1545 38.3988 55.8332 39.4273C45.5119 40.4558 40.9467 49.0952 40.9467 49.0952C40.9467 49.0952 40.3513 38.1931 33.8012 46.2154C27.2512 54.2377 23.48 57.5289 30.427 60.2029C37.374 62.877 42.5346 60.82 42.5346 60.82C42.5346 60.82 35.7861 62.2599 36.977 67.1967C38.1679 72.1335 21.2966 94.5547 29.0376 97.0231C36.7785 99.4915 54.0468 105.457 56.0317 101.548C58.0165 97.6402 58.4135 94.349 58.4135 94.349Z" fill="#2A4755" style="fill:#2A4755;fill:color(display-p3 0.1647 0.2784 0.3333);fill-opacity:1;"/>
<path d="M120.197 205.305C123.058 202.842 122.35 197.069 118.616 192.41C116.982 190.371 115.038 188.883 113.13 188.061L110.95 185.409L82.8241 148.253C82.8241 148.253 67.38 111.399 62.7654 107.392C58.1509 103.385 52.6672 105.403 52.6672 105.403L48.3574 110.835L74.5235 162.332L101.498 190.94L105.138 194.94C105.567 197.035 106.622 199.288 108.256 201.327C111.99 205.986 117.336 207.767 120.197 205.305Z" fill="#FFB6B6" style="fill:#FFB6B6;fill:color(display-p3 1.0000 0.7137 0.7137);fill-opacity:1;"/>
<path d="M46.7249 102.546C46.7249 102.546 53.6102 139.575 61.4451 145.034L77.0581 132.417C77.0581 132.417 78.4244 132.356 75.8815 129.38C73.3386 126.403 73.9897 120.011 73.9897 120.011C73.9897 120.011 75.1339 121.545 72.6441 119.415C70.1543 117.285 72.4721 102.638 72.4721 102.638L46.7249 102.546Z" fill="#E6E6E6" style="fill:#E6E6E6;fill:color(display-p3 0.9020 0.9020 0.9020);fill-opacity:1;"/>
<path d="M160.441 255.318C160.112 255.318 159.816 255.082 159.744 254.734L158.959 250.956C157.806 245.4 153.173 241.342 147.694 241.089C142.618 240.853 137.914 243.969 135.986 248.839L134.017 253.813C133.868 254.192 133.452 254.372 133.086 254.217C132.721 254.062 132.547 253.63 132.697 253.252L134.666 248.278C136.822 242.832 142.077 239.354 147.758 239.611C153.885 239.895 159.064 244.432 160.354 250.645L161.139 254.423C161.222 254.823 160.977 255.216 160.592 255.302C160.541 255.313 160.49 255.318 160.441 255.318Z" fill="#FFB6B6" style="fill:#FFB6B6;fill:color(display-p3 1.0000 0.7137 0.7137);fill-opacity:1;"/>
<path d="M161.283 267.348C161.262 267.348 161.241 267.347 161.219 267.345L134.808 264.904C134.415 264.868 134.125 264.509 134.16 264.102C134.196 263.695 134.539 263.397 134.935 263.431L161.346 265.872C161.739 265.908 162.028 266.267 161.994 266.674C161.96 267.059 161.649 267.348 161.283 267.348Z" fill="#FFB6B6" style="fill:#FFB6B6;fill:color(display-p3 1.0000 0.7137 0.7137);fill-opacity:1;"/>
</g>
<defs>
<clipPath id="clip0_389_299">
<rect width="323" height="349.44" fill="white" style="fill:white;fill-opacity:1;"/>
</clipPath>
</defs>
</svg>
